<?xml version="1.0" standalone="no"?>
<!DOCTYPE svg PUBLIC "-//W3C//DTD SVG 1.1//EN" "http://www.w3.org/Graphics/SVG/1.1/DTD/svg11.dtd" >
<svg xmlns="http://www.w3.org/2000/svg" xmlns:xlink="http://www.w3.org/1999/xlink" version="1.1">
<metadata>
Created by FontForge 20170731 at Mon Mar 27 13:07:42 2000
 By Aleksey,,,
Copyright 1991 as an unpublished work by Bitstream Inc.  All rights reserved.  Confidential.
</metadata>
<defs>
<font id="AppleGaramond" horiz-adv-x="500" >
  <font-face 
    font-family="Apple Garamond"
    font-weight="400"
    font-stretch="normal"
    units-per-em="1000"
    panose-1="2 0 5 6 8 0 0 2 0 4"
    ascent="800"
    descent="-200"
    x-height="440"
    cap-height="630"
    bbox="-134 -236 916 916"
    underline-thickness="70"
    underline-position="-215"
    unicode-range="U+0020-FB02"
  />
<missing-glyph horiz-adv-x="219" 
 />
    <glyph glyph-name=".notdef" horiz-adv-x="219" 
 />
    <glyph glyph-name=".null" horiz-adv-x="0" 
 />
    <glyph glyph-name="nonmarkingreturn" 
 />
    <glyph glyph-name="space" unicode=" " horiz-adv-x="219" 
 />
    <glyph glyph-name="space" unicode="&#xa0;" horiz-adv-x="219" 
 />
    <glyph glyph-name="exclam" unicode="!" horiz-adv-x="241" 
d="M160 451q5 45 8 75t3 46q0 26 -14 41.5t-37 15.5t-36.5 -16t-13.5 -46q0 -11 3 -39.5t8 -76.5l27 -270q2 -11 3.5 -18t8.5 -7t9 7t4 18zM120 96q-17 0 -30.5 -15t-13.5 -38t13.5 -38t30.5 -15t30.5 15t13.5 38t-13.5 38t-30.5 15z" />
    <glyph glyph-name="quotedbl" unicode="&#x22;" horiz-adv-x="331" 
d="M93 422l32 223q1 6 1.5 11t0.5 9q0 24 -11 36.5t-31 12.5q-41 0 -41 -49q0 -5 0.5 -10t1.5 -10l31 -223h16zM253 422l33 223q1 6 1 11v9q0 49 -41 49q-20 0 -31 -12.5t-11 -37.5q0 -5 0.5 -9.5t1.5 -9.5l32 -223h15z" />
    <glyph glyph-name="numbersign" unicode="#" horiz-adv-x="769" 
d="M380 711l-81 -231h-170l-21 -56h170l-49 -140h-157l-21 -56h158l-81 -229h64l81 229h140l-81 -229h65l81 229h161l21 56h-162l49 140h151l20 56h-150l81 231h-64l-82 -231h-140l82 231h-65zM342 424h142l-50 -140h-141z" />
    <glyph glyph-name="dollar" unicode="$" horiz-adv-x="437" 
d="M224 701l-12 -78q-64 -11 -99.5 -55.5t-35.5 -113.5q0 -49 21 -83t67 -63l-36 -238q-20 17 -28.5 36.5t-12.5 45.5q-2 15 -2.5 27t-1 21t-3.5 14t-10 5q-13 0 -16 -27t-3 -89q0 -13 2 -22.5t9 -18t21 -17t38 -19.5l-18 -122h25l18 113q24 -5 47 -6l-16 -107h25l17 109
q34 5 63 20.5t49 40.5t31.5 57t11.5 70q0 57 -23.5 97.5t-76.5 77.5l28 191q14 -16 19.5 -32.5t8.5 -30t6.5 -22t13.5 -8.5q13 0 13 39v32q0 13 -1.5 22.5t-7 17.5t-16 15t-28.5 15l13 86h-25l-13 -81q-24 3 -48 3l12 78h-26zM233 590h8q23 0 40 -8l-30 -193q-24 12 -45 24z
M207 587l-25 -160q-43 30 -43 78q0 35 19.5 57.5t48.5 24.5zM188 296q25 -11 46 -26l-34 -224q-13 0 -24.5 1.5t-23.5 6.5zM257 257q28 -23 40.5 -45t12.5 -53q0 -45 -23.5 -75.5t-61.5 -35.5z" />
    <glyph glyph-name="percent" unicode="%" horiz-adv-x="615" 
d="M173 648q-26 0 -49.5 -12.5t-41.5 -34.5t-29 -52.5t-11 -66.5q0 -35 11 -64t29 -50t41.5 -32.5t49.5 -11.5q25 0 48.5 12t42 34t29.5 52.5t11 67.5q0 33 -10.5 62t-28.5 50t-41.5 33.5t-50.5 12.5zM489 648l-405 -667h41l406 667h-42zM170 616q29 0 50 -36.5t21 -100.5
q0 -60 -18.5 -93t-47.5 -33t-49.5 37.5t-20.5 102.5q0 58 18 90.5t47 32.5zM442 305q-26 0 -49.5 -12.5t-41.5 -34.5t-29 -52.5t-11 -66.5q0 -35 10.5 -64t28.5 -50t42 -32.5t50 -11.5q25 0 48.5 12.5t42 34.5t29.5 52.5t11 66.5q0 34 -10.5 63t-28.5 50t-41.5 33t-50.5 12z
M440 275q28 0 49 -36.5t21 -99.5q0 -61 -18.5 -94t-47.5 -33t-49.5 36.5t-20.5 102.5q0 58 18.5 91t47.5 33z" />
    <glyph glyph-name="ampersand" unicode="&#x26;" horiz-adv-x="604" 
d="M298 435l-16 -13q-5 -5 -12 -5q-9 0 -15 10l-23 33q-14 20 -20.5 42t-6.5 43q0 35 16.5 55.5t42.5 20.5q29 0 50 -28.5t21 -79.5q0 -23 -10 -43.5t-27 -34.5zM317 403q48 26 70.5 54t22.5 67q0 26 -10 48.5t-28 39.5t-44 26.5t-57 9.5t-57.5 -11t-46 -29.5t-30.5 -44
t-11 -54.5t8.5 -54t23.5 -51l14 -25q4 -8 4 -12q0 -7 -11 -13l-31 -19q-108 -63 -108 -177q0 -37 11 -69t30.5 -55.5t46 -37t58.5 -13.5q50 0 87.5 22.5t79.5 68.5l14 15q8 8 10 8t4.5 -1.5t4.5 -4.5l19 -29q6 -9 6 -15q0 -10 -6 -14t-13 -5.5t-13 -4t-6 -9.5q0 -6 4.5 -10
t10.5 -4q11 0 33.5 3.5t54.5 3.5q40 0 65.5 -3.5t38.5 -3.5q21 0 21 16q0 7 -8 9.5t-21.5 8.5t-32.5 20t-41 46l-56 80q-3 4 -3 11q0 4 6 15l18 30q59 96 100 116q9 4 16.5 6.5l13.5 4.5t9 4.5t3 7.5q0 11 -13 11q-6 0 -21.5 -2t-39.5 -2q-36 0 -58.5 3t-31.5 3
q-20 0 -20 -14q0 -8 9 -10.5t19.5 -4t19.5 -6t9 -17.5q0 -18 -24 -60l-30 -51q-3 -5 -7 -5t-7 4l-104 150q-3 4 -3 8q0 5 8 10zM206 330l127 -187q4 -8 4 -11q0 -8 -4 -12l-23 -25q-42 -45 -88 -45q-48 0 -78 38t-30 101q0 43 14.5 76.5t37.5 50.5l22 16q4 3 8 3q7 0 10 -5z
" />
    <glyph glyph-name="quotesingle" unicode="'" horiz-adv-x="170" 
d="M93 422l32 223q1 6 1.5 11t0.5 9q0 24 -11 36.5t-31 12.5q-41 0 -41 -50v-10q0 -4 1 -9l32 -223h16z" />
    <glyph glyph-name="parenleft" unicode="(" horiz-adv-x="311" 
d="M306 648q-8 0 -39 -20.5t-67 -63.5q-61 -72 -93.5 -162t-32.5 -193q0 -109 36.5 -204t101.5 -166q33 -36 59.5 -53t34.5 -17q11 0 11 8q0 6 -6 10t-16.5 11.5t-23.5 19.5t-27 33q-40 60 -63.5 151t-23.5 207q0 117 24 207t63 150q14 21 27 33t23.5 19t16.5 11.5t6 10.5
q0 8 -11 8z" />
    <glyph glyph-name="parenright" unicode=")" horiz-adv-x="311" 
d="M5 648q-11 0 -11 -8q0 -6 7 -10.5t18 -13t26 -22.5t30 -39q37 -62 58 -149.5t21 -196.5q0 -118 -24 -208.5t-63 -149.5q-14 -21 -27 -33t-23.5 -19t-16.5 -11.5t-6 -10.5q0 -8 11 -8q8 0 38.5 20t67.5 64q61 72 93.5 162.5t32.5 193.5t-32.5 193t-93.5 162
q-37 44 -67.5 64t-38.5 20z" />
    <glyph glyph-name="asterisk" unicode="*" horiz-adv-x="400" 
d="M207 457q0 4 -0.5 7.5t-0.5 6.5q0 23 4.5 42t10.5 35t10.5 30t4.5 27q0 43 -36 43q-17 0 -26.5 -12t-9.5 -30q0 -14 4.5 -28.5t10.5 -30.5t10.5 -35t4.5 -42v-12q-24 16 -38 35.5t-24 36.5t-19.5 28.5t-25.5 11.5q-15 0 -24.5 -13.5t-9.5 -30.5q0 -21 12.5 -34t32.5 -15
q21 -2 43 -5.5t46 -25.5q-25 -27 -75 -30q-59 -3 -59 -50q0 -20 11 -32.5t24 -12.5q15 0 24.5 11t19.5 28t24 36.5t37 36.5q0 -4 0.5 -7.5t0.5 -7.5q0 -24 -4.5 -42.5t-10.5 -34.5t-10.5 -29.5t-4.5 -26.5q0 -43 36 -43q17 0 26 13t9 30q0 14 -4.5 28.5t-10 30.5t-10 35
t-4.5 43v10q24 -15 37.5 -34.5t23.5 -37t19.5 -29t25.5 -11.5q11 0 23 13t12 30q0 22 -13 35.5t-32 15.5q-20 2 -41.5 5.5t-47.5 24.5q20 20 43 25t50 8q14 2 27.5 15t13.5 33q0 17 -10.5 31t-23.5 14q-16 0 -26 -11t-19.5 -28t-23 -37t-37.5 -37z" />
    <glyph glyph-name="plus" unicode="+" horiz-adv-x="833" 
d="M388 596v-269h-264v-57h264v-270h58v270h263v57h-263v269h-58z" />
    <glyph glyph-name="comma" unicode="," horiz-adv-x="219" 
d="M52 41q0 -17 8 -30t20 -18q9 -3 16 -3t12 -1t7.5 -6t2.5 -18q0 -30 -10 -52t-21.5 -37.5t-21.5 -26t-10 -17.5q0 -10 9 -10q7 0 22 14.5t30.5 39t27.5 57.5t12 70q0 42 -16 65.5t-41 23.5q-20 0 -33.5 -14.5t-13.5 -36.5z" />
    <glyph glyph-name="hyphen" unicode="-" horiz-adv-x="222" 
d="M47 266q-3 0 -7 -3.5t-6 -9.5l-17 -67q-2 -8 -2 -7q0 -5 7 -5h153q3 0 7 3.5t6 9.5l18 67q1 4 1 7q0 5 -7 5h-153z" />
    <glyph glyph-name="hyphen" unicode="&#xad;" horiz-adv-x="222" 
d="M47 266q-3 0 -7 -3.5t-6 -9.5l-17 -67q-2 -8 -2 -7q0 -5 7 -5h153q3 0 7 3.5t6 9.5l18 67q1 4 1 7q0 5 -7 5h-153z" />
    <glyph glyph-name="period" unicode="." horiz-adv-x="219" 
d="M109 96q-17 0 -30.5 -15t-13.5 -38t13.5 -38t30.5 -15t30.5 15t13.5 38t-13.5 38t-30.5 15z" />
    <glyph glyph-name="slash" unicode="/" horiz-adv-x="222" 
d="M232 648l-248 -741h32l247 741h-31z" />
    <glyph glyph-name="zero" unicode="0" horiz-adv-x="437" 
d="M218 648q-39 0 -73.5 -22t-61 -64.5t-42 -104.5t-15.5 -142t15.5 -142.5t41.5 -105t61.5 -64.5t74.5 -22t73.5 22t61 64.5t42 104.5t15.5 143q0 80 -15.5 142t-41.5 104.5t-61.5 64.5t-74.5 22zM218 620q54 0 77 -76t23 -230t-23 -229.5t-76 -75.5t-76.5 76t-23.5 230
q0 153 23.5 229t75.5 76z" />
    <glyph glyph-name="one" unicode="1" horiz-adv-x="437" 
d="M284 571q0 18 2 32t2 23q0 19 -13 19q-3 0 -9.5 -4.5t-20 -12.5t-35 -19t-53.5 -23q-33 -13 -54 -20.5t-21 -22.5q0 -13 13 -13q9 0 19.5 4.5t22 10t22.5 10t21 4.5q11 0 12.5 -12.5t1.5 -42.5v-389q0 -38 -6 -56.5t-30 -22.5q-14 -2 -26 -2q-11 0 -19 -1t-12.5 -4
t-4.5 -12q0 -17 17 -17q12 0 39 3t69 3q72 0 106.5 -4t39.5 -4q14 0 14 17q0 10 -7 13.5t-17.5 4t-23.5 0.5q-12 0 -23 5q-17 8 -21.5 29t-4.5 56v448z" />
    <glyph glyph-name="two" unicode="2" horiz-adv-x="437" 
d="M147 138q68 80 113.5 126.5t64.5 69.5q27 35 41.5 73t14.5 76q0 36 -12 66t-33.5 51.5t-51 33.5t-63.5 12q-39 0 -71.5 -17.5t-56 -40.5t-36 -47.5t-12.5 -37.5q0 -12 10 -12q11 0 18 13t21 33q22 30 44.5 45.5t50.5 15.5q42 0 70 -34t28 -94q0 -51 -26 -100.5
t-71 -115.5l-131 -190q-11 -15 -17.5 -25.5t-6.5 -20.5q0 -20 22 -20q3 0 6.5 1t7.5 1h273q24 0 29.5 6t5.5 33v95q0 14 -1 22t-9 8q-7 0 -10.5 -4.5t-5.5 -11.5t-4 -15.5t-6 -16.5q-5 -11 -17 -14.5t-35 -3.5h-158q-13 0 -13 4q0 2 5 9z" />
    <glyph glyph-name="three" unicode="3" horiz-adv-x="437" 
d="M203 647q-35 0 -63.5 -12t-48.5 -28.5t-31 -34.5t-11 -31q0 -14 8 -14q10 0 14 9.5t16 24.5q19 24 38.5 36t44.5 12q30 0 50.5 -23t20.5 -59q0 -44 -29 -78.5t-78 -74.5q-40 -32 -62 -46.5t-22 -28.5q0 -5 3.5 -8t7.5 -3q3 0 10.5 4.5t19.5 10t29 10t39 4.5
q69 0 109 -43.5t40 -119.5q0 -48 -14.5 -85.5t-36 -63t-45.5 -38.5t-43 -13q-14 0 -25.5 10t-22 21.5t-22 21.5t-25.5 10q-36 0 -36 -42q0 -59 90 -59q43 0 92 25.5t93 76.5q75 87 75 188q0 64 -24.5 107.5t-71.5 63.5q-20 9 -36.5 11.5t-28 3.5t-18.5 1q-6 0 -6 3
q0 6 21 15.5t50 32.5q28 22 40.5 46t12.5 57q0 43 -32.5 71.5t-91.5 28.5z" />
    <glyph glyph-name="four" unicode="4" horiz-adv-x="437" 
d="M354 711q-8 0 -11.5 -3t-8.5 -9l-278 -409q-15 -23 -24 -38.5t-9 -26.5q0 -16 6 -19.5t19 -3.5h176q15 0 17.5 -4t2.5 -21v-78q0 -23 -3.5 -37t-18.5 -19q-16 -5 -27.5 -7t-18.5 -4t-10.5 -5.5t-3.5 -12.5t2 -11.5t10 -2.5t37 4t82 4q29 0 50 -3t33 -3q9 0 13 3t4 12
t-3.5 12t-9.5 4t-14 1.5t-17 5.5q-11 6 -14 16.5t-3 30.5v96q0 10 3 14.5t12 4.5h51q11 0 11 13v16q0 14 -12 14h-47q-12 0 -15 4.5t-3 15.5v207q0 16 -10 16q-1 0 -19 -5.5t-38 -18.5q-15 -10 -18 -16.5t-3 -16.5v-163q0 -14 -2.5 -18.5t-15.5 -4.5h-141q-8 0 -13 1t-5 8
q0 5 11 22t31 47l53 78q50 73 89.5 127t67.5 90.5t42.5 57t14.5 26.5q0 3 -2.5 6t-5.5 3h-14z" />
    <glyph glyph-name="five" unicode="5" horiz-adv-x="437" 
d="M305 547q8 1 16.5 1.5t15.5 8.5t11.5 26t4.5 53q0 12 -10 12h-9l-164 -16q-21 -2 -33 -4t-18.5 -5.5t-9 -10t-5.5 -17.5q-23 -95 -39 -147t-16 -71q0 -12 6.5 -16t19.5 -5.5t33 -2.5t47 -7q73 -15 108.5 -51t35.5 -98q0 -65 -35.5 -116t-103.5 -81q-27 -12 -48 -16.5
t-35.5 -7t-21.5 -5.5t-7 -12q0 -15 17 -15q9 0 29.5 4t47 12.5t56 21t56.5 30.5q63 41 97.5 98.5t34.5 119.5q0 174 -182 212q-24 5 -43.5 6.5t-33 3t-20.5 5t-7 13.5q0 26 6 39t17 19t27 6.5t37 2.5z" />
    <glyph glyph-name="six" unicode="6" horiz-adv-x="437" 
d="M28 257q0 -61 15.5 -112t42.5 -87.5t63 -56.5t77 -20q38 0 72 18.5t59.5 50.5t40 76t14.5 94q0 41 -10.5 75.5t-29.5 60t-45.5 40t-58.5 14.5q-19 0 -36 -6t-30.5 -14t-21.5 -18t-8 -17q0 -4 2.5 -8t6.5 -4t8.5 3.5t10.5 8t13 8.5t17 4q38 0 66 -47.5t28 -138.5
q0 -81 -23 -125t-60 -44q-23 0 -45 18.5t-39.5 52t-28.5 80.5t-11 105q0 53 14 106.5t38.5 103t58 91.5t72.5 73q24 19 43 28.5t32.5 15t21 9.5t7.5 12q0 12 -13 12q-6 0 -26.5 -7.5t-49 -22.5t-63.5 -38t-70 -54q-75 -67 -114.5 -155t-39.5 -185z" />
    <glyph glyph-name="seven" unicode="7" horiz-adv-x="437" 
d="M152 629q-37 0 -61.5 3t-35.5 3t-15.5 -4.5t-4.5 -18.5q0 -21 1.5 -43.5t9.5 -47.5q15 4 43.5 6.5t70.5 2.5h152q25 0 25 -8q0 -2 -1 -8.5t-5 -17.5l-99 -277q-35 -101 -57 -157.5t-27 -69.5l-9 -21q-3 -9 -3 -12q0 -8 11 -8q12 0 16 2.5t8 13.5l130 348q54 144 87 217
t33 87q0 6 -4 10.5t-10 4.5q-5 0 -15.5 -2.5t-27.5 -2.5h-212z" />
    <glyph glyph-name="eight" unicode="8" horiz-adv-x="437" 
d="M320 491q0 -26 -8.5 -47.5t-19.5 -36.5t-23.5 -23.5t-19.5 -8.5q-3 0 -14 4.5t-26 12.5t-31 19t-28 24q-30 30 -30 75q0 53 27 83t66 30q47 0 77 -36t30 -96zM319 375q76 33 76 122q0 34 -12.5 62t-35 48t-54 31t-70.5 11q-40 0 -73 -13t-56.5 -36.5t-36.5 -56.5t-13 -74
q0 -47 15.5 -77t51.5 -54l26 -17l12 -9q0 -3 -8 -6l-20 -8q-46 -19 -72.5 -56t-26.5 -88q0 -37 13 -68.5t37.5 -55t59.5 -36.5t79 -13q43 0 79.5 15t63 41t41.5 62.5t15 79.5q0 105 -83 157l-24 15q-10 6 -10 10q0 2 10 7zM186 295q4 0 16.5 -4.5t28 -13t31.5 -19.5t28 -23
q36 -37 36 -100q0 -27 -8.5 -50t-23.5 -40t-35.5 -26.5t-43.5 -9.5t-43.5 10t-35.5 29t-23.5 44.5t-8.5 57.5q0 34 8 60.5t20 45.5t26.5 29t27.5 10z" />
    <glyph glyph-name="nine" unicode="9" horiz-adv-x="437" 
d="M24 430q0 -45 12 -81.5t33.5 -62.5t51 -40t63.5 -14q15 0 31 5t28.5 13t21 16.5t8.5 16.5q0 10 -8 10q-5 0 -15.5 -8t-30.5 -8t-39.5 12.5t-34.5 36t-24.5 56.5t-9.5 74q0 37 7.5 67.5t20 52t29 33.5t34.5 12q20 0 40.5 -17t37 -48t26.5 -74.5t10 -96.5q0 -108 -47 -209
t-132 -176q-21 -19 -40.5 -31t-33.5 -20.5t-22.5 -14.5t-8.5 -12q0 -14 11 -14q5 0 45.5 19t100.5 62q105 75 161 174.5t56 212.5q0 61 -15.5 111t-42.5 86t-62.5 55.5t-75.5 19.5q-37 0 -70.5 -16t-59 -45t-41 -69t-15.5 -88z" />
    <glyph glyph-name="colon" unicode=":" horiz-adv-x="237" 
d="M118 375q-17 0 -30 -15t-13 -38t13 -38t30 -15t30.5 15t13.5 38t-13.5 38t-30.5 15zM118 96q-17 0 -30 -15t-13 -38t13 -38t30 -15t30.5 15t13.5 38t-13.5 38t-30.5 15z" />
    <glyph glyph-name="semicolon" unicode=";" horiz-adv-x="237" 
d="M112 375q-17 0 -30 -15t-13 -38t13 -38t30 -15t30.5 15t13.5 38t-13.5 38t-30.5 15zM67 41q0 -17 8 -30t20 -18q9 -4 16 -3.5t12 -0.5t7.5 -6t2.5 -18q0 -30 -10 -52t-21.5 -37.5t-21.5 -26t-10 -17.5q0 -10 9 -10q7 0 22 14.5t30.5 39t27.5 57.5t12 71q0 42 -16 65
t-41 23q-20 0 -33.5 -14.5t-13.5 -36.5z" />
    <glyph glyph-name="semicolon" unicode="&#x37e;" horiz-adv-x="237" 
d="M112 375q-17 0 -30 -15t-13 -38t13 -38t30 -15t30.5 15t13.5 38t-13.5 38t-30.5 15zM67 41q0 -17 8 -30t20 -18q9 -4 16 -3.5t12 -0.5t7.5 -6t2.5 -18q0 -30 -10 -52t-21.5 -37.5t-21.5 -26t-10 -17.5q0 -10 9 -10q7 0 22 14.5t30.5 39t27.5 57.5t12 71q0 42 -16 65
t-41 23q-20 0 -33.5 -14.5t-13.5 -36.5z" />
    <glyph glyph-name="less" unicode="&#x3c;" horiz-adv-x="833" 
d="M704 559l-575 -236v-50l575 -236v63l-488 198l488 199v62z" />
    <glyph glyph-name="equal" unicode="=" horiz-adv-x="833" 
d="M124 420v-57h585v57h-585zM124 233v-57h585v57h-585z" />
    <glyph glyph-name="greater" unicode="&#x3e;" horiz-adv-x="833" 
d="M129 559v-62l488 -199l-488 -198v-63l575 236v50z" />
    <glyph glyph-name="question" unicode="?" horiz-adv-x="274" 
d="M106 628q-67 0 -67 -44q0 -32 7 -50t17 -18q12 0 21 11.5t19 25.5t22 25.5t29 11.5q20 0 35 -23.5t15 -60.5t-20.5 -66t-57.5 -64q-22 -21 -37 -35t-15 -36q0 -66 8 -107t18 -41q9 0 10.5 8.5t2 20.5t2 26t9.5 25q10 14 31.5 30.5t44.5 43.5q55 62 55 139q0 39 -11 72
t-30.5 56.5t-47 36.5t-60.5 13zM105 96q-17 0 -30 -15t-13 -38t13 -38t30 -15t30.5 15t13.5 38t-13.5 38t-30.5 15z" />
    <glyph glyph-name="at" unicode="@" horiz-adv-x="986" 
d="M536 471q35 0 58.5 -28.5t23.5 -75.5q0 -41 -15.5 -93.5t-45.5 -101.5q-54 -87 -118 -87q-32 0 -52.5 25.5t-20.5 72.5q0 22 5 49.5t14.5 57t24 59.5t33.5 58q22 32 43.5 48t49.5 16zM581 164q6 -103 101 -103q32 0 64.5 13t61.5 40q51 47 79.5 114.5t28.5 145.5
q0 76 -26 138t-74.5 105.5t-117 67.5t-153.5 24q-181 0 -310 -108q-81 -67 -122.5 -153t-41.5 -186q0 -97 38 -175t112 -134q117 -90 301 -90q174 0 320 108l-15 18q-139 -101 -299 -101q-171 0 -284 96q-61 52 -88.5 115t-27.5 148q0 200 129 324q118 114 301 114
q70 0 131 -21.5t105 -59.5q99 -87 99 -222q0 -87 -32 -155t-91 -112q-22 -17 -44 -24.5t-36 -7.5q-21 0 -33.5 13.5t-12.5 36.5q0 17 3 29.5t6 23.5l83 298h-70l-26 -88q-21 95 -108 95q-35 0 -74 -17t-72 -49q-45 -43 -68 -95.5t-23 -104.5q0 -75 37 -119.5t98 -44.5
q91 0 151 103z" />
    <glyph glyph-name="A" unicode="A" horiz-adv-x="459" 
d="M249 601q-7 21 -10 34t-14 13q-8 0 -10.5 -6.5t-6.5 -17.5l-159 -516q-8 -27 -15 -45.5t-21 -28.5q-8 -6 -16.5 -7t-16 -2t-12.5 -3.5t-5 -10.5q0 -13 18 -13q11 0 27.5 2.5t38.5 2.5q32 0 54 -3t33 -3q17 0 17 12q0 11 -10 15t-30 7q-14 2 -20 7t-6 20q0 18 15 77l24 89
q1 4 4.5 6.5t6.5 2.5h124q13 0 15 -8l39 -128q9 -32 9 -45q0 -14 -8 -19t-33 -5q-20 0 -20 -16q0 -12 17 -12q10 0 35.5 2.5t67.5 2.5q30 0 50.5 -3t33.5 -3q21 0 21 14q0 9 -11.5 10.5t-25.5 11.5q-20 13 -29 34t-20 56zM200 463l54 -174q2 -8 2 -10q0 -3 -3 -5.5t-6 -2.5
h-100q-7 0 -7 6v3q0 3 1 7l47 177q2 8 6 8q3 0 6 -9z" />
    <glyph glyph-name="B" unicode="B" horiz-adv-x="519" 
d="M181 383v167q0 27 10 37.5t48 10.5q60 0 91 -32.5t31 -94.5q0 -57 -35.5 -88t-100.5 -31h-13q-11 0 -17.5 1t-9.5 4t-3.5 9t-0.5 17zM359 345q51 19 74.5 50.5t23.5 81.5q0 81 -62.5 117.5t-188.5 36.5q-187 0 -187 -31q0 -14 12 -14q8 0 16.5 2.5t18.5 2.5q27 0 27 -39
v-458q0 -8 -0.5 -13t-0.5 -7q0 -20 -8 -31.5t-31 -11.5q-24 0 -24 -15q0 -16 19 -16q10 0 28.5 3t46.5 3q37 0 81.5 -7.5t98.5 -7.5q42 0 76.5 13.5t59 38t38 58t13.5 73.5q0 70 -34 114t-97 57zM194 320h62q66 0 100 -38.5t34 -102.5q0 -73 -34 -112.5t-94 -39.5
q-45 0 -63 18.5t-18 56.5v205q0 13 13 13z" />
    <glyph glyph-name="C" unicode="C" horiz-adv-x="537" 
d="M30 316q0 -71 22 -132t61 -106t92.5 -71t116.5 -26q38 0 69.5 7t54.5 19t35.5 27.5t12.5 32.5q0 36 1.5 57.5t1.5 27.5q0 21 -11 21q-9 0 -16 -15t-19 -42q-23 -52 -54.5 -77.5t-78.5 -25.5q-37 0 -70.5 22t-59 62t-40.5 94.5t-15 119.5q0 70 15 127.5t41.5 98t61.5 62.5
t76 22q39 0 68 -23t56 -68q11 -19 18.5 -29.5t14.5 -10.5q8 0 8 18q0 45 -4 71.5t-9 31.5t-18 11.5t-33 12t-45 9.5t-52 4q-63 0 -117.5 -25.5t-95.5 -70.5t-64.5 -105.5t-23.5 -130.5z" />
    <glyph glyph-name="D" unicode="D" horiz-adv-x="595" 
d="M181 123v431q0 15 2.5 25.5t10.5 17.5t23 10.5t41 3.5q46 0 84 -21.5t65 -60.5t42 -92.5t15 -116.5q0 -68 -15 -122t-42.5 -91.5t-66.5 -58t-87 -20.5q-45 0 -58.5 21.5t-13.5 73.5zM91 94q0 -16 -0.5 -26.5t-3.5 -17t-9.5 -10.5t-18.5 -7q-7 -2 -14 -2t-12.5 -1t-9 -4
t-3.5 -10q0 -16 21 -16q19 0 40 3.5t44 3.5q26 0 58.5 -5t71.5 -5q75 0 132.5 22.5t97.5 63.5t60.5 100t20.5 132q0 72 -21.5 132.5t-61.5 103.5t-97.5 67t-128.5 24q-114 0 -175 -12.5t-61 -32.5q0 -15 11 -15q9 0 18 4.5t20 4.5q13 0 17 -8t4 -24v-465z" />
    <glyph glyph-name="E" unicode="E" horiz-adv-x="467" 
d="M419 596v4q0 16 -4 23t-24 7q-10 0 -59 -2t-137 -2q-69 0 -106 2t-43 2q-17 0 -17 -14q0 -8 3.5 -10.5t9.5 -3.5t14 -1t16 -3q14 -5 16.5 -14t2.5 -32v-458q0 -29 -4 -44t-26 -18q-19 -3 -31 -3t-12 -13q0 -16 22 -16q6 0 29.5 2.5t68.5 2.5q97 0 160.5 -4t94.5 -4
q11 0 16.5 1t8.5 5t4 10.5t2 18.5l11 97q1 8 1.5 13l0.5 5q0 2 -3.5 5.5t-6.5 3.5q-12 0 -21 -20.5t-27 -48.5q-12 -18 -24 -29.5t-27 -17.5t-33.5 -8t-41.5 -2q-22 0 -36 2.5t-22 9t-11 19t-3 33.5v206q0 11 3.5 14.5t14.5 3.5h44q32 0 52 -5t32 -28q8 -15 12 -27.5
t6.5 -22t6 -15t9.5 -5.5q12 0 12 18q0 7 -1.5 28.5t-1.5 56.5q0 30 2.5 55t2.5 44q0 14 -12 14q-8 0 -10.5 -6t-4.5 -15t-6 -19.5t-14 -20.5q-7 -7 -30 -12.5t-54 -5.5h-45q-14 0 -16 3.5t-2 16.5v165q0 18 1.5 29.5t7 18.5t16.5 10t31 3q81 0 122 -38q13 -12 20 -25.5
t11 -24.5t7.5 -18t10.5 -7q11 0 11 25v86z" />
    <glyph glyph-name="F" unicode="F" horiz-adv-x="431" 
d="M410 596v4q0 15 -3.5 22.5t-23.5 7.5q-11 0 -57 -2t-128 -2q-74 0 -110.5 2.5t-41.5 2.5q-17 0 -17 -15q0 -11 9.5 -12.5t21 -3t21 -6.5t9.5 -23q0 -5 0.5 -9.5t0.5 -9.5v-458q0 -30 -4 -44t-27 -18q-18 -3 -30 -3t-12 -13q0 -16 22 -16q11 0 33.5 3t60.5 3q40 0 66.5 -3
t38.5 -3q25 0 25 14q0 8 -3.5 11t-10 4.5t-14.5 1.5t-17 2q-14 3 -21.5 6.5t-11 10t-4.5 17t-1 27.5v211q0 13 13 13h42q30 0 49 -4.5t33 -29.5q9 -15 13 -27.5t7 -22t6 -14.5t9 -5q12 0 12 18q0 7 -1 28.5t-1 56.5q0 30 2 54.5t2 44.5q0 14 -11 14q-8 0 -10.5 -4.5
t-4 -12.5t-4.5 -18t-10 -21q-15 -23 -88 -23h-39q-14 0 -16.5 8.5t-2.5 25.5v151q0 17 1 29t6.5 19t16 10t29.5 3q78 0 118 -38q13 -13 19.5 -26t10.5 -24t7.5 -18t9.5 -7q11 0 11 25v86z" />
    <glyph glyph-name="G" unicode="G" horiz-adv-x="593" 
d="M414 119q0 -24 -2.5 -44t-11.5 -34.5t-26 -22.5t-46 -8q-40 0 -75.5 21t-62 59.5t-42 92.5t-15.5 121q0 72 15 130.5t42 100t63.5 64t79.5 22.5q88 0 123 -88q8 -20 12.5 -33.5t15.5 -13.5q13 0 13 28q0 85 -12 97q-5 6 -18.5 12.5t-33 12t-43.5 9t-51 3.5
q-67 0 -124 -26t-98 -72t-64.5 -109.5t-23.5 -138.5q0 -70 21 -129t58.5 -101.5t90 -66.5t114.5 -24q40 0 75.5 7.5t62.5 21t42.5 33t15.5 42.5v152q0 26 4.5 34.5t22.5 12.5q9 2 16.5 2.5t13 1.5t9 4t3.5 10q0 13 -15 13q-7 0 -32 -4t-73 -4q-43 0 -68.5 4t-35.5 4
q-17 0 -17 -14q0 -7 3.5 -9.5t10 -3.5t15 -1.5t19.5 -2.5q20 -5 24.5 -13t4.5 -34v-118z" />
    <glyph glyph-name="H" unicode="H" horiz-adv-x="615" 
d="M181 552q0 24 3.5 33.5t22.5 13.5q9 2 17 2.5t14 1.5t9 3.5t3 9.5q0 14 -15 14q-8 0 -32 -4t-67 -4t-67 4t-32 4q-15 0 -15 -14q0 -8 3.5 -10.5t10 -3.5t14.5 -1q9 0 19 -3q15 -5 18.5 -13.5t3.5 -32.5v-458q0 -16 -0.5 -26.5t-3.5 -17t-9.5 -10.5t-18.5 -7q-7 -2 -14 -2
t-12.5 -1t-9 -4t-3.5 -10q0 -16 21 -16q9 0 32.5 3t62.5 3t62.5 -3t32.5 -3q21 0 21 14q0 8 -3.5 11.5t-9.5 4.5t-14 1t-17 3q-10 3 -15.5 7t-8 10.5t-3 16.5t-0.5 26v214q0 14 13 14h227q12 0 12 -14v-214q0 -16 -0.5 -26.5t-3.5 -17t-9.5 -10.5t-18.5 -7q-7 -2 -14 -2
t-12.5 -1t-9 -4t-3.5 -10q0 -16 22 -16q9 0 32.5 3t62.5 3t62 -3t32 -3q22 0 22 14q0 8 -4 11.5t-10 4.5t-14 1t-17 3q-10 3 -15 7t-7.5 10.5t-3 16.5t-0.5 26v458q0 24 3.5 33.5t22.5 13.5q9 2 17 2.5t14 1.5t9 3.5t3 9.5q0 14 -15 14q-8 0 -32 -4t-67 -4t-67 4t-32 4
q-15 0 -15 -14q0 -8 3.5 -10.5t10 -3.5t14.5 -1q9 0 19 -3q15 -5 18 -13.5t3 -32.5v-181q0 -14 -12 -14h-227q-13 0 -13 13v182z" />
    <glyph glyph-name="I" unicode="I" horiz-adv-x="272" 
d="M181 552q0 24 3.5 33.5t22.5 13.5q9 2 17 2.5t14 1.5t9 3.5t3 9.5q0 14 -15 14q-8 0 -32 -4t-67 -4t-67 4t-32 4q-15 0 -15 -14q0 -8 3.5 -10.5t10 -3.5t14.5 -1q9 0 19 -3q15 -5 18.5 -13.5t3.5 -32.5v-458q0 -16 -0.5 -26.5t-3.5 -17t-9.5 -10.5t-18.5 -7q-7 -2 -14 -2
t-12.5 -1t-9 -4t-3.5 -10q0 -16 21 -16q9 0 32.5 3t62.5 3t62.5 -3t32.5 -3q21 0 21 14q0 8 -3.5 11.5t-9.5 4.5t-14 1t-17 3q-10 3 -15.5 7t-8 10.5t-3 16.5t-0.5 26v458z" />
    <glyph glyph-name="J" unicode="J" horiz-adv-x="277" 
d="M188 552q0 25 3.5 33.5t22.5 13.5q18 4 30.5 3.5t12.5 13.5t-15 14q-8 0 -32 -4t-67 -4q-44 0 -67.5 4t-31.5 4q-15 0 -15 -14q0 -8 4 -10.5t10.5 -3t15 -1t17.5 -3.5q15 -5 18 -14t3 -32v-498q0 -93 -15 -139t-37 -46q-12 0 -19.5 9.5t-14.5 21.5t-15.5 21.5t-23.5 9.5
q-17 0 -30.5 -15.5t-13.5 -38.5q0 -30 16 -47.5t42 -17.5q64 0 136 101q35 48 50.5 100.5t15.5 115.5v423z" />
    <glyph glyph-name="K" unicode="K" horiz-adv-x="506" 
d="M181 552q0 24 3.5 33.5t22.5 13.5q9 2 17 2.5t14 1.5t9 3.5t3 9.5q0 14 -15 14q-8 0 -32 -4t-67 -4t-67 4t-32 4q-15 0 -15 -14q0 -8 3.5 -10.5t10 -3.5t14.5 -1q9 0 19 -3q15 -5 18.5 -13.5t3.5 -32.5v-458q0 -16 -0.5 -26.5t-3.5 -17t-9.5 -10.5t-18.5 -7q-7 -2 -14 -2
t-12.5 -1t-9 -4t-3.5 -10q0 -16 21 -16q9 0 32.5 3t62.5 3t62.5 -3t32.5 -3q21 0 21 14q0 8 -3.5 11.5t-9.5 4.5t-14 1t-17 3q-10 3 -15.5 7t-8 10.5t-3 16.5t-0.5 26v200q0 14 10 14q5 0 9 -6l142 -233q5 -7 6.5 -14t1.5 -13q0 -9 -8 -11.5t-18 -3.5t-18 -3.5t-8 -9.5
q0 -14 24 -14q6 0 28 3t64 3q40 0 63.5 -3t34.5 -3q24 0 24 14q0 7 -3 9.5t-8 3t-11.5 1.5t-13.5 4q-17 8 -28 22.5t-25 35.5l-177 272q-3 4 -3 10q0 5 8 15l99 119q31 38 55.5 60t39.5 29q9 4 18 5.5t15.5 3t10.5 4t4 8.5q0 14 -13 14q-8 0 -29.5 -4t-60.5 -4
q-38 0 -59.5 4t-29.5 4q-13 0 -13 -14q0 -10 8 -12.5t18 -3.5t18 -4.5t8 -16.5q0 -10 -13 -28l-154 -192q-7 -7 -10 -7q-6 0 -6 14v186z" />
    <glyph glyph-name="L" unicode="L" horiz-adv-x="412" 
d="M181 552q0 24 3.5 33.5t22.5 13.5q9 2 17 2.5t14 1.5t9 3.5t3 9.5q0 14 -15 14q-8 0 -32.5 -4t-69.5 -4q-41 0 -62.5 4t-29.5 4q-13 0 -13 -14q0 -8 3.5 -10.5t9 -3t13.5 -1t17 -3.5q14 -5 17 -14t3 -32v-458q0 -16 -0.5 -26.5t-3.5 -17t-9.5 -10.5t-18.5 -7
q-7 -2 -14 -2t-12.5 -1t-9 -4t-3.5 -10q0 -16 21 -16q9 0 32.5 3t62.5 3q89 0 149 -4.5t92 -4.5q20 0 20 17q0 2 0.5 6t1.5 11l10 94q1 8 1 12v6q0 2 -3 5t-6 3q-8 0 -18.5 -18.5t-33.5 -48.5q-21 -28 -46 -41.5t-57 -13.5q-65 0 -65 65v458z" />
    <glyph glyph-name="M" unicode="M" horiz-adv-x="667" 
d="M50 628q-14 0 -14 -13q0 -8 3.5 -10.5t9.5 -3t14 -1t17 -3.5q14 -5 18 -14t4 -32q0 -8 -0.5 -13t-0.5 -7l-17 -342q-2 -45 -4 -75.5t-6 -49.5t-12 -27.5t-21 -8.5q-3 0 -7.5 0.5t-10.5 0.5q-14 0 -14 -15q0 -16 24 -16q11 0 26.5 2t35.5 2q23 0 40.5 -2t28.5 -2
q25 0 25 16q0 15 -19 15q-4 0 -7 -0.5t-6 -0.5q-29 0 -37 21.5t-8 68.5q0 11 0.5 25t1.5 31l17 306q1 19 6 19q2 0 7 -13l149 -455q3 -12 16 -12q11 0 16 15l147 453q3 10 6 10q5 0 5 -11l7 -370v-23q0 -18 -1 -30t-6.5 -19.5t-16 -10.5t-29.5 -3q-15 0 -15 -15
q0 -16 20 -16q14 0 38.5 3.5t57.5 3.5q30 0 52.5 -3.5t38.5 -3.5q10 0 15.5 4.5t5.5 10.5q0 9 -4 12t-10.5 3.5t-15.5 1t-18 4.5q-16 7 -18.5 19t-3.5 39l-11 438v24q0 20 2.5 27.5t13.5 12.5q9 4 17.5 4.5t15.5 1.5t11.5 3.5t4.5 10.5q0 13 -14 13h-129q-8 0 -11.5 -4.5
t-5.5 -12.5l-131 -397q-4 -11 -8 -11q-3 0 -7 12l-133 404q-2 6 -5.5 7.5t-8.5 1.5h-131z" />
    <glyph glyph-name="N" unicode="N" horiz-adv-x="580" 
d="M37 630q-14 0 -14 -14t14 -13.5t32 -4.5q14 -5 17 -14t3 -32v-416q0 -29 -1 -49.5t-5.5 -33t-13.5 -18t-24 -5.5h-9q-19 0 -19 -16q0 -15 24 -15q14 0 29.5 2t34.5 2q21 0 38 -2t31 -2q26 0 26 15q0 16 -14 16q-5 0 -9 -0.5t-9 -0.5q-15 0 -24 4.5t-13.5 16t-5.5 30
t-1 46.5v389q0 11 4 11q1 0 2 -1l329 -536q10 -16 19 -16q6 0 10.5 7.5t4.5 17.5v499q0 55 6 80t32 25h10q10 0 13.5 2.5t3.5 10.5q0 15 -22 15q-11 0 -26 -1.5t-36 -1.5q-22 0 -38.5 1.5t-30.5 1.5q-26 0 -26 -15q0 -6 5 -10t13 -4q21 0 32.5 -2.5t17 -11t7 -24.5t1.5 -43
q0 -5 0.5 -17.5t0.5 -33.5v-274q0 -11 -4 -11q-1 0 -2 1l-268 435q-5 7 -7.5 8.5t-9.5 1.5h-128z" />
    <glyph glyph-name="O" unicode="O" horiz-adv-x="622" 
d="M312 648q-58 0 -109.5 -25.5t-89.5 -70t-60.5 -105.5t-22.5 -132t22.5 -132t60.5 -106t89 -70.5t108 -25.5q58 0 109.5 25.5t90 70.5t60.5 106t22 132t-22.5 132t-60.5 105.5t-89 70t-108 25.5zM306 620q38 0 71.5 -21.5t58.5 -62.5t39.5 -100t14.5 -134
q0 -70 -13.5 -124t-37.5 -91.5t-56 -57t-68 -19.5q-38 0 -71.5 21.5t-58.5 62.5t-39 100.5t-14 134.5q0 70 13.5 124t37 91t55.5 56.5t68 19.5z" />
    <glyph glyph-name="P" unicode="P" horiz-adv-x="431" 
d="M181 358v194q0 26 8 37.5t39 11.5q18 0 34.5 -11t29 -30.5t20 -47t7.5 -61.5q0 -63 -26 -99.5t-60 -36.5q-19 0 -35.5 10.5t-16.5 32.5zM214 288q18 -8 33 -13t29 -5q28 0 52.5 13.5t43.5 37t30 55.5t11 70q0 183 -174 183q-33 0 -58 -1t-42 -1h-16q-36 0 -55.5 1.5
t-23.5 1.5q-19 0 -19 -14q0 -8 3.5 -10.5t9.5 -3.5t14.5 -1.5t17.5 -3.5q14 -5 17.5 -14t3.5 -31v-451q0 -34 -4 -48.5t-26 -20.5q-7 -2 -14 -2t-12 -1t-8.5 -4t-3.5 -10q0 -16 20 -16q11 0 33.5 3.5t57.5 3.5q38 0 61.5 -3.5t33.5 -3.5t15.5 4.5t5.5 10.5q0 9 -4 12
t-10.5 4t-15.5 1.5t-18 4.5q-14 7 -17 18t-3 37v187q0 10 1.5 14.5t7.5 4.5q1 0 7 -2z" />
    <glyph glyph-name="Q" unicode="Q" horiz-adv-x="622" 
d="M307 620q38 0 71.5 -21.5t58.5 -62.5t39.5 -100t14.5 -134q0 -70 -13.5 -124t-37.5 -91.5t-56 -57t-68 -19.5q-38 0 -71.5 21.5t-58.5 62.5t-39 100.5t-14 134.5q0 70 13.5 124t37 91t55.5 56.5t68 19.5zM406 -1q40 13 74 42t59 70t39.5 92.5t14.5 109.5q0 71 -22.5 132
t-61 105.5t-89 70t-107.5 25.5q-58 0 -109.5 -25.5t-89.5 -70t-60.5 -105.5t-22.5 -132q0 -59 15 -111t42.5 -95t67.5 -73.5t91 -45.5l16 -4q7 -2 8.5 -5t2.5 -10l4 -24q5 -32 24 -59t48.5 -46.5t67.5 -31t81 -11.5q50 0 78.5 12.5t28.5 25.5q0 10 -8 10q-3 0 -13.5 -4.5
t-30.5 -4.5q-22 0 -45.5 9.5t-46 26t-41.5 38.5t-32 47l-10 19l-2 4t-1 4q0 5 9 8z" />
    <glyph glyph-name="R" unicode="R" horiz-adv-x="477" 
d="M181 359v190q0 12 1.5 21.5t6.5 16t15 9.5t27 3q49 0 74.5 -36.5t25.5 -99.5q0 -127 -104 -127q-26 0 -36 3.5t-10 19.5zM315 323q50 11 78.5 52.5t28.5 101.5q0 70 -41.5 112.5t-122.5 42.5q-34 0 -69.5 -3t-73.5 -3q-26 0 -43 2t-23 2q-14 0 -20.5 -2t-6.5 -12
q0 -8 3.5 -10.5t10 -3.5t14.5 -1q9 0 19 -3q15 -5 18.5 -13.5t3.5 -32.5v-458q0 -16 -0.5 -26.5t-3.5 -17t-9.5 -10.5t-18.5 -7q-7 -2 -14 -2t-12.5 -1t-9 -4t-3.5 -10q0 -16 21 -16q9 0 32.5 3t62.5 3t61 -3t30 -3q20 0 20 14q0 17 -22 17q-16 0 -25 4.5t-13 12.5t-5 19.5
t-1 26.5v197q0 14 13 14h10q23 0 34 -9.5t22 -35.5l90 -227q7 -17 11.5 -25t19.5 -8q11 0 22 1.5t22 1.5q17 0 32.5 -1.5t28.5 -1.5q9 0 13 1.5t4 8.5q0 11 -12.5 13.5t-29.5 9.5q-10 4 -20 26t-27 63l-58 138q-8 20 -16.5 36t-24.5 27z" />
    <glyph glyph-name="S" unicode="S" horiz-adv-x="418" 
d="M48 474q0 -44 11.5 -73t31 -50t46 -37t56.5 -33q57 -32 85.5 -68.5t28.5 -82.5q0 -26 -8.5 -48t-23 -38t-34.5 -25t-42 -9q-38 0 -71.5 28t-48.5 79q-4 14 -6 27t-3.5 22.5t-4.5 15t-10 5.5q-15 0 -15 -31q0 -2 0.5 -8.5t0.5 -17.5q0 -14 -1 -30t-1 -33q0 -43 41 -64.5
t107 -21.5q42 0 77.5 15.5t61 42.5t40 64t14.5 81q0 42 -11 74t-32.5 57.5t-52.5 46.5t-71 42q-48 25 -70.5 50t-22.5 65q0 48 25.5 75.5t70.5 27.5q35 0 54 -21t35 -61q11 -26 14.5 -39.5t14.5 -13.5q13 0 13 21q0 99 -8 109q-7 9 -39.5 20t-74.5 11q-41 0 -73.5 -12.5
t-55.5 -35.5t-35.5 -55t-12.5 -71z" />
    <glyph glyph-name="T" unicode="T" horiz-adv-x="481" 
d="M475 644v11q0 5 -2.5 11.5t-8.5 6.5q-4 0 -7 -4.5t-6 -11t-7.5 -13.5t-11.5 -11q-8 -5 -32 -5q-14 0 -33.5 1t-44.5 1h-123q-22 0 -40 -0.5t-32 -0.5q-38 0 -47 9q-5 0 -7 5.5t-4.5 12t-5 11.5t-6.5 5q-10 0 -12.5 -14t-7.5 -37l-25 -102q-2 -6 -3 -11t-1 -6
q0 -10 2.5 -12t6.5 -2h2q12 0 21.5 17t27.5 47q19 24 39 36t51 12h28q6 0 9.5 -6.5t3.5 -12.5v-487q0 -32 -4 -43t-23 -17q-8 -3 -16 -3t-14 -1t-10 -4t-4 -10q0 -16 21 -16q16 0 40 3.5t55 3.5q32 0 55.5 -3.5t39.5 -3.5q21 0 21 14q0 8 -3.5 11t-9.5 4t-14 1.5t-17 3.5
q-10 3 -15.5 7t-8 10.5t-3 16.5t-0.5 26v490q0 5 3.5 10.5t9.5 5.5h16q46 0 70 -8.5t38 -40.5q4 -15 7 -27t5.5 -21t6 -14t10.5 -5q8 0 10.5 5.5t3.5 22.5z" />
    <glyph glyph-name="U" unicode="U" horiz-adv-x="562" 
d="M178 552q0 24 3.5 32.5t18.5 13.5q9 3 17 3q9 0 15.5 0.5t10.5 3.5t4 11q0 14 -15 14q-8 0 -32 -4t-67 -4t-67 4t-32 4q-15 0 -15 -14q0 -8 3.5 -10.5t9.5 -3t14.5 -1t18.5 -3.5q16 -5 19 -13t3 -33v-351q0 -46 4.5 -82.5t24.5 -65.5q26 -38 69 -55t107 -17q58 0 99 19.5
t62 55.5q20 34 23.5 74t3.5 92v246q0 37 1 63t5.5 41.5t13 22.5t24.5 7q15 0 22 2.5t7 11.5q0 14 -21 14q-8 0 -25 -1.5t-44 -1.5q-26 0 -42.5 1.5t-25.5 1.5q-17 0 -17 -14q0 -8 6 -10.5t14.5 -3.5t17.5 -2t16 -6q13 -11 15.5 -41.5t2.5 -87.5v-242q0 -52 -3.5 -89
t-21.5 -64q-37 -53 -117 -53q-40 0 -65 12t-39.5 35.5t-20 58t-5.5 80.5v349z" />
    <glyph glyph-name="V" unicode="V" horiz-adv-x="469" 
d="M429 545q7 20 14 33.5t19 19.5q6 3 13 3.5t13 1t10 3t4 10.5q0 13 -19 13q-4 0 -21 -2t-48 -2q-28 0 -45 3t-25 3q-19 0 -19 -14q0 -11 9 -13t20.5 -4t20.5 -8.5t9 -25.5q0 -20 -13 -65l-86 -292q-6 -22 -12 -22q-5 0 -12 22l-111 321q-9 27 -9 42t8 19.5t17.5 6.5
t17.5 4t8 13q0 12 -14 12q-8 0 -25 -2.5t-40 -2.5q-60 0 -90 3t-35 3q-16 0 -16 -15q0 -6 4.5 -8t10.5 -3t13 -1.5t12 -3.5q15 -8 24 -30.5t22 -60.5l161 -468q7 -19 11 -32.5t11 -13.5t13 18z" />
    <glyph glyph-name="W" unicode="W" horiz-adv-x="700" 
d="M642 492q13 38 24.5 62t19.5 32q9 10 18.5 12.5t17.5 3.5t13 3t5 11q0 12 -16 12q-6 0 -22 -2t-43 -2q-28 0 -43.5 3t-20.5 3q-9 0 -9 -13q0 -9 6 -11.5t13.5 -4.5t13.5 -7t6 -20q0 -8 -3 -26t-9 -38l-113 -354q-3 -10 -8 -10q-4 0 -7 9l-68 210q-2 6 -2 10q0 5 2 9.5
t4 9.5l62 152q8 20 15.5 33.5t18.5 18.5q6 3 13 3.5t13 1t10 3t4 10.5q0 12 -16 12q-7 0 -22 -2t-39 -2q-22 0 -35.5 2.5t-19.5 2.5q-11 0 -11 -13q0 -8 5.5 -10.5t12.5 -5t12.5 -6.5t5.5 -13q0 -8 -1 -16t-3 -13l-39 -101q-6 -14 -9 -14q-4 0 -8 13l-27 80q-5 14 -7.5 25.5
t-2.5 19.5q0 12 6 16.5t12.5 6.5t12.5 4.5t6 12.5q0 12 -9 12q-4 0 -16 -2.5t-35 -2.5q-40 0 -67 3t-44 3q-19 0 -19 -13q0 -11 9 -11.5t20 -3.5q19 -6 33 -48l78 -227q3 -8 3 -20q0 -7 -4 -18l-48 -131q-3 -10 -7 -10q-3 0 -6 9l-131 376q-6 17 -8 29t-2 14q0 12 6.5 16.5
t14 7t14 5t6.5 11.5q0 13 -12 13q-3 0 -20 -2.5t-49 -2.5q-45 0 -69 3.5t-31 3.5q-21 0 -21 -14q0 -6 4 -9t9.5 -4t12 -1.5t11.5 -3.5q14 -8 23 -30t22 -58l163 -468q19 -54 29 -54q6 0 8 4.5t6 14.5l93 229q5 10 7 10q5 0 8 -10l69 -201q8 -21 11 -34t11 -13q11 0 17 19z
" />
    <glyph glyph-name="X" unicode="X" horiz-adv-x="512" 
d="M193 531q-17 30 -17 44q0 13 9.5 17t21.5 5.5t21.5 4t9.5 13.5q0 13 -17 13q-8 0 -34 -3t-71 -3q-39 0 -66.5 4t-45.5 4q-21 0 -21 -16q0 -5 3.5 -7t9 -2.5t12 -1t12.5 -2.5q21 -7 46 -47l143 -241q4 -7 4 -15t-5 -16l-104 -167q-24 -39 -46 -56.5t-38.5 -24t-26.5 -9
t-10 -12.5q0 -12 15 -12q11 0 32.5 2.5t51.5 2.5q27 0 48.5 -3.5t37.5 -3.5q24 0 24 15q0 9 -10.5 12t-22.5 6t-22.5 7.5t-10.5 16.5q0 5 5 20.5t17 35.5l82 135q6 9 8 9q4 0 9 -9l83 -148q17 -32 17 -44q0 -26 -46 -26q-16 0 -16 -14q0 -13 15 -13q5 0 28 2.5t65 2.5
q45 0 72.5 -3.5t40.5 -3.5q23 0 23 14q0 6 -4 8.5t-10.5 3.5t-14 2.5t-14.5 6.5q-12 8 -25.5 28t-30.5 51l-126 223q-5 10 -5 16q0 5 5 13l110 175q16 25 37 40.5t40 17.5q14 2 28 3t14 15q0 12 -18 12q-11 0 -31.5 -2.5t-49.5 -2.5q-50 0 -74 3t-28 3q-17 0 -17 -13
q0 -9 9 -11.5t20 -5t20 -8t9 -20.5q0 -7 -7.5 -27.5t-24.5 -49.5l-54 -92q-6 -10 -10 -10t-10 10z" />
    <glyph glyph-name="Y" unicode="Y" horiz-adv-x="460" 
d="M155 553q-7 13 -7 24t7.5 14.5t17 5.5t17 5t7.5 13q0 13 -12 13q-4 0 -23 -2t-55 -2q-49 0 -79.5 3t-42.5 3q-9 0 -14.5 -5t-5.5 -10q0 -7 4.5 -9t11 -2.5t14 -1.5t14.5 -6q18 -14 54 -79l127 -232q3 -5 5 -12.5t2 -11.5v-167q0 -29 -4 -41.5t-23 -18.5q-8 -3 -16 -3
t-14 -1t-10 -4t-4 -10q0 -16 21 -16q9 0 32.5 3t62.5 3t62.5 -3t32.5 -3q21 0 21 14q0 8 -3 11t-8.5 4.5t-12.5 1.5t-15 2q-22 5 -27 16.5t-5 39.5v190q0 5 2 12t4 12l119 223q15 29 27 46.5t29 23.5q7 3 14 3.5t12 1.5t8.5 4t3.5 11q0 12 -15 12q-3 0 -19 -2t-49 -2
q-26 0 -44.5 3t-28.5 3q-16 0 -16 -12q0 -11 8.5 -13.5t19 -4t19.5 -5.5t9 -17q0 -4 -3 -14t-11 -25l-95 -191q-5 -9 -6 -9q-6 0 -9 7z" />
    <glyph glyph-name="Z" unicode="Z" horiz-adv-x="476" 
d="M140 627q-22 0 -31 3.5t-13 16.5q-4 12 -3.5 19.5t-10.5 7.5q-7 0 -8 -5.5t-3 -13.5l-27 -133q-5 -28 -5 -36q0 -6 9 -6q5 0 10.5 8t12.5 20t16.5 26.5t23.5 27.5q21 21 53.5 28t82.5 7h63q13 0 13 -13q0 -6 -2 -9l-308 -549q-4 -8 -4 -15q0 -13 20 -13q8 0 78.5 3
t213.5 3q51 0 78 -3t32 -3q13 0 16 4t3 12v144q0 21 -11 21q-9 0 -11.5 -10t-5 -25t-6.5 -33t-16 -34q-25 -33 -68 -39t-103 -6h-77q-17 0 -17 10q0 2 1 6t4 9l294 530q7 14 7 23q0 20 -29 20q-5 0 -30 -1.5t-72 -1.5h-170z" />
    <glyph glyph-name="bracketleft" unicode="[" horiz-adv-x="311" 
d="M129 648q-25 0 -30 -9.5t-5 -36.5v-785q0 -27 5 -36.5t30 -9.5h107q15 0 15 16q0 15 -15 15h-51q-14 0 -17.5 7t-3.5 21v760q0 14 3.5 21t17.5 7h51q15 0 15 15q0 9 -3.5 12t-11.5 3h-107z" />
    <glyph glyph-name="backslash" unicode="\" horiz-adv-x="222" 
d="M-16 648l248 -741h31l-247 741h-32z" />
    <glyph glyph-name="bracketright" unicode="]" horiz-adv-x="311" 
d="M75 648q-9 0 -12 -3t-3 -12q0 -15 15 -15h51q14 0 17.5 -7t3.5 -21v-760q0 -14 -3.5 -21t-17.5 -7h-51q-15 0 -15 -15q0 -9 3 -12.5t12 -3.5h107q25 0 30 9.5t5 36.5v785q0 27 -5 36.5t-30 9.5h-107z" />
    <glyph glyph-name="asciicircum" unicode="^" horiz-adv-x="1000" 
d="M456 714l-255 -276h44l254 213l253 -213h45l-254 276h-87z" />
    <glyph glyph-name="underscore" unicode="_" 
d="M0 -178v-58h500v58h-500z" />
    <glyph glyph-name="grave" unicode="`" 
d="M206 659q-11 14 -19 21.5t-19 7.5t-19.5 -10t-8.5 -28q0 -19 24 -37l129 -101h26z" />
    <glyph glyph-name="a" unicode="a" horiz-adv-x="381" 
d="M308 344q0 28 -3 49.5t-13 36t-29.5 22t-51.5 7.5q-39 0 -72.5 -13.5t-58 -34t-38 -45.5t-13.5 -47q0 -8 5.5 -13t13.5 -5q30 0 43.5 17.5t24.5 42.5q14 32 29 49.5t41 17.5t32.5 -19t6.5 -61v-71q0 -11 -1.5 -15.5t-9.5 -8.5l-25 -13q-36 -18 -65.5 -36t-50.5 -38.5
t-32 -45.5t-11 -58q0 -38 19.5 -59.5t51.5 -21.5q28 0 51 15.5t49 37.5l21 18h6q11 -34 28 -51t43 -17q12 0 26.5 8t27 19t21.5 22.5t9 19.5q0 15 -12 15q-9 0 -18 -10t-20 -10q-17 0 -21 16t-4 48v232zM226 213v-79q0 -20 -6.5 -36t-16.5 -27.5t-22 -18t-24 -6.5
q-17 0 -27.5 15t-10.5 44q0 70 59 100l33 16q7 4 10 4q5 0 5 -12z" />
    <glyph glyph-name="b" unicode="b" horiz-adv-x="452" 
d="M133 607q0 20 1 36.5t1 31.5q0 9 -2 14t-10 5q-5 0 -21.5 -11.5t-51.5 -24.5q-19 -7 -32.5 -10.5t-13.5 -14.5q0 -6 7 -9t15.5 -6.5t15.5 -9.5t7 -19v-476q0 -41 -4 -74.5t-4 -57.5q0 -19 11 -19q6 0 11.5 8t10.5 18t10.5 18t13.5 8q7 0 17.5 -5t25.5 -11.5t35 -11.5
t47 -5q45 0 82.5 18.5t65 51.5t42.5 79t15 102q0 51 -13 93t-35 71.5t-52 45.5t-63 16t-57.5 -13.5t-52.5 -42.5l-12 -12q-5 -5 -8 -5q-2 0 -2 6v216zM133 105v147q0 31 1.5 56.5t9.5 43.5t24 28t45 10q57 0 94.5 -48.5t37.5 -138.5q0 -42 -9.5 -77.5t-27 -61t-41.5 -39.5
t-53 -14q-38 0 -59.5 23t-21.5 71z" />
    <glyph glyph-name="c" unicode="c" horiz-adv-x="368" 
d="M227 458q-44 0 -81 -17t-64 -48.5t-42.5 -76t-15.5 -100.5q0 -54 14 -97.5t39 -74t59 -47t74 -16.5q30 0 56 10t44.5 23.5t29 28t10.5 23.5q0 13 -13 13q-3 0 -9.5 -6.5t-17 -14.5t-26 -14.5t-34.5 -6.5q-30 0 -55 13.5t-43.5 39t-29 62.5t-10.5 84q0 46 9.5 82
t24.5 61.5t34 39t37 13.5q14 0 23.5 -6.5t17.5 -17.5t15 -27.5t16 -35.5q13 -29 27 -29q12 0 19.5 21.5t7.5 59.5q0 13 -9.5 24t-25 19t-36.5 13t-45 5z" />
    <glyph glyph-name="d" unicode="d" horiz-adv-x="469" 
d="M400 607q0 20 1.5 37t1.5 31q0 9 -2 14t-10 5q-5 0 -21.5 -11.5t-51.5 -24.5q-19 -7 -32.5 -10.5t-13.5 -14.5q0 -6 7 -9t15 -6.5t15 -9.5t7 -19v-132q0 -15 -6 -15h-2l-13 5q-11 4 -29 7.5t-38 3.5q-42 0 -79 -18t-64.5 -50.5t-44 -78t-16.5 -99.5q0 -53 14.5 -95.5
t40 -72.5t58.5 -46.5t71 -16.5q25 0 44 7t32.5 15.5t21.5 15.5t10 7q3 0 5 -6.5t4 -15t5.5 -15t8.5 -6.5q8 0 29.5 13t58.5 26q11 4 18 8.5t7 21.5q0 8 -3 12.5t-5 4.5q-5 0 -12.5 -9.5t-17.5 -9.5q-14 0 -14 40v517zM316 279v-169q0 -20 -1 -35t-7 -26t-18 -16.5t-33 -5.5
q-66 0 -104 49.5t-38 138.5q0 49 10 89t27.5 67.5t40 42.5t48.5 15q27 0 42 -10.5t22.5 -30t9 -47t1.5 -62.5z" />
    <glyph glyph-name="e" unicode="e" horiz-adv-x="407" 
d="M197 313h-65q-12 0 -12 9v2l3 16q8 41 34 68t61 27q32 0 52.5 -21t20.5 -46q0 -33 -22.5 -44t-71.5 -11zM345 282q18 0 26 4t8 17q0 32 -11.5 60t-32.5 49t-51 33.5t-66 12.5q-42 0 -77.5 -17t-61.5 -48t-40.5 -75.5t-14.5 -99.5t13 -99t37 -75t57.5 -47.5t74.5 -16.5
q39 0 70 13t53.5 30.5t34.5 35.5t12 29t-8 11q-3 0 -10.5 -9t-21 -20t-34 -20t-48.5 -9q-63 0 -102.5 54t-39.5 147v24q0 10 2 13t10 3h221z" />
    <glyph glyph-name="f" unicode="f" horiz-adv-x="237" 
d="M156 504q0 79 13.5 118t33.5 39q10 0 18 -11t16.5 -24t16.5 -24t18 -11q6 0 12.5 7.5t12 17.5t9 20.5t3.5 17.5q0 14 -21.5 27t-50.5 13q-30 0 -57.5 -12.5t-49.5 -36t-36 -58t-17 -77.5l-4 -51q-2 -12 -11 -17l-18 -9q-19 -10 -19 -19q0 -5 4.5 -9.5t10.5 -4.5h18
q13 0 13 -13v-311q0 -17 -4 -26t-18 -16q-18 -8 -29 -7.5t-11 -13.5q0 -16 19 -16q17 0 38 3t46 3t48 -3t43 -3q22 0 22 14q0 8 -3.5 11t-10.5 4.5t-16.5 3t-21.5 7.5q-11 5 -14.5 13.5t-3.5 25.5v311q0 13 12 13h75q10 0 11.5 4.5t1.5 14.5v5q0 8 -2 12t-11 4h-74
q-12 0 -12 13v51z" />
    <glyph glyph-name="g" unicode="g" horiz-adv-x="413" 
d="M199 431q32 0 52.5 -34.5t20.5 -94.5t-20.5 -94.5t-52.5 -34.5t-53 34.5t-21 94.5q0 61 21 95t53 34zM343 421h-9q-14 0 -19.5 3t-13.5 7q-23 13 -46.5 20t-59.5 7q-35 0 -64.5 -12.5t-51 -34t-33.5 -51t-12 -62.5q0 -38 16 -70.5t45 -52.5l15 -11q11 -8 11 -9
q0 -3 -12 -9l-38 -18q-14 -7 -22.5 -13.5t-8.5 -18.5t10.5 -29t29.5 -41l13 -16q7 -8 7 -11q0 -6 -11 -14l-33 -24q-45 -33 -45 -72q0 -49 43.5 -79t125.5 -30q49 0 91 15.5t73 42t48.5 60.5t17.5 72q0 33 -11.5 54t-34.5 32.5t-57 16t-78 4.5h-23q-32 0 -54 4.5t-22 26.5
q0 18 19 27t54 11q80 6 120.5 46t40.5 107q0 37 -15 76q10 1 16.5 1.5t10.5 0.5q16 0 24.5 1t8.5 6q0 25 -5 32.5t-18 7.5q-6 0 -9.5 -0.5t-5.5 -0.5zM133 -9q52 -1 90 -2.5t63 -8.5t37 -22.5t12 -45.5q0 -43 -37 -71t-95 -28q-50 0 -79.5 28t-29.5 70q0 48 39 80z" />
    <glyph glyph-name="h" unicode="h" horiz-adv-x="466" 
d="M154 607q0 20 1.5 37t1.5 31q0 9 -2 14t-10 5q-5 0 -21.5 -11.5t-51.5 -24.5q-19 -7 -32.5 -10.5t-13.5 -14.5q0 -8 7 -9.5t15 -5t15 -12.5t7 -31v-499q0 -19 -2.5 -28.5t-18.5 -15.5q-8 -3 -14.5 -4t-11 -2t-7.5 -3.5t-3 -9.5q0 -16 18 -16q12 0 32 3t49 3t49 -3t30 -3
q17 0 17 14q0 9 -3.5 12t-9 4.5t-12.5 2t-14 5.5q-9 6 -12 16t-3 25v217q0 54 23.5 80t59.5 26q79 0 79 -121v-202q0 -18 -3 -27t-18 -16q-7 -3 -13.5 -4t-11.5 -2t-8 -4t-3 -10q0 -16 18 -16q14 0 34.5 3t46.5 3q25 0 43.5 -3t29.5 -3q15 0 15 14q0 8 -2.5 11t-7 4.5
t-10.5 3t-14 7.5q-8 5 -10 14t-2 25v224q0 76 -33.5 117t-93.5 41q-28 0 -54 -14.5t-45 -39.5l-10 -13q-5 -6 -8 -6q-2 0 -2 13v209z" />
    <glyph glyph-name="i" unicode="i" horiz-adv-x="221" 
d="M116 632q-18 0 -31 -17t-13 -38t13 -38t31 -17t31 17t13 38t-13 38t-31 17zM154 440q0 21 -10 21q-4 0 -8.5 -4.5l-11.5 -11.5t-17.5 -16t-25.5 -18q-25 -14 -38.5 -21t-13.5 -18q0 -10 6.5 -10.5t14 -3t14 -11.5t6.5 -36v-236q0 -20 -2.5 -28.5t-13.5 -14.5
q-6 -3 -11 -3.5t-9.5 -1.5t-7 -4t-2.5 -10q0 -17 15 -17q11 0 29 3.5t44 3.5q24 0 45 -3.5t36 -3.5q18 0 18 16q0 7 -3.5 10t-9 4.5t-13 2.5t-15.5 5q-9 5 -12.5 14t-3.5 27v365z" />
    <glyph glyph-name="j" unicode="j" horiz-adv-x="217" 
d="M116 632q-18 0 -31 -17t-13 -38t13 -38t31 -17t31 17t13 38t-13 38t-31 17zM154 440q0 21 -10 21q-4 0 -8.5 -4.5l-11.5 -11.5t-17.5 -16t-25.5 -18q-25 -14 -38.5 -21t-13.5 -18q0 -10 6.5 -10.5t14 -3t14 -11.5t6.5 -36v-278q0 -64 -4 -110.5t-23 -78.5q-7 -11 -15 -19
t-15.5 -14t-12.5 -11t-5 -11q0 -9 10 -9q13 0 41 17.5t56 49.5q19 22 29.5 44t15.5 45.5t6 49.5t1 57v397z" />
    <glyph glyph-name="k" unicode="k" horiz-adv-x="420" 
d="M155 607q0 18 1 35t1 33q0 9 -2 14t-10 5q-5 0 -21.5 -11.5t-51.5 -24.5q-19 -7 -32.5 -10.5t-13.5 -14.5q0 -6 7 -9t15.5 -6.5t15.5 -9.5t7 -19v-513q0 -17 -3.5 -26t-17.5 -16q-9 -4 -16 -5t-12 -2.5t-8 -4t-3 -9.5q0 -16 19 -16q13 0 34 3t50 3q23 0 40.5 -3t31.5 -3
q16 0 16 16q0 7 -2.5 9.5t-7.5 4t-12 3.5t-15 7q-7 4 -8.5 9.5t-1.5 13.5v147q0 13 7 13q9 0 20 -19l84 -140q3 -6 5.5 -10.5t2.5 -9.5q0 -8 -6 -10t-13.5 -3.5t-13.5 -4.5t-6 -11q0 -10 4 -13t12 -3q11 0 33.5 3t56.5 3q31 0 51 -3t29 -3q17 0 17 15q0 13 -10.5 14.5
t-21.5 6.5q-15 6 -26 21.5t-25 37.5l-114 177q-1 2 -2 3.5t-1 3.5q0 6 7 12l91 85q22 21 38 28.5t26 10.5t14.5 4.5t4.5 10.5t-3.5 11.5t-13.5 2.5q-8 0 -22.5 -3t-37.5 -3q-32 0 -51.5 3.5t-27.5 3.5q-9 0 -12 -3t-3 -11q0 -10 7 -13t16 -4.5t16 -4.5t7 -13q0 -11 -12 -21
l-121 -118q-2 -2 -5 -2q-1 0 -1 1v355z" />
    <glyph glyph-name="l" unicode="l" horiz-adv-x="226" 
d="M154 607q0 21 1.5 38t1.5 30q0 9 -2 14t-10 5q-5 0 -21.5 -11.5t-51.5 -24.5q-18 -7 -31.5 -10.5t-13.5 -14.5q0 -6 6.5 -9t15 -6t15 -9t6.5 -19v-520q0 -15 -3 -23.5t-17 -13.5q-16 -6 -27 -6q-10 0 -10 -14q0 -16 18 -16q14 0 34.5 3t46.5 3q25 0 47 -3t39 -3
q20 0 20 14q0 9 -4 12.5t-10.5 4.5t-14.5 1.5t-16 4.5q-19 9 -19 42v531z" />
    <glyph glyph-name="m" unicode="m" horiz-adv-x="688" 
d="M147 440q0 9 -2 15t-5 6t-8 -4.5t-12.5 -12t-19 -17.5t-28.5 -20q-20 -11 -34.5 -17t-14.5 -19q0 -9 7 -10t15 -3t15 -11.5t7 -35.5v-236q0 -19 -3 -28.5t-14 -14.5q-6 -3 -11.5 -4t-9.5 -2t-6.5 -3.5t-2.5 -9.5q0 -17 16 -17q11 0 29 3.5t44 3.5q25 0 45 -3.5t35 -3.5
q18 0 18 16q0 7 -3.5 10t-9 4.5t-13 2.5t-15.5 5q-9 5 -12 14t-3 27v218q0 54 21 80t56 26q44 0 59.5 -39.5t15.5 -117.5v-167q0 -20 -3.5 -28.5t-14.5 -14.5q-6 -3 -11 -3.5t-9.5 -1.5t-7 -4t-2.5 -10q0 -17 16 -17q11 0 29 3.5t44 3.5q24 0 44.5 -3.5t35.5 -3.5
q18 0 18 16q0 7 -3.5 10t-9 4.5t-13 2.5t-15.5 5q-9 5 -11.5 14t-2.5 27v218q0 54 21 80t55 26q45 0 59.5 -40t14.5 -117v-167q0 -19 -3 -28.5t-14 -14.5q-6 -3 -11.5 -4t-9.5 -2t-6.5 -3.5t-2.5 -9.5q0 -17 16 -17q11 0 29 3.5t44 3.5q25 0 45 -3.5t35 -3.5q18 0 18 16
q0 7 -3.5 10t-9 4.5t-13 2.5t-15.5 5q-9 5 -12 14t-3 27v236q0 67 -32 107t-83 40q-74 0 -123 -79h-5q-20 35 -46 57t-67 22q-28 0 -53.5 -14t-44.5 -40l-10 -13q-5 -6 -7 -6q-3 0 -3 13v42z" />
    <glyph glyph-name="n" unicode="n" horiz-adv-x="476" 
d="M153 439q0 11 -3 16t-6 5q-9 0 -21 -16t-41 -33q-25 -15 -38 -22.5t-13 -17.5t6.5 -10.5t14.5 -2.5t14.5 -11t6.5 -36v-236q0 -20 -3 -29t-14 -14q-6 -3 -11.5 -3.5t-9.5 -1.5t-6.5 -4t-2.5 -10q0 -17 16 -17q11 0 29 3.5t44 3.5q25 0 45 -3.5t34 -3.5q18 0 18 15
q0 9 -3 12t-8.5 4t-12.5 1.5t-16 5.5q-10 5 -12.5 14.5t-2.5 26.5v217q0 54 24 80t62 26q41 0 63 -30.5t22 -90.5v-202q0 -18 -2 -27.5t-14 -15.5q-6 -3 -11.5 -3.5t-10 -1.5t-7 -4t-2.5 -10q0 -17 16 -17q10 0 28.5 3.5t44.5 3.5t46 -3.5t34 -3.5q18 0 18 16q0 8 -3.5 11
t-9.5 4t-13.5 2t-14.5 5q-15 10 -15 41v215q0 83 -34.5 125.5t-96.5 42.5q-30 0 -57.5 -14t-48.5 -40l-11 -13q-5 -6 -8 -6t-3 13v41z" />
    <glyph glyph-name="o" unicode="o" horiz-adv-x="465" 
d="M24 220q0 -53 14.5 -97t41 -75.5t63.5 -49t82 -17.5q50 0 90 17t67.5 48t42.5 75t15 97q0 54 -14.5 98t-41 75.5t-64.5 49t-84 17.5q-48 0 -87 -17t-67 -48t-43 -75t-15 -98zM232 430q53 0 86.5 -59.5t33.5 -165.5q0 -93 -31.5 -144.5t-86.5 -51.5q-54 0 -87.5 59.5
t-33.5 165.5q0 94 31 145t88 51z" />
    <glyph glyph-name="p" unicode="p" horiz-adv-x="478" 
d="M154 440q0 21 -10 21q-8 0 -21 -15t-42 -35q-23 -16 -38.5 -21.5t-15.5 -17.5q0 -10 7 -10.5t15.5 -3t15.5 -11.5t7 -36v-452q0 -20 -4.5 -29t-17.5 -14q-15 -6 -26 -6t-11 -14q0 -16 18 -16q14 0 34 3t46 3t48.5 -3t42.5 -3q21 0 21 14q0 9 -4 12t-10.5 4t-16 2t-19.5 6
q-12 5 -15 14t-3 27l1 142l4 3q40 -23 87 -23q45 0 82 18.5t64 52t42 79.5t15 102q0 51 -13 93t-35 71t-52 45t-63 16q-32 0 -59 -13.5t-53 -43.5l-10 -12q-5 -5 -8 -5t-3 7v49zM156 105v186q0 50 18.5 74.5t60.5 24.5q57 0 94.5 -49t37.5 -138q0 -42 -9.5 -77.5t-27 -61
t-41.5 -39.5t-53 -14q-38 0 -59 23t-21 71z" />
    <glyph glyph-name="q" unicode="q" horiz-adv-x="452" 
d="M319 324v-236q0 -60 -62 -60q-66 0 -104 49t-38 138q0 49 10 89t27 67.5t40 42.5t49 15q78 0 78 -105zM403 294q0 67 4 108t4 57q0 10 -3.5 14t-8.5 4q-6 0 -11 -8t-10.5 -17.5t-11 -17.5t-13.5 -8q-7 0 -17.5 5t-25 11t-33.5 11t-44 5q-45 0 -83 -18t-66 -51t-44 -78
t-16 -99q0 -53 14.5 -96t40 -73t58.5 -46t71 -16q46 0 105 36l6 -4v-154q0 -19 -3.5 -27t-20.5 -14q-21 -8 -33 -8t-12 -14q0 -16 21 -16q17 0 40.5 4t49.5 4q27 0 47.5 -4t34.5 -4q18 0 18 16q0 7 -3.5 10t-9 4.5t-13.5 3t-17 6.5q-11 6 -13 15t-2 24v435z" />
    <glyph glyph-name="r" unicode="r" horiz-adv-x="310" 
d="M151 440q0 21 -10 21q-9 0 -22.5 -16.5t-42.5 -36.5q-21 -14 -34 -19.5t-13 -16.5q0 -9 6.5 -10.5t14 -3.5t14 -8t6.5 -24v-256q0 -14 -2.5 -21.5t-16.5 -14.5q-8 -4 -15 -5t-12 -2.5t-8 -4t-3 -9.5q0 -16 18 -16q16 0 36.5 3t44.5 3q26 0 49.5 -3.5t43.5 -3.5
q11 0 16.5 4.5t5.5 10.5q0 8 -4 11t-10.5 4.5t-16.5 3t-22 7.5q-12 5 -16 13.5t-4 25.5v217q0 94 37 94q8 0 16 -7.5t17 -16.5t20 -16.5t26 -7.5q19 0 32.5 14t13.5 36q0 30 -19 50t-46 20q-36 0 -68 -38l-20 -22q-7 -7 -9 -7q-3 0 -3 9v39z" />
    <glyph glyph-name="s" unicode="s" horiz-adv-x="328" 
d="M169 458q-60 0 -98.5 -36.5t-38.5 -98.5q0 -25 6.5 -43.5t19.5 -33t32 -27t44 -25.5q22 -12 40 -22.5t30.5 -22t19 -26t6.5 -33.5q0 -37 -20.5 -59t-52.5 -22q-52 0 -80 61q-8 17 -11.5 30.5t-6 23t-5.5 14.5t-10 5q-11 0 -13 -18.5t-2 -59.5v-25q0 -14 2 -22t11 -13
q14 -9 41 -16.5t61 -7.5t62.5 11t49.5 31.5t32.5 50.5t11.5 68q0 49 -23 81.5t-72 58.5q-23 12 -41.5 21.5t-31.5 19.5t-20 21.5t-7 28.5q0 26 17.5 42.5t46.5 16.5q41 0 66 -43q12 -21 14 -35t13 -14q10 0 13 16.5t3 51.5q0 26 -23 38t-86 12z" />
    <glyph glyph-name="t" unicode="t" horiz-adv-x="260" 
d="M147 514q0 11 -1.5 17.5t-8.5 6.5q-9 0 -20.5 -20t-35.5 -48q-14 -15 -25.5 -24t-20.5 -15t-14 -11t-5 -11q0 -13 18 -13h18q10 0 12 -8.5t2 -22.5l-4 -215v-42q0 -127 80 -127q23 0 43.5 8.5t36 20.5t24.5 24t9 19q0 14 -10 14q-5 0 -10.5 -4t-12.5 -9.5t-15.5 -9.5
t-19.5 -4q-23 0 -31.5 21.5t-8.5 68.5v253q0 13 12 13h76q9 0 11 3t2 11v20q0 6 -2 8t-11 2h-75q-13 0 -13 13v61z" />
    <glyph glyph-name="u" unicode="u" horiz-adv-x="476" 
d="M149 424q0 9 -2.5 13t-12.5 4q-5 0 -14 -1.5t-22 -1.5q-23 0 -40.5 3.5t-30.5 3.5q-18 0 -18 -16q0 -11 8.5 -13t19 -5t19.5 -12t9 -33v-232q0 -69 36 -109.5t96 -40.5q30 0 58 14t48 39l10 13q5 7 9 7q3 0 3 -14v-41q0 -21 12 -21q10 0 74 22q18 6 28 11t10 15t-7 10.5
t-15.5 2.5t-15.5 10.5t-7 34.5v337q0 9 -2.5 13t-12.5 4q-5 0 -13.5 -1t-22.5 -1q-26 0 -43.5 3.5t-27.5 3.5q-17 0 -17 -17q0 -8 3.5 -10.5t9 -4t13 -3t15.5 -6.5q9 -6 12 -14t3 -25v-217q0 -54 -24.5 -80t-63.5 -26t-61.5 30.5t-22.5 84.5v266z" />
    <glyph glyph-name="v" unicode="v" horiz-adv-x="369" 
d="M145 331q-7 23 -9.5 38.5t-2.5 22.5q0 11 7.5 15t16.5 6t16.5 4.5t7.5 11.5q0 11 -12 11q-5 0 -27 -2.5t-64 -2.5q-33 0 -52 3t-26 3q-14 0 -14 -13q0 -9 6.5 -11t16.5 -7t21.5 -18.5t21.5 -44.5l109 -336q4 -11 6 -17t11 -6q11 0 19 22l116 319q14 37 24.5 55t27.5 25
q12 5 22 5t10 14q0 8 -2.5 10t-11.5 2q-4 0 -17.5 -1.5t-39.5 -1.5q-31 0 -51 2t-28 2q-10 0 -13.5 -2t-3.5 -11q0 -10 9.5 -12t20.5 -4.5t20.5 -8t9.5 -21.5q0 -7 -2.5 -22t-9.5 -36l-62 -186q-2 -6 -5 -6q-5 0 -6 6z" />
    <glyph glyph-name="w" unicode="w" horiz-adv-x="605" 
d="M365 331q-8 22 -11.5 37.5t-3.5 23.5q0 11 9.5 15t20.5 6t20.5 5t9.5 11q0 12 -17 12q-8 0 -28.5 -3t-54.5 -3h-175q-60 0 -94 2.5t-44 2.5q-8 0 -10 -2t-2 -10t6.5 -11t15.5 -7.5t18.5 -13t16.5 -26.5l131 -359q4 -11 7 -17t11 -6t11.5 5.5t7.5 16.5l95 244l93 -243
q4 -11 6.5 -17t11.5 -6q11 0 19 22l114 319q14 37 25 56t27 24q14 5 23 5t9 14q0 8 -2 10t-10 2q-6 0 -24 -2t-48 -2q-25 0 -42.5 2t-28.5 2q-7 0 -9.5 -2.5t-2.5 -10.5q0 -9 9.5 -11t20.5 -4.5t20.5 -8t9.5 -20.5q0 -7 -2.5 -22t-10.5 -37l-60 -186q-4 -11 -8 -11
q-5 0 -8 7zM270 250l-42 -116q-3 -9 -6 -9t-6 7l-79 215q-6 16 -6 33q0 15 15.5 24t42.5 9q43 0 63 -26q6 -8 11.5 -20t10 -24.5t7.5 -23t3 -14.5q0 -14 -4.5 -27t-9.5 -28z" />
    <glyph glyph-name="x" unicode="x" horiz-adv-x="402" 
d="M164 374q-6 10 -6 15q0 9 6.5 13t15 6t15 6t6.5 13t-3 11.5t-13 2.5q-5 0 -24.5 -3t-52.5 -3q-45 0 -71.5 2.5t-32.5 2.5q-16 0 -16 -13q0 -11 5 -12.5t15 -5.5t24.5 -15t34.5 -40l88 -132q4 -6 4 -13q0 -8 -5 -15l-39 -59q-27 -42 -49 -65.5t-34 -30.5q-9 -5 -18 -6.5
t-16 -3t-11.5 -5t-4.5 -12.5q0 -13 17 -13q8 0 22.5 2t37.5 2q26 0 47 -2t38 -2q19 0 19 13q0 10 -8.5 13t-18.5 4.5t-18.5 4.5t-8.5 14q0 5 4.5 18t15.5 30l44 68q4 7 8 7t10 -9l46 -77q8 -13 12.5 -21t4.5 -13q0 -10 -8.5 -13.5t-18.5 -6t-18.5 -6t-8.5 -12.5
q0 -14 20 -14q6 0 27 2.5t59 2.5q43 0 65.5 -2t27.5 -2q15 0 15 13q0 10 -5 12t-14.5 7.5t-24.5 18.5t-35 45l-92 147q-1 2 -1 6q0 11 5 17l42 60q22 31 39 49.5t36 26.5q10 4 18.5 5t15.5 2.5t11 4.5t4 11q0 9 -4.5 12t-12.5 3q-10 0 -24 -1.5t-33 -1.5h-14q-23 0 -41 1.5
t-29 1.5q-13 0 -13 -13q0 -9 6 -12t13.5 -5t14 -5t6.5 -12q0 -14 -9 -27l-45 -69q-6 -9 -9 -9q-4 0 -9 9z" />
    <glyph glyph-name="y" unicode="y" horiz-adv-x="369" 
d="M325 360q10 28 22 38t21.5 13t16 4.5t6.5 12.5q0 8 -1 10t-9 2t-24 -1.5t-40 -1.5q-28 0 -45 1.5t-25 1.5q-7 0 -9.5 -1.5t-2.5 -9.5q0 -11 8.5 -14.5t19 -6t19.5 -7.5t9 -19q0 -4 -3 -21t-10 -37l-61 -171q-5 -12 -8 -12q-4 0 -8 12l-56 178q-8 23 -10 39t-2 22
q0 9 7.5 12t16.5 5.5t16.5 6t7.5 13.5q0 11 -12 11q-4 0 -24 -2t-58 -2t-61 2t-31 2q-9 0 -13 -2t-4 -10q0 -7 3.5 -10t9 -5t12.5 -4t14 -7q13 -9 23.5 -32t22.5 -60l82 -251q8 -26 11.5 -43t3.5 -22q0 -13 -7 -31l-21 -58q-9 -25 -18.5 -29.5t-24.5 -4.5h-4
q-28 0 -36.5 -12.5t-8.5 -42.5q0 -36 38 -36q18 0 28.5 3t17 10.5t10.5 19t9 29.5q8 24 30.5 98.5t69.5 199.5z" />
    <glyph glyph-name="z" unicode="z" horiz-adv-x="360" 
d="M152 440q-10 -1 -18.5 -1.5t-15.5 -0.5q-32 0 -40 13q-2 3 -3 8.5t-1.5 10t-3 8t-7.5 3.5q-10 0 -14.5 -14.5t-15.5 -43.5t-15 -45.5t-4 -21.5q0 -14 10 -14q6 0 10 5t8.5 12.5t10 16t13.5 14.5q18 14 45.5 17t66.5 3h52q7 0 7 -8q0 -2 -2 -6l-225 -363q-11 -19 -11 -26
q0 -9 17 -9q3 0 18.5 1t46.5 1h179q18 0 32.5 -2t26.5 -2q13 0 16 4t3 12q0 5 -0.5 10.5t-0.5 10.5q0 24 1.5 44t1.5 37t-11 17q-8 0 -12 -7.5t-7.5 -18.5t-9.5 -23.5t-16 -21.5q-33 -29 -118 -29h-44q-2 0 -3.5 3t-1.5 6q0 5 4 10l217 356q11 19 11 25q0 5 -4.5 9.5
t-11.5 4.5q-14 0 -37.5 -2.5t-55.5 -2.5h-88z" />
    <glyph glyph-name="braceleft" unicode="{" 
d="M413 740h-5q-54 0 -89.5 -8.5t-57 -28.5t-30 -52t-8.5 -80v-104q0 -38 -6 -63t-21.5 -41.5t-42 -25t-67.5 -12.5v-29q41 -3 67.5 -11.5t42 -25t21.5 -42.5t6 -63v-104q0 -48 8.5 -80t30 -52t57 -28.5t89.5 -8.5h5v25q-37 0 -60.5 7t-36.5 22t-18 39t-5 60v70
q0 48 -4.5 83t-19.5 59.5t-42.5 39.5t-73.5 24q46 9 73.5 24t42.5 39.5t19.5 59.5t4.5 83v70q0 36 5 60.5t18 39.5t36.5 22t60.5 7v25z" />
    <glyph glyph-name="bar" unicode="|" 
d="M219 764v-1000h62v1000h-62z" />
    <glyph glyph-name="braceright" unicode="}" 
d="M87 740v-25q37 0 60.5 -7t36.5 -22t18 -39.5t5 -60.5v-70q0 -48 4.5 -83t19.5 -59.5t42.5 -39.5t73.5 -24q-46 -9 -73.5 -24t-42.5 -39.5t-19.5 -59.5t-4.5 -83v-70q0 -36 -5 -60t-18 -39t-36.5 -22t-60.5 -7v-25h5q54 0 89.5 8.5t56.5 28.5t30 52t9 80v104q0 37 6 63
t21.5 42.5t42 25t67.5 11.5v29q-41 4 -67.5 12.5t-42 25t-21.5 41.5t-6 63v104q0 48 -9 80t-30 52t-56.5 28.5t-89.5 8.5h-5z" />
    <glyph glyph-name="asciitilde" unicode="~" horiz-adv-x="833" 
d="M747 370q-53 -37 -98 -56.5t-90 -19.5q-38 0 -71.5 11t-69.5 24q-34 12 -68.5 22t-73.5 10q-86 0 -189 -71v-65q54 38 98.5 58t89.5 20q47 0 92.5 -16.5t97.5 -33.5q51 -17 93 -17q91 0 189 70v64z" />
    <glyph glyph-name="exclamdown" unicode="&#xa1;" horiz-adv-x="241" 
d="M121 634q-17 0 -30.5 -15t-13.5 -38t13.5 -38.5t30.5 -15.5t30 15.5t13 38.5t-13 38t-30 15zM133 443q-2 11 -4 18t-9 7t-8.5 -7t-3.5 -18l-27 -270q-5 -48 -8 -77t-3 -40q0 -30 13.5 -46t36.5 -16t37 16t14 42q0 17 -3 46.5t-8 74.5z" />
    <glyph glyph-name="cent" unicode="&#xa2;" horiz-adv-x="437" 
d="M212 630v-117q-64 -11 -101 -60.5t-37 -127.5q0 -80 38 -128.5t100 -55.5v-141h22v141q24 1 44 9t34.5 18t22 20.5t7.5 17.5q0 5 -4 9.5t-7 4.5q-2 0 -7 -5.5t-14 -12t-21.5 -12t-28.5 -5.5q-5 0 -11.5 1t-14.5 3v306q19 -3 30.5 -18t19 -31.5t13.5 -29.5t16 -13t16 17.5
t6 43.5q0 47 -101 52v114h-22zM212 490v-292q-65 37 -65 144q0 55 17.5 93t47.5 55z" />
    <glyph glyph-name="sterling" unicode="&#xa3;" horiz-adv-x="437" 
d="M242 322q-37 70 -60 120t-23 90q0 34 20 57.5t47 23.5q18 0 30.5 -13.5t22 -29.5t17.5 -29.5t17 -13.5q6 0 12 6t11 15t8 20t3 22q0 26 -25.5 39t-65.5 13q-35 0 -65.5 -13.5t-54 -37t-37 -55t-13.5 -67.5q0 -34 12.5 -69.5t35.5 -77.5h-72q-11 -19 -11 -33v-4h102
q39 -66 39 -116q0 -15 -6 -33q-24 11 -44.5 17.5t-37.5 6.5q-42 0 -71 -26.5t-29 -65.5q0 -35 21.5 -57t56.5 -22q58 0 111 71q28 -36 50.5 -54.5t45.5 -18.5t46 17t41 42.5t29.5 56t11.5 57.5q0 34 -13.5 52.5t-33.5 18.5q-16 0 -26 -13t-10 -31q0 -17 7 -27.5t15.5 -18
t15.5 -15t7 -17.5q0 -13 -11 -23t-25 -10q-11 0 -38.5 10t-69.5 33q14 31 22 59t8 59q0 5 -1 17t-4 31h78q13 12 13 32v5h-109zM172 81q-11 -23 -26 -35t-29 -12q-16 0 -27.5 14t-11.5 32q0 22 9.5 34.5t24.5 12.5q14 0 28.5 -11.5t31.5 -34.5z" />
    <glyph glyph-name="currency" unicode="&#xa4;" horiz-adv-x="606" 
d="M77 693l-35 -36l101 -100q-43 -57 -43 -125t43 -125l-101 -100l35 -36l101 101q55 -43 125 -43q72 0 127 43l100 -101l35 36l-100 100q42 55 42 125q0 69 -42 125l100 100l-35 36l-100 -101q-58 44 -127 44q-35 0 -65.5 -11t-59.5 -33zM304 586q32 0 60 -12t48.5 -33
t32.5 -49t12 -59q0 -32 -12 -60t-32.5 -49t-48.5 -33t-60 -12t-60 12t-48.5 33t-32.5 49t-12 60q0 31 12 59t32.5 49t48.5 33t60 12z" />
    <glyph glyph-name="yen" unicode="&#xa5;" horiz-adv-x="535" 
d="M180 553q-7 13 -7 24t7.5 14.5t17 5.5t17 5t7.5 13q0 13 -13 13q-5 0 -22.5 -2t-49.5 -2q-43 0 -71 3t-42 3q-9 0 -14.5 -4.5t-5.5 -10.5q0 -7 4 -9t10.5 -2.5t14 -1.5t14.5 -6q8 -5 22 -24.5t33 -54.5l53 -98h-133v-32h150l42 -77h-192v-31h206q2 -7 3 -11.5t1 -6.5
v-167q0 -16 -0.5 -26.5t-3.5 -17t-9.5 -10.5t-18.5 -7q-7 -2 -14 -2t-12.5 -1t-9 -4t-3.5 -10q0 -16 22 -16q9 0 32.5 3t62.5 3q30 0 50.5 -3t32.5 -3q22 0 22 14q0 8 -4 11.5t-10 4.5t-14 1t-17 3q-10 3 -15 7t-7.5 10.5t-3 16.5t-0.5 26v185h207v31h-197l41 77h156v32
h-139l57 107q16 30 28 47.5t28 22.5q15 5 26 5t11 15q0 12 -14 12q-3 0 -18.5 -2t-46.5 -2q-23 0 -40 3t-28 3q-16 0 -16 -12q0 -11 8.5 -13.5t19 -4t19.5 -5.5t9 -17q0 -3 -3 -13.5t-11 -25.5l-100 -198q-5 -9 -6 -9q-5 0 -8 7z" />
    <glyph glyph-name="brokenbar" unicode="&#xa6;" 
d="M219 699v-370h62v370h-62zM219 199v-370h62v370h-62z" />
    <glyph glyph-name="section" unicode="&#xa7;" horiz-adv-x="400" 
d="M210 425q-32 35 -51.5 63.5t-19.5 62.5t18.5 55t47.5 21q23 0 39 -11.5t16 -23.5q0 -6 -4 -12.5t-9 -13t-9 -15t-4 -18.5q0 -17 10.5 -28t25.5 -11q17 0 28.5 13.5t11.5 38.5q0 44 -30 73t-74 29q-53 0 -84 -35.5t-31 -89.5q0 -40 19.5 -74t56.5 -72h-9q-22 0 -41 -9.5
t-33.5 -25.5t-22.5 -38t-8 -47q0 -38 17.5 -72t51.5 -70l70 -76q32 -35 50.5 -63.5t18.5 -58.5q0 -33 -20.5 -54.5t-53.5 -21.5q-29 0 -44.5 10.5t-15.5 22.5q0 6 4 11t8.5 11.5t8.5 15t4 20.5q0 19 -11 30.5t-26 11.5q-17 0 -28 -14.5t-11 -40.5q0 -20 8 -38t23 -31.5
t35.5 -22t45.5 -8.5q26 0 48.5 9.5t38.5 26t25 39t9 48.5q0 37 -19.5 73t-58.5 74q3 0 5.5 -0.5t5.5 -0.5q45 0 75 34.5t30 87.5q0 36 -17 71t-51 71zM162 357q21 0 39 -16.5t45 -46.5q56 -62 56 -110q0 -32 -19 -52.5t-45 -20.5q-21 0 -43.5 20.5t-53.5 59.5q-21 26 -32 48
t-11 43q0 32 18.5 53.5t45.5 21.5z" />
    <glyph glyph-name="dieresis" unicode="&#xa8;" 
d="M109 588q0 -21 14 -35t34 -14t34.5 14t14.5 35q0 20 -14.5 34.5t-34.5 14.5t-34 -14.5t-14 -34.5zM295 588q0 -21 14 -35t34 -14t34.5 14t14.5 35q0 20 -14.5 34.5t-34.5 14.5t-34 -14.5t-14 -34.5z" />
    <glyph glyph-name="copyright" unicode="&#xa9;" horiz-adv-x="822" 
d="M412 675q-69 0 -132.5 -26t-111.5 -75q-49 -50 -74.5 -112t-25.5 -131q0 -70 25.5 -132t75.5 -111q50 -50 111.5 -75t130.5 -25q70 0 132 25.5t110 74.5q50 51 75.5 113t25.5 130q0 69 -26.5 132.5t-74.5 111.5t-111 74t-130 26zM412 636q59 0 114.5 -23.5t97.5 -65.5
t65 -99t23 -117t-22.5 -115t-66.5 -100q-43 -44 -96.5 -66t-115.5 -22q-124 0 -212 88q-43 43 -66 98t-23 117q0 61 22.5 116t65.5 99q42 43 98 66.5t116 23.5zM547 535q-6 -30 -31 -30q-7 0 -16.5 5t-23 11.5t-31.5 11.5t-41 5q-41 0 -76.5 -16t-62 -44.5t-42 -68
t-15.5 -85.5q0 -42 15.5 -79.5t42 -65.5t62.5 -44t77 -16q110 0 167 102l-17 12q-55 -85 -138 -85q-130 0 -130 186q0 182 121 182q104 0 137 -134h20l-1 153h-17z" />
    <glyph glyph-name="ordfeminine" unicode="&#xaa;" horiz-adv-x="286" 
d="M231 562q0 19 -2.5 34t-10 25.5t-22 15.5t-38.5 5q-29 0 -54 -9.5t-43 -24t-28.5 -31.5t-10.5 -33q0 -5 4.5 -8.5t9.5 -3.5q23 0 33 12.5t18 29.5q11 22 22 34.5t31 12.5q19 0 24 -13.5t5 -42.5v-50q0 -8 -1 -11t-7 -6l-19 -9q-27 -13 -49 -25.5t-37.5 -27t-24 -32
t-8.5 -40.5q0 -26 14.5 -41t38.5 -15q21 0 38 10.5t37 26.5l16 12h4q17 -47 53 -47q9 0 20 5.5t20.5 13t16 16t6.5 13.5q0 11 -9 11q-7 0 -13.5 -7t-14.5 -7q-13 0 -16 11t-3 33v163zM170 470v-55q0 -28 -17.5 -45t-34.5 -17q-13 0 -21 10.5t-8 30.5q0 49 45 70l24 12
q4 2 8 2t4 -8z" />
    <glyph glyph-name="guillemotleft" unicode="&#xab;" horiz-adv-x="328" 
d="M159 316q8 15 13 26.5t5 20.5q0 8 -6 8q-11 0 -22 -17.5t-38 -46.5q-38 -39 -62.5 -57.5t-24.5 -29.5q0 -6 7.5 -14t21 -19.5t32 -28t39.5 -39.5q19 -21 27.5 -35.5t19.5 -14.5q6 0 6 8q0 9 -5 20t-13 27l-52 96zM289 316q19 35 19 45t-7 10q-11 0 -22 -17.5t-38 -46.5
q-37 -39 -62 -57.5t-25 -29.5q0 -6 7.5 -14t21 -19.5t32 -28t39.5 -40.5q19 -21 27.5 -35t19.5 -14q7 0 7 10t-19 45l-52 96z" />
    <glyph glyph-name="logicalnot" unicode="&#xac;" horiz-adv-x="833" 
d="M124 419v-57h529v-188h56v245h-585z" />
    <glyph glyph-name="registered" unicode="&#xae;" horiz-adv-x="822" 
d="M412 675q-69 0 -132.5 -26t-111.5 -75q-49 -50 -74.5 -112t-25.5 -131q0 -70 25.5 -132t75.5 -111t111 -74.5t128 -25.5q72 0 133 25t109 73q51 51 77.5 114.5t26.5 129.5q0 69 -25.5 132.5t-73.5 111.5t-111.5 74.5t-131.5 26.5zM412 636q59 0 114.5 -23.5t97.5 -65.5
t65 -99t23 -117t-22.5 -115t-66.5 -100q-43 -44 -96.5 -66t-115.5 -22q-124 0 -212 88q-89 89 -89 215q0 61 22.5 116t65.5 99q43 43 98.5 66.5t115.5 23.5zM229 533v-21q35 -2 48.5 -11.5t13.5 -37.5v-252q0 -27 -13.5 -37.5t-48.5 -11.5v-20h188v20q-35 2 -48 12t-13 37
v121h16q82 0 101 -65q3 -11 3.5 -23t1 -25.5t2.5 -27t8 -26.5q16 -32 62 -32q78 0 78 87v6h-21q0 -65 -33 -65q-12 0 -17 6t-7.5 16.5t-4 23.5t-5.5 28q-11 42 -34.5 65.5t-69.5 37.5q72 13 106 36t34 61q0 44 -40 71t-115 27h-192zM356 351v128q0 35 51 35q47 0 71.5 -22.5
t24.5 -56.5q0 -40 -29 -62.5t-86 -22.5h-12t-20 1z" />
    <glyph glyph-name="macron" unicode="&#xaf;" 
d="M149 619v-62h202v62h-202z" />
    <glyph glyph-name="macron" unicode="&#x2c9;" 
d="M149 619v-62h202v62h-202z" />
    <glyph glyph-name="degree" unicode="&#xb0;" horiz-adv-x="329" 
d="M165 710q-29 0 -54 -10.5t-43.5 -29t-29.5 -44t-11 -54.5t10.5 -54t29 -44t43.5 -29.5t54 -10.5t54.5 11t44 30t29.5 44t11 53t-11 53.5t-29.5 44t-44 29.5t-53.5 11zM165 670q42 0 70 -28.5t28 -69.5q0 -20 -7.5 -38t-20.5 -31.5t-31 -21.5t-39 -8q-20 0 -38 7.5
t-31.5 21t-21.5 31.5t-8 39q0 42 29 70t70 28z" />
    <glyph glyph-name="plusminus" unicode="&#xb1;" horiz-adv-x="833" 
d="M388 576v-168h-264v-57h264v-168h58v168h263v57h-263v168h-58zM124 77v-57h585v57h-585z" />
    <glyph glyph-name="twosuperior" unicode="&#xb2;" horiz-adv-x="288" 
d="M97 335q45 48 75 75.5t43 41.5q36 44 36 90q0 43 -29.5 70.5t-75.5 27.5q-26 0 -47.5 -10.5t-36.5 -24.5t-23.5 -28.5t-8.5 -22.5q0 -7 6 -7q8 0 12.5 8t13.5 19q14 18 29 27.5t34 9.5q27 0 45.5 -21t18.5 -56q0 -30 -17 -60t-47 -70l-86 -114q-7 -9 -11.5 -15t-4.5 -12
q0 -12 15 -12q2 0 4.5 0.5t4.5 0.5h180q16 0 19.5 3.5t3.5 19.5v57q0 8 -0.5 13t-5.5 5q-9 0 -11 -9.5t-7 -18.5q-5 -11 -34 -11h-104q-9 0 -9 2l4 6z" />
    <glyph glyph-name="threesuperior" unicode="&#xb3;" horiz-adv-x="288" 
d="M134 640q-23 0 -42 -7t-32.5 -17t-20.5 -21t-7 -18q0 -9 6 -9t8.5 6t10.5 15q13 14 25.5 21t29.5 7q20 0 33.5 -13.5t13.5 -35.5q0 -26 -19.5 -47t-51.5 -45q-26 -19 -40.5 -27.5t-14.5 -17.5q0 -6 7 -6q5 0 20.5 8.5t44.5 8.5q46 0 72 -26t26 -72q0 -29 -9.5 -51.5
t-23.5 -37.5t-30 -23t-28 -8q-9 0 -17 6t-15 13t-14.5 13t-16.5 6q-24 0 -24 -25q0 -35 59 -35q29 0 61.5 15.5t61.5 45.5q49 52 49 113q0 77 -63 102q-26 10 -42.5 9t-16.5 3q0 3 14 8.5t33 19.5q18 14 26.5 28t8.5 34q0 26 -22 43t-60 17z" />
    <glyph glyph-name="acute" unicode="&#xb4;" 
d="M336 613q24 18 24 40q0 16 -8.5 25.5t-19.5 9.5t-19 -7.5t-19 -21.5l-113 -147h26z" />
    <glyph glyph-name="mu" unicode="&#xb5;" horiz-adv-x="547" 
d="M80 94q14 -105 109 -105q92 0 137 106v-11q0 -45 20.5 -69t52.5 -24q76 0 112 80q11 25 15.5 44.5t4.5 28.5q0 18 -13 18q-6 0 -10 -7t-7.5 -17.5l-8 -24t-13.5 -26.5q-22 -34 -57 -34q-20 0 -32.5 14.5t-12.5 38.5q0 13 2.5 29t7.5 38l56 259h-73l-54 -249
q-29 -131 -126 -131q-37 0 -57.5 22t-20.5 63q0 25 6 55l51 240h-72l-53 -251q-15 -71 -30 -127.5t-26.5 -99t-19 -71.5t-7.5 -44q0 -20 10.5 -31.5t28.5 -11.5q21 0 31 18.5t16 56t12 93t21 130.5z" />
    <glyph glyph-name="mu" unicode="&#x3bc;" horiz-adv-x="547" 
d="M80 94q14 -105 109 -105q92 0 137 106v-11q0 -45 20.5 -69t52.5 -24q76 0 112 80q11 25 15.5 44.5t4.5 28.5q0 18 -13 18q-6 0 -10 -7t-7.5 -17.5l-8 -24t-13.5 -26.5q-22 -34 -57 -34q-20 0 -32.5 14.5t-12.5 38.5q0 13 2.5 29t7.5 38l56 259h-73l-54 -249
q-29 -131 -126 -131q-37 0 -57.5 22t-20.5 63q0 25 6 55l51 240h-72l-53 -251q-15 -71 -30 -127.5t-26.5 -99t-19 -71.5t-7.5 -44q0 -20 10.5 -31.5t28.5 -11.5q21 0 31 18.5t16 56t12 93t21 130.5z" />
    <glyph glyph-name="paragraph" unicode="&#xb6;" 
d="M463 722h-234q-44 0 -79.5 -12.5t-60.5 -35t-38.5 -54t-13.5 -68.5q0 -73 48.5 -119.5t134.5 -50.5v-382h46v684h90v-684h46v684h61v38z" />
    <glyph glyph-name="periodcentered" unicode="&#xb7;" horiz-adv-x="219" 
d="M109 367q-17 0 -29 -14.5t-12 -37.5t12 -38t29 -15t29.5 15t12.5 38t-12.5 37.5t-29.5 14.5z" />
    <glyph glyph-name="periodcentered" unicode="&#x22c5;" horiz-adv-x="219" 
d="M109 367q-17 0 -29 -14.5t-12 -37.5t12 -38t29 -15t29.5 15t12.5 38t-12.5 37.5t-29.5 14.5z" />
    <glyph glyph-name="cedilla" unicode="&#xb8;" 
d="M237 0v-93q9 2 15 3t10 1q21 0 32.5 -12t11.5 -32q0 -45 -48 -45q-14 0 -37.5 8t-49.5 27l-14 -38q33 -17 60.5 -27t54.5 -10q41 0 63 23t22 63q0 37 -18.5 58.5t-49.5 21.5q-9 0 -27 -3v55h-25z" />
    <glyph glyph-name="onesuperior" unicode="&#xb9;" horiz-adv-x="288" 
d="M188 595q0 11 1 19t1 14q0 11 -8 11q-4 0 -20 -10.5t-58 -24.5q-22 -8 -36 -12.5t-14 -13.5q0 -8 9 -8q11 0 27 8.5t29 8.5q7 0 8 -7.5t1 -25.5v-233q0 -23 -4 -34t-20 -13q-18 -3 -29.5 -2t-11.5 -10q0 -10 12 -10q8 0 25.5 2t45.5 2q48 0 70.5 -2.5t25.5 -2.5
q10 0 10 10q0 6 -4.5 8t-11.5 2.5t-16 0.5q-8 0 -15 3q-11 5 -14 17.5t-3 33.5v269z" />
    <glyph glyph-name="ordmasculine" unicode="&#xba;" horiz-adv-x="349" 
d="M18 475q0 -37 11 -68t31 -53t47.5 -34t61.5 -12q75 0 118 45.5t43 120.5q0 37 -11 68t-31 53.5t-48 34.5t-63 12q-72 0 -115.5 -45.5t-43.5 -121.5zM174 622q40 0 65 -42t25 -116q0 -65 -23.5 -101t-64.5 -36t-66 42t-25 116q0 66 23.5 101.5t65.5 35.5z" />
    <glyph glyph-name="guillemotright" unicode="&#xbb;" horiz-adv-x="328" 
d="M38 124q-18 -32 -18 -45q0 -10 6 -10q11 0 22 17.5t38 46.5q38 39 62.5 57.5t24.5 29.5q0 6 -6.5 12.5t-18 16.5t-28 24.5t-35.5 34.5q-27 28 -37.5 45.5t-21.5 17.5q-6 0 -6 -10q0 -12 18 -45l52 -96zM169 124q-19 -33 -19 -45q0 -10 6 -10q11 0 22.5 17.5t38.5 46.5
q38 39 62.5 57.5t24.5 29.5q0 6 -6.5 13t-18.5 17t-28 24t-35 34q-27 28 -38 45.5t-22 17.5q-6 0 -6 -10q0 -12 19 -45l52 -96z" />
    <glyph glyph-name="onequarter" unicode="&#xbc;" horiz-adv-x="684" 
d="M179 597q0 10 1 18t1 13q0 10 -8 10q-3 0 -18.5 -9.5t-55.5 -23.5l-34.5 -11.5t-13.5 -12.5q0 -7 9 -7q11 0 26 8t27 8q7 0 8 -7t1 -24v-218q0 -21 -3.5 -31.5t-19.5 -12.5q-17 -2 -28 -1.5t-11 -8.5q0 -10 11 -10q8 0 25 1.5t43 1.5q46 0 67.5 -2t24.5 -2q9 0 9 9
q0 6 -4.5 8t-11.5 2h-14t-15 3q-11 5 -13.5 16.5t-2.5 31.5v251zM507 648l-366 -667h35l366 667h-35zM631 398q-7 0 -13 -7l-175 -229q-9 -12 -15 -21t-6 -15q0 -9 4 -11t12 -2h111q10 0 11.5 -2t1.5 -12v-44q0 -13 -2.5 -20.5t-11.5 -10.5q-20 -6 -29 -6t-9 -10q0 -8 8 -8
q5 0 23 2t52 2q18 0 31 -1.5t21 -1.5q11 0 11 9q0 5 -2.5 6.5t-6 2t-8.5 1t-11 2.5q-8 4 -9.5 10t-1.5 17v53q0 11 10 11h32q7 0 7 7v9q0 8 -8 8h-30q-8 0 -9.5 2.5t-1.5 8.5v116q0 9 -6 9q-1 0 -12 -3t-24 -10q-10 -5 -11.5 -9t-1.5 -10v-91q0 -8 -2 -10.5t-10 -2.5h-88
q-12 0 -12 5q0 3 7 12.5t20 26.5l33 44q63 82 99 121.5t36 46.5q0 5 -5 5h-9z" />
    <glyph glyph-name="onehalf" unicode="&#xbd;" horiz-adv-x="684" 
d="M179 597q0 10 1 18t1 13q0 10 -8 10q-3 0 -18.5 -9.5t-55.5 -23.5l-34.5 -11.5t-13.5 -12.5q0 -7 9 -7q11 0 26 8t27 8q7 0 8 -7t1 -24v-218q0 -21 -3.5 -31.5t-19.5 -12.5q-17 -2 -28 -1.5t-11 -8.5q0 -10 11 -10q8 0 25 1.5t43 1.5q46 0 67.5 -2t24.5 -2q9 0 9 9
q0 6 -4.5 8t-11.5 2h-14t-15 3q-11 5 -13.5 16.5t-2.5 31.5v251zM507 648l-366 -667h35l366 667h-35zM501 77q42 45 71 71t41 39q35 41 35 83q0 41 -28.5 66.5t-72.5 25.5q-25 0 -45.5 -9.5t-35 -23t-22.5 -27t-8 -20.5t7 -7q6 0 10.5 7.5t13.5 18.5q28 34 60 34
q26 0 44 -19.5t18 -52.5q0 -28 -16.5 -56t-44.5 -65l-83 -106q-15 -18 -15 -26q0 -11 14 -11q2 0 4.5 0.5t4.5 0.5h172q15 0 18.5 3.5t3.5 18.5v53q0 8 -1 12.5t-6 4.5q-8 0 -9.5 -9t-6.5 -18q-5 -10 -33 -10h-99q-8 0 -8 2t3 5z" />
    <glyph glyph-name="threequarters" unicode="&#xbe;" horiz-adv-x="684" 
d="M128 639q-22 0 -40 -6.5t-30.5 -16t-19.5 -19.5t-7 -17q0 -8 5 -8q6 0 8.5 5.5t10.5 13.5q12 14 24 20.5t28 6.5q19 0 32 -13t13 -33q0 -25 -18.5 -44t-49.5 -42q-25 -18 -39 -26t-14 -16q0 -6 7 -6q5 0 19.5 8.5t42.5 8.5q44 0 69 -24.5t25 -67.5q0 -27 -9 -48
t-22.5 -35t-29 -21.5t-27.5 -7.5q-9 0 -16 5.5t-13.5 12.5t-13.5 12.5t-16 5.5q-23 0 -23 -24q0 -33 57 -33q27 0 58 14.5t58 42.5q47 49 47 105q0 73 -60 96q-25 10 -40.5 8.5t-15.5 2.5q0 3 13.5 8.5t31.5 18.5q33 23 33 57q0 24 -20.5 40t-57.5 16zM507 648l-366 -667h35
l366 667h-35zM631 398q-7 0 -13 -7l-175 -229q-9 -12 -15 -21t-6 -15q0 -9 4 -11t12 -2h111q10 0 11.5 -2t1.5 -12v-44q0 -13 -2.5 -20.5t-11.5 -10.5q-20 -6 -29 -6t-9 -10q0 -8 8 -8q5 0 23 2t52 2q18 0 31 -1.5t21 -1.5q11 0 11 9q0 5 -2.5 6.5t-6 2t-8.5 1t-11 2.5
q-8 4 -9.5 10t-1.5 17v53q0 11 10 11h32q7 0 7 7v9q0 8 -8 8h-30q-8 0 -9.5 2.5t-1.5 8.5v116q0 9 -6 9q-1 0 -12 -3t-24 -10q-10 -5 -11.5 -9t-1.5 -10v-91q0 -8 -2 -10.5t-10 -2.5h-88q-12 0 -12 5q0 3 7 12.5t20 26.5l33 44q63 82 99 121.5t36 46.5q0 5 -5 5h-9z" />
    <glyph glyph-name="questiondown" unicode="&#xbf;" horiz-adv-x="274" 
d="M181 628q-17 0 -30.5 -15t-13.5 -38t13.5 -38t30.5 -15t30 15t13 38t-13 38t-30 15zM29 168q0 -39 11 -72t30.5 -56.5t47 -36.5t60.5 -13q35 0 51 10t16 34q0 32 -7 50t-17 18q-11 0 -20.5 -11.5t-19.5 -25.5t-22 -25.5t-29 -11.5q-20 0 -35 23t-15 61t20.5 66.5
t57.5 63.5q22 20 36.5 34.5t14.5 36.5q0 66 -7.5 107t-17.5 41q-9 0 -10.5 -8t-2 -20t-2 -26t-9.5 -26q-11 -15 -32 -31.5t-44 -42.5q-28 -32 -41.5 -65t-13.5 -74z" />
    <glyph glyph-name="Agrave" unicode="&#xc0;" horiz-adv-x="459" 
d="M249 601q-7 21 -10 34t-14 13q-8 0 -10.5 -6.5t-6.5 -17.5l-159 -516q-8 -27 -15 -45.5t-21 -28.5q-8 -6 -16.5 -7t-16 -2t-12.5 -3.5t-5 -10.5q0 -13 18 -13q11 0 27.5 2.5t38.5 2.5q32 0 54 -3t33 -3q17 0 17 12q0 11 -10 15t-30 7q-14 2 -20 7t-6 20q0 18 15 77l24 89
q1 4 4.5 6.5t6.5 2.5h124q13 0 15 -8l39 -128q9 -32 9 -45q0 -14 -8 -19t-33 -5q-20 0 -20 -16q0 -12 17 -12q10 0 35.5 2.5t67.5 2.5q30 0 50.5 -3t33.5 -3q21 0 21 14q0 9 -11.5 10.5t-25.5 11.5q-20 13 -29 34t-20 56zM200 463l54 -174q2 -8 2 -10q0 -3 -3 -5.5t-6 -2.5
h-100q-7 0 -7 6v3q0 3 1 7l47 177q2 8 6 8q3 0 6 -9zM187 849q-11 14 -19 21.5t-19 7.5t-19.5 -10t-8.5 -28q0 -19 24 -37l129 -101h26z" />
    <glyph glyph-name="Aacute" unicode="&#xc1;" horiz-adv-x="459" 
d="M249 601q-7 21 -10 34t-14 13q-8 0 -10.5 -6.5t-6.5 -17.5l-159 -516q-8 -27 -15 -45.5t-21 -28.5q-8 -6 -16.5 -7t-16 -2t-12.5 -3.5t-5 -10.5q0 -13 18 -13q11 0 27.5 2.5t38.5 2.5q32 0 54 -3t33 -3q17 0 17 12q0 11 -10 15t-30 7q-14 2 -20 7t-6 20q0 18 15 77l24 89
q1 4 4.5 6.5t6.5 2.5h124q13 0 15 -8l39 -128q9 -32 9 -45q0 -14 -8 -19t-33 -5q-20 0 -20 -16q0 -12 17 -12q10 0 35.5 2.5t67.5 2.5q30 0 50.5 -3t33.5 -3q21 0 21 14q0 9 -11.5 10.5t-25.5 11.5q-20 13 -29 34t-20 56zM200 463l54 -174q2 -8 2 -10q0 -3 -3 -5.5t-6 -2.5
h-100q-7 0 -7 6v3q0 3 1 7l47 177q2 8 6 8q3 0 6 -9zM317 803q24 18 24 40q0 16 -8.5 25.5t-19.5 9.5t-19 -7.5t-19 -21.5l-113 -147h26z" />
    <glyph glyph-name="Acircumflex" unicode="&#xc2;" horiz-adv-x="459" 
d="M249 601q-7 21 -10 34t-14 13q-8 0 -10.5 -6.5t-6.5 -17.5l-159 -516q-8 -27 -15 -45.5t-21 -28.5q-8 -6 -16.5 -7t-16 -2t-12.5 -3.5t-5 -10.5q0 -13 18 -13q11 0 27.5 2.5t38.5 2.5q32 0 54 -3t33 -3q17 0 17 12q0 11 -10 15t-30 7q-14 2 -20 7t-6 20q0 18 15 77l24 89
q1 4 4.5 6.5t6.5 2.5h124q13 0 15 -8l39 -128q9 -32 9 -45q0 -14 -8 -19t-33 -5q-20 0 -20 -16q0 -12 17 -12q10 0 35.5 2.5t67.5 2.5q30 0 50.5 -3t33.5 -3q21 0 21 14q0 9 -11.5 10.5t-25.5 11.5q-20 13 -29 34t-20 56zM200 463l54 -174q2 -8 2 -10q0 -3 -3 -5.5t-6 -2.5
h-100q-7 0 -7 6v3q0 3 1 7l47 177q2 8 6 8q3 0 6 -9zM208 873l-91 -171h23l91 103l91 -103h23l-91 171h-46z" />
    <glyph glyph-name="Atilde" unicode="&#xc3;" horiz-adv-x="459" 
d="M249 601q-7 21 -10 34t-14 13q-8 0 -10.5 -6.5t-6.5 -17.5l-159 -516q-8 -27 -15 -45.5t-21 -28.5q-8 -6 -16.5 -7t-16 -2t-12.5 -3.5t-5 -10.5q0 -13 18 -13q11 0 27.5 2.5t38.5 2.5q32 0 54 -3t33 -3q17 0 17 12q0 11 -10 15t-30 7q-14 2 -20 7t-6 20q0 18 15 77l24 89
q1 4 4.5 6.5t6.5 2.5h124q13 0 15 -8l39 -128q9 -32 9 -45q0 -14 -8 -19t-33 -5q-20 0 -20 -16q0 -12 17 -12q10 0 35.5 2.5t67.5 2.5q30 0 50.5 -3t33.5 -3q21 0 21 14q0 9 -11.5 10.5t-25.5 11.5q-20 13 -29 34t-20 56zM200 463l54 -174q2 -8 2 -10q0 -3 -3 -5.5t-6 -2.5
h-100q-7 0 -7 6v3q0 3 1 7l47 177q2 8 6 8q3 0 6 -9zM322 848q-6 -22 -13.5 -32t-23.5 -10q-6 0 -21 5l-43 14q-11 4 -25 4q-63 0 -77 -104h20q6 24 13.5 34.5t24.5 10.5q5 0 9.5 -1t9.5 -3l42 -13q17 -5 29 -5q61 0 76 100h-21z" />
    <glyph glyph-name="Adieresis" unicode="&#xc4;" horiz-adv-x="459" 
d="M249 601q-7 21 -10 34t-14 13q-8 0 -10.5 -6.5t-6.5 -17.5l-159 -516q-8 -27 -15 -45.5t-21 -28.5q-8 -6 -16.5 -7t-16 -2t-12.5 -3.5t-5 -10.5q0 -13 18 -13q11 0 27.5 2.5t38.5 2.5q32 0 54 -3t33 -3q17 0 17 12q0 11 -10 15t-30 7q-14 2 -20 7t-6 20q0 18 15 77l24 89
q1 4 4.5 6.5t6.5 2.5h124q13 0 15 -8l39 -128q9 -32 9 -45q0 -14 -8 -19t-33 -5q-20 0 -20 -16q0 -12 17 -12q10 0 35.5 2.5t67.5 2.5q30 0 50.5 -3t33.5 -3q21 0 21 14q0 9 -11.5 10.5t-25.5 11.5q-20 13 -29 34t-20 56zM200 463l54 -174q2 -8 2 -10q0 -3 -3 -5.5t-6 -2.5
h-100q-7 0 -7 6v3q0 3 1 7l47 177q2 8 6 8q3 0 6 -9zM90 778q0 -21 14 -35t34 -14t34.5 14t14.5 35q0 20 -14.5 34.5t-34.5 14.5t-34 -14.5t-14 -34.5zM276 778q0 -21 14 -35t34 -14t34.5 14t14.5 35q0 20 -14.5 34.5t-34.5 14.5t-34 -14.5t-14 -34.5z" />
    <glyph glyph-name="Aring" unicode="&#xc5;" horiz-adv-x="459" 
d="M249 601q-7 21 -10 34t-14 13q-8 0 -10.5 -6.5t-6.5 -17.5l-159 -516q-8 -27 -15 -45.5t-21 -28.5q-8 -6 -16.5 -7t-16 -2t-12.5 -3.5t-5 -10.5q0 -13 18 -13q11 0 27.5 2.5t38.5 2.5q32 0 54 -3t33 -3q17 0 17 12q0 11 -10 15t-30 7q-14 2 -20 7t-6 20q0 18 15 77l24 89
q1 4 4.5 6.5t6.5 2.5h124q13 0 15 -8l39 -128q9 -32 9 -45q0 -14 -8 -19t-33 -5q-20 0 -20 -16q0 -12 17 -12q10 0 35.5 2.5t67.5 2.5q30 0 50.5 -3t33.5 -3q21 0 21 14q0 9 -11.5 10.5t-25.5 11.5q-20 13 -29 34t-20 56zM200 463l54 -174q2 -8 2 -10q0 -3 -3 -5.5t-6 -2.5
h-100q-7 0 -7 6v3q0 3 1 7l47 177q2 8 6 8q3 0 6 -9zM107 799q0 -25 9 -46.5t24.5 -37.5t37 -25t46.5 -9t46.5 9t37.5 25t25 37.5t9 46.5q0 24 -9.5 45.5t-25.5 37.5t-37.5 25t-45.5 9t-45.5 -9t-37.5 -25t-25 -37.5t-9 -45.5zM151 799q0 30 21.5 51.5t51.5 21.5t51.5 -21.5
t21.5 -51.5q0 -31 -21.5 -52.5t-51.5 -21.5q-31 0 -52 21.5t-21 52.5z" />
    <glyph glyph-name="AE" unicode="&#xc6;" horiz-adv-x="694" 
d="M313 626q-22 0 -29.5 2t-9.5 2q-14 0 -14 -14q0 -9 5 -11t11.5 -3t11.5 -1.5t5 -6.5q0 -2 -1 -7t-5 -13l-232 -458q-17 -33 -31 -52.5t-29 -27.5q-7 -3 -13.5 -4t-12 -2.5t-8.5 -4.5t-3 -11q0 -14 20 -14q7 0 24 1.5t43 1.5q37 0 61.5 -1.5t37.5 -1.5q30 0 30 16
q0 13 -13 13q-12 0 -29 2q-33 3 -33 33q0 10 3.5 25.5t9.5 28.5l86 189q3 6 4.5 8.5t9.5 2.5h121q13 0 13 -13v-211q0 -16 -0.5 -26.5t-3.5 -17t-10 -10.5t-19 -7q-8 -2 -15 -2.5t-12.5 -1.5t-9 -3.5t-3.5 -9.5q0 -16 22 -16q5 0 30 2.5t72 2.5q93 0 151.5 -4t81.5 -4
q20 0 23.5 6t5.5 29l10 97q1 8 1.5 12.5t0.5 5.5q0 3 -3 6t-6 3q-11 0 -19.5 -20t-25.5 -49q-21 -36 -46.5 -46.5t-68.5 -10.5q-22 0 -35 2.5t-20 10t-9 19.5t-2 32v206q0 11 3 14.5t13 3.5h41q29 0 47.5 -5t29.5 -28q7 -15 11 -28t6 -22t5 -14.5t9 -5.5q11 0 11 18
q0 8 -1.5 29t-1.5 56q0 42 3 65t3 29q0 19 -12 19q-7 0 -9.5 -6t-4.5 -15t-5.5 -20t-12.5 -20q-7 -7 -28 -12.5t-49 -5.5h-42q-11 0 -13.5 3t-2.5 12v170q0 17 1 29t6 19t15.5 10t28.5 3q77 0 113 -38q12 -12 18 -25.5t9.5 -24.5t7 -18t9.5 -7q11 0 11 25v86q0 19 -3 26.5
t-23 7.5q-14 0 -45.5 -2t-80.5 -2h-190zM346 552v-187q0 -13 -13 -13h-115l93 199q13 29 25 29q7 0 8.5 -7.5t1.5 -20.5z" />
    <glyph glyph-name="Ccedilla" unicode="&#xc7;" horiz-adv-x="537" 
d="M30 316q0 -71 22 -132t61 -106t92.5 -71t116.5 -26q38 0 69.5 7t54.5 19t35.5 27.5t12.5 32.5q0 36 1.5 57.5t1.5 27.5q0 21 -11 21q-9 0 -16 -15t-19 -42q-23 -52 -54.5 -77.5t-78.5 -25.5q-37 0 -70.5 22t-59 62t-40.5 94.5t-15 119.5q0 70 15 127.5t41.5 98t61.5 62.5
t76 22q39 0 68 -23t56 -68q11 -19 18.5 -29.5t14.5 -10.5q8 0 8 18q0 45 -4 71.5t-9 31.5t-18 11.5t-33 12t-45 9.5t-52 4q-63 0 -117.5 -25.5t-95.5 -70.5t-64.5 -105.5t-23.5 -130.5zM285 0v-93q9 2 15 3t10 1q21 0 32.5 -12t11.5 -32q0 -45 -48 -45q-14 0 -37.5 8
t-49.5 27l-14 -38q33 -17 60.5 -27t54.5 -10q41 0 63 23t22 63q0 37 -18.5 58.5t-49.5 21.5q-9 0 -27 -3v55h-25z" />
    <glyph glyph-name="Egrave" unicode="&#xc8;" horiz-adv-x="467" 
d="M419 596v4q0 16 -4 23t-24 7q-10 0 -59 -2t-137 -2q-69 0 -106 2t-43 2q-17 0 -17 -14q0 -8 3.5 -10.5t9.5 -3.5t14 -1t16 -3q14 -5 16.5 -14t2.5 -32v-458q0 -29 -4 -44t-26 -18q-19 -3 -31 -3t-12 -13q0 -16 22 -16q6 0 29.5 2.5t68.5 2.5q97 0 160.5 -4t94.5 -4
q11 0 16.5 1t8.5 5t4 10.5t2 18.5l11 97q1 8 1.5 13l0.5 5q0 2 -3.5 5.5t-6.5 3.5q-12 0 -21 -20.5t-27 -48.5q-12 -18 -24 -29.5t-27 -17.5t-33.5 -8t-41.5 -2q-22 0 -36 2.5t-22 9t-11 19t-3 33.5v206q0 11 3.5 14.5t14.5 3.5h44q32 0 52 -5t32 -28q8 -15 12 -27.5
t6.5 -22t6 -15t9.5 -5.5q12 0 12 18q0 7 -1.5 28.5t-1.5 56.5q0 30 2.5 55t2.5 44q0 14 -12 14q-8 0 -10.5 -6t-4.5 -15t-6 -19.5t-14 -20.5q-7 -7 -30 -12.5t-54 -5.5h-45q-14 0 -16 3.5t-2 16.5v165q0 18 1.5 29.5t7 18.5t16.5 10t31 3q81 0 122 -38q13 -12 20 -25.5
t11 -24.5t7.5 -18t10.5 -7q11 0 11 25v86zM191 849q-11 14 -19 21.5t-19 7.5t-19.5 -10t-8.5 -28q0 -19 24 -37l129 -101h26z" />
    <glyph glyph-name="Eacute" unicode="&#xc9;" horiz-adv-x="467" 
d="M419 596v4q0 16 -4 23t-24 7q-10 0 -59 -2t-137 -2q-69 0 -106 2t-43 2q-17 0 -17 -14q0 -8 3.5 -10.5t9.5 -3.5t14 -1t16 -3q14 -5 16.5 -14t2.5 -32v-458q0 -29 -4 -44t-26 -18q-19 -3 -31 -3t-12 -13q0 -16 22 -16q6 0 29.5 2.5t68.5 2.5q97 0 160.5 -4t94.5 -4
q11 0 16.5 1t8.5 5t4 10.5t2 18.5l11 97q1 8 1.5 13l0.5 5q0 2 -3.5 5.5t-6.5 3.5q-12 0 -21 -20.5t-27 -48.5q-12 -18 -24 -29.5t-27 -17.5t-33.5 -8t-41.5 -2q-22 0 -36 2.5t-22 9t-11 19t-3 33.5v206q0 11 3.5 14.5t14.5 3.5h44q32 0 52 -5t32 -28q8 -15 12 -27.5
t6.5 -22t6 -15t9.5 -5.5q12 0 12 18q0 7 -1.5 28.5t-1.5 56.5q0 30 2.5 55t2.5 44q0 14 -12 14q-8 0 -10.5 -6t-4.5 -15t-6 -19.5t-14 -20.5q-7 -7 -30 -12.5t-54 -5.5h-45q-14 0 -16 3.5t-2 16.5v165q0 18 1.5 29.5t7 18.5t16.5 10t31 3q81 0 122 -38q13 -12 20 -25.5
t11 -24.5t7.5 -18t10.5 -7q11 0 11 25v86zM321 803q24 18 24 40q0 16 -8.5 25.5t-19.5 9.5t-19 -7.5t-19 -21.5l-113 -147h26z" />
    <glyph glyph-name="Ecircumflex" unicode="&#xca;" horiz-adv-x="467" 
d="M419 596v4q0 16 -4 23t-24 7q-10 0 -59 -2t-137 -2q-69 0 -106 2t-43 2q-17 0 -17 -14q0 -8 3.5 -10.5t9.5 -3.5t14 -1t16 -3q14 -5 16.5 -14t2.5 -32v-458q0 -29 -4 -44t-26 -18q-19 -3 -31 -3t-12 -13q0 -16 22 -16q6 0 29.5 2.5t68.5 2.5q97 0 160.5 -4t94.5 -4
q11 0 16.5 1t8.5 5t4 10.5t2 18.5l11 97q1 8 1.5 13l0.5 5q0 2 -3.5 5.5t-6.5 3.5q-12 0 -21 -20.5t-27 -48.5q-12 -18 -24 -29.5t-27 -17.5t-33.5 -8t-41.5 -2q-22 0 -36 2.5t-22 9t-11 19t-3 33.5v206q0 11 3.5 14.5t14.5 3.5h44q32 0 52 -5t32 -28q8 -15 12 -27.5
t6.5 -22t6 -15t9.5 -5.5q12 0 12 18q0 7 -1.5 28.5t-1.5 56.5q0 30 2.5 55t2.5 44q0 14 -12 14q-8 0 -10.5 -6t-4.5 -15t-6 -19.5t-14 -20.5q-7 -7 -30 -12.5t-54 -5.5h-45q-14 0 -16 3.5t-2 16.5v165q0 18 1.5 29.5t7 18.5t16.5 10t31 3q81 0 122 -38q13 -12 20 -25.5
t11 -24.5t7.5 -18t10.5 -7q11 0 11 25v86zM212 873l-91 -171h23l91 103l91 -103h23l-91 171h-46z" />
    <glyph glyph-name="Edieresis" unicode="&#xcb;" horiz-adv-x="467" 
d="M419 596v4q0 16 -4 23t-24 7q-10 0 -59 -2t-137 -2q-69 0 -106 2t-43 2q-17 0 -17 -14q0 -8 3.5 -10.5t9.5 -3.5t14 -1t16 -3q14 -5 16.5 -14t2.5 -32v-458q0 -29 -4 -44t-26 -18q-19 -3 -31 -3t-12 -13q0 -16 22 -16q6 0 29.5 2.5t68.5 2.5q97 0 160.5 -4t94.5 -4
q11 0 16.5 1t8.5 5t4 10.5t2 18.5l11 97q1 8 1.5 13l0.5 5q0 2 -3.5 5.5t-6.5 3.5q-12 0 -21 -20.5t-27 -48.5q-12 -18 -24 -29.5t-27 -17.5t-33.5 -8t-41.5 -2q-22 0 -36 2.5t-22 9t-11 19t-3 33.5v206q0 11 3.5 14.5t14.5 3.5h44q32 0 52 -5t32 -28q8 -15 12 -27.5
t6.5 -22t6 -15t9.5 -5.5q12 0 12 18q0 7 -1.5 28.5t-1.5 56.5q0 30 2.5 55t2.5 44q0 14 -12 14q-8 0 -10.5 -6t-4.5 -15t-6 -19.5t-14 -20.5q-7 -7 -30 -12.5t-54 -5.5h-45q-14 0 -16 3.5t-2 16.5v165q0 18 1.5 29.5t7 18.5t16.5 10t31 3q81 0 122 -38q13 -12 20 -25.5
t11 -24.5t7.5 -18t10.5 -7q11 0 11 25v86zM94 778q0 -21 14 -35t34 -14t34.5 14t14.5 35q0 20 -14.5 34.5t-34.5 14.5t-34 -14.5t-14 -34.5zM280 778q0 -21 14 -35t34 -14t34.5 14t14.5 35q0 20 -14.5 34.5t-34.5 14.5t-34 -14.5t-14 -34.5z" />
    <glyph glyph-name="Igrave" unicode="&#xcc;" horiz-adv-x="272" 
d="M181 552q0 24 3.5 33.5t22.5 13.5q9 2 17 2.5t14 1.5t9 3.5t3 9.5q0 14 -15 14q-8 0 -32 -4t-67 -4t-67 4t-32 4q-15 0 -15 -14q0 -8 3.5 -10.5t10 -3.5t14.5 -1q9 0 19 -3q15 -5 18.5 -13.5t3.5 -32.5v-458q0 -16 -0.5 -26.5t-3.5 -17t-9.5 -10.5t-18.5 -7q-7 -2 -14 -2
t-12.5 -1t-9 -4t-3.5 -10q0 -16 21 -16q9 0 32.5 3t62.5 3t62.5 -3t32.5 -3q21 0 21 14q0 8 -3.5 11.5t-9.5 4.5t-14 1t-17 3q-10 3 -15.5 7t-8 10.5t-3 16.5t-0.5 26v458zM93 849q-11 14 -19 21.5t-19 7.5t-19.5 -10t-8.5 -28q0 -19 24 -37l129 -101h26z" />
    <glyph glyph-name="Iacute" unicode="&#xcd;" horiz-adv-x="272" 
d="M181 552q0 24 3.5 33.5t22.5 13.5q9 2 17 2.5t14 1.5t9 3.5t3 9.5q0 14 -15 14q-8 0 -32 -4t-67 -4t-67 4t-32 4q-15 0 -15 -14q0 -8 3.5 -10.5t10 -3.5t14.5 -1q9 0 19 -3q15 -5 18.5 -13.5t3.5 -32.5v-458q0 -16 -0.5 -26.5t-3.5 -17t-9.5 -10.5t-18.5 -7q-7 -2 -14 -2
t-12.5 -1t-9 -4t-3.5 -10q0 -16 21 -16q9 0 32.5 3t62.5 3t62.5 -3t32.5 -3q21 0 21 14q0 8 -3.5 11.5t-9.5 4.5t-14 1t-17 3q-10 3 -15.5 7t-8 10.5t-3 16.5t-0.5 26v458zM223 803q24 18 24 40q0 16 -8.5 25.5t-19.5 9.5t-19 -7.5t-19 -21.5l-113 -147h26z" />
    <glyph glyph-name="Icircumflex" unicode="&#xce;" horiz-adv-x="272" 
d="M181 552q0 24 3.5 33.5t22.5 13.5q9 2 17 2.5t14 1.5t9 3.5t3 9.5q0 14 -15 14q-8 0 -32 -4t-67 -4t-67 4t-32 4q-15 0 -15 -14q0 -8 3.5 -10.5t10 -3.5t14.5 -1q9 0 19 -3q15 -5 18.5 -13.5t3.5 -32.5v-458q0 -16 -0.5 -26.5t-3.5 -17t-9.5 -10.5t-18.5 -7q-7 -2 -14 -2
t-12.5 -1t-9 -4t-3.5 -10q0 -16 21 -16q9 0 32.5 3t62.5 3t62.5 -3t32.5 -3q21 0 21 14q0 8 -3.5 11.5t-9.5 4.5t-14 1t-17 3q-10 3 -15.5 7t-8 10.5t-3 16.5t-0.5 26v458zM114 873l-91 -171h23l91 103l91 -103h23l-91 171h-46z" />
    <glyph glyph-name="Idieresis" unicode="&#xcf;" horiz-adv-x="272" 
d="M181 552q0 24 3.5 33.5t22.5 13.5q9 2 17 2.5t14 1.5t9 3.5t3 9.5q0 14 -15 14q-8 0 -32 -4t-67 -4t-67 4t-32 4q-15 0 -15 -14q0 -8 3.5 -10.5t10 -3.5t14.5 -1q9 0 19 -3q15 -5 18.5 -13.5t3.5 -32.5v-458q0 -16 -0.5 -26.5t-3.5 -17t-9.5 -10.5t-18.5 -7q-7 -2 -14 -2
t-12.5 -1t-9 -4t-3.5 -10q0 -16 21 -16q9 0 32.5 3t62.5 3t62.5 -3t32.5 -3q21 0 21 14q0 8 -3.5 11.5t-9.5 4.5t-14 1t-17 3q-10 3 -15.5 7t-8 10.5t-3 16.5t-0.5 26v458zM-4 778q0 -21 14 -35t34 -14t34.5 14t14.5 35q0 20 -14.5 34.5t-34.5 14.5t-34 -14.5t-14 -34.5z
M182 778q0 -21 14 -35t34 -14t34.5 14t14.5 35q0 20 -14.5 34.5t-34.5 14.5t-34 -14.5t-14 -34.5z" />
    <glyph glyph-name="Eth" unicode="&#xd0;" horiz-adv-x="599" 
d="M185 123v198h127v36h-127v197q0 15 2 25.5t10 17.5t23 10.5t41 3.5q46 0 84 -21.5t65.5 -60.5t42.5 -92.5t15 -116.5q0 -68 -15 -122t-43 -91.5t-67 -58t-87 -20.5q-45 0 -58 21.5t-13 73.5zM94 94q0 -16 -0.5 -26.5t-3.5 -17t-9.5 -10.5t-18.5 -7q-7 -2 -14 -2t-12.5 -1
t-9 -4t-3.5 -10q0 -16 22 -16q19 0 40 3.5t44 3.5q26 0 58.5 -5t71.5 -5q75 0 132.5 22.5t97 63.5t60 100t20.5 132q0 72 -21.5 132.5t-61.5 103.5t-97 67t-128 24q-114 0 -175.5 -12.5t-61.5 -32.5q0 -7 3.5 -11t8.5 -4q9 0 18 4.5t20 4.5q13 0 16.5 -8t3.5 -24v-202h-90
v-36h90v-227z" />
    <glyph glyph-name="Ntilde" unicode="&#xd1;" horiz-adv-x="580" 
d="M37 630q-14 0 -14 -14t14 -13.5t32 -4.5q14 -5 17 -14t3 -32v-416q0 -29 -1 -49.5t-5.5 -33t-13.5 -18t-24 -5.5h-9q-19 0 -19 -16q0 -15 24 -15q14 0 29.5 2t34.5 2q21 0 38 -2t31 -2q26 0 26 15q0 16 -14 16q-5 0 -9 -0.5t-9 -0.5q-15 0 -24 4.5t-13.5 16t-5.5 30
t-1 46.5v389q0 11 4 11q1 0 2 -1l329 -536q10 -16 19 -16q6 0 10.5 7.5t4.5 17.5v499q0 55 6 80t32 25h10q10 0 13.5 2.5t3.5 10.5q0 15 -22 15q-11 0 -26 -1.5t-36 -1.5q-22 0 -38.5 1.5t-30.5 1.5q-26 0 -26 -15q0 -6 5 -10t13 -4q21 0 32.5 -2.5t17 -11t7 -24.5t1.5 -43
q0 -5 0.5 -17.5t0.5 -33.5v-274q0 -11 -4 -11q-1 0 -2 1l-268 435q-5 7 -7.5 8.5t-9.5 1.5h-128zM381 848q-6 -22 -13.5 -32t-23.5 -10q-6 0 -21 5l-43 14q-11 4 -25 4q-63 0 -77 -104h20q6 24 13.5 34.5t24.5 10.5q5 0 9.5 -1t9.5 -3l42 -13q17 -5 29 -5q61 0 76 100h-21z
" />
    <glyph glyph-name="Ograve" unicode="&#xd2;" horiz-adv-x="622" 
d="M312 648q-58 0 -109.5 -25.5t-89.5 -70t-60.5 -105.5t-22.5 -132t22.5 -132t60.5 -106t89 -70.5t108 -25.5q58 0 109.5 25.5t90 70.5t60.5 106t22 132t-22.5 132t-60.5 105.5t-89 70t-108 25.5zM306 620q38 0 71.5 -21.5t58.5 -62.5t39.5 -100t14.5 -134
q0 -70 -13.5 -124t-37.5 -91.5t-56 -57t-68 -19.5q-38 0 -71.5 21.5t-58.5 62.5t-39 100.5t-14 134.5q0 70 13.5 124t37 91t55.5 56.5t68 19.5zM267 849q-11 14 -19 21.5t-19 7.5t-19.5 -10t-8.5 -28q0 -19 24 -37l129 -101h26z" />
    <glyph glyph-name="Oacute" unicode="&#xd3;" horiz-adv-x="622" 
d="M312 648q-58 0 -109.5 -25.5t-89.5 -70t-60.5 -105.5t-22.5 -132t22.5 -132t60.5 -106t89 -70.5t108 -25.5q58 0 109.5 25.5t90 70.5t60.5 106t22 132t-22.5 132t-60.5 105.5t-89 70t-108 25.5zM306 620q38 0 71.5 -21.5t58.5 -62.5t39.5 -100t14.5 -134
q0 -70 -13.5 -124t-37.5 -91.5t-56 -57t-68 -19.5q-38 0 -71.5 21.5t-58.5 62.5t-39 100.5t-14 134.5q0 70 13.5 124t37 91t55.5 56.5t68 19.5zM397 803q24 18 24 40q0 16 -8.5 25.5t-19.5 9.5t-19 -7.5t-19 -21.5l-113 -147h26z" />
    <glyph glyph-name="Ocircumflex" unicode="&#xd4;" horiz-adv-x="622" 
d="M312 648q-58 0 -109.5 -25.5t-89.5 -70t-60.5 -105.5t-22.5 -132t22.5 -132t60.5 -106t89 -70.5t108 -25.5q58 0 109.5 25.5t90 70.5t60.5 106t22 132t-22.5 132t-60.5 105.5t-89 70t-108 25.5zM306 620q38 0 71.5 -21.5t58.5 -62.5t39.5 -100t14.5 -134
q0 -70 -13.5 -124t-37.5 -91.5t-56 -57t-68 -19.5q-38 0 -71.5 21.5t-58.5 62.5t-39 100.5t-14 134.5q0 70 13.5 124t37 91t55.5 56.5t68 19.5zM288 873l-91 -171h23l91 103l91 -103h23l-91 171h-46z" />
    <glyph glyph-name="Otilde" unicode="&#xd5;" horiz-adv-x="622" 
d="M312 648q-58 0 -109.5 -25.5t-89.5 -70t-60.5 -105.5t-22.5 -132t22.5 -132t60.5 -106t89 -70.5t108 -25.5q58 0 109.5 25.5t90 70.5t60.5 106t22 132t-22.5 132t-60.5 105.5t-89 70t-108 25.5zM306 620q38 0 71.5 -21.5t58.5 -62.5t39.5 -100t14.5 -134
q0 -70 -13.5 -124t-37.5 -91.5t-56 -57t-68 -19.5q-38 0 -71.5 21.5t-58.5 62.5t-39 100.5t-14 134.5q0 70 13.5 124t37 91t55.5 56.5t68 19.5zM402 848q-6 -22 -13.5 -32t-23.5 -10q-6 0 -21 5l-43 14q-11 4 -25 4q-63 0 -77 -104h20q6 24 13.5 34.5t24.5 10.5q5 0 9.5 -1
t9.5 -3l42 -13q17 -5 29 -5q61 0 76 100h-21z" />
    <glyph glyph-name="Odieresis" unicode="&#xd6;" horiz-adv-x="622" 
d="M312 648q-58 0 -109.5 -25.5t-89.5 -70t-60.5 -105.5t-22.5 -132t22.5 -132t60.5 -106t89 -70.5t108 -25.5q58 0 109.5 25.5t90 70.5t60.5 106t22 132t-22.5 132t-60.5 105.5t-89 70t-108 25.5zM306 620q38 0 71.5 -21.5t58.5 -62.5t39.5 -100t14.5 -134
q0 -70 -13.5 -124t-37.5 -91.5t-56 -57t-68 -19.5q-38 0 -71.5 21.5t-58.5 62.5t-39 100.5t-14 134.5q0 70 13.5 124t37 91t55.5 56.5t68 19.5zM170 778q0 -21 14 -35t34 -14t34.5 14t14.5 35q0 20 -14.5 34.5t-34.5 14.5t-34 -14.5t-14 -34.5zM356 778q0 -21 14 -35t34 -14
t34.5 14t14.5 35q0 20 -14.5 34.5t-34.5 14.5t-34 -14.5t-14 -34.5z" />
    <glyph glyph-name="multiply" unicode="&#xd7;" horiz-adv-x="833" 
d="M186 571l-39 -40l232 -233l-232 -232l39 -40l233 232l232 -232l40 40l-232 232l232 233l-40 40l-232 -233z" />
    <glyph glyph-name="Oslash" unicode="&#xd8;" horiz-adv-x="622" 
d="M492 704l-49 -94q-62 38 -131 38q-58 0 -109.5 -25.5t-89.5 -70t-60.5 -105.5t-22.5 -132q0 -83 28 -149t86 -120l-69 -130h43l57 107q61 -42 135 -42q58 0 109.5 25.5t90 70.5t60.5 106t22 132q0 84 -30.5 152.5t-88.5 119.5l62 117h-43zM418 562l-242 -452
q-29 57 -36 106.5t-7 100.5q0 75 13 131.5t36 95t54 57.5t67 19q34 0 61 -14.5t54 -43.5zM441 527q23 -42 36 -100t13 -127t-13.5 -122.5t-37.5 -91t-56 -57t-68 -19.5q-63 0 -115 61z" />
    <glyph glyph-name="Ugrave" unicode="&#xd9;" horiz-adv-x="562" 
d="M178 552q0 24 3.5 32.5t18.5 13.5q9 3 17 3q9 0 15.5 0.5t10.5 3.5t4 11q0 14 -15 14q-8 0 -32 -4t-67 -4t-67 4t-32 4q-15 0 -15 -14q0 -8 3.5 -10.5t9.5 -3t14.5 -1t18.5 -3.5q16 -5 19 -13t3 -33v-351q0 -46 4.5 -82.5t24.5 -65.5q26 -38 69 -55t107 -17q58 0 99 19.5
t62 55.5q20 34 23.5 74t3.5 92v246q0 37 1 63t5.5 41.5t13 22.5t24.5 7q15 0 22 2.5t7 11.5q0 14 -21 14q-8 0 -25 -1.5t-44 -1.5q-26 0 -42.5 1.5t-25.5 1.5q-17 0 -17 -14q0 -8 6 -10.5t14.5 -3.5t17.5 -2t16 -6q13 -11 15.5 -41.5t2.5 -87.5v-242q0 -52 -3.5 -89
t-21.5 -64q-37 -53 -117 -53q-40 0 -65 12t-39.5 35.5t-20 58t-5.5 80.5v349zM255 849q-11 14 -19 21.5t-19 7.5t-19.5 -10t-8.5 -28q0 -19 24 -37l129 -101h26z" />
    <glyph glyph-name="Uacute" unicode="&#xda;" horiz-adv-x="562" 
d="M178 552q0 24 3.5 32.5t18.5 13.5q9 3 17 3q9 0 15.5 0.5t10.5 3.5t4 11q0 14 -15 14q-8 0 -32 -4t-67 -4t-67 4t-32 4q-15 0 -15 -14q0 -8 3.5 -10.5t9.5 -3t14.5 -1t18.5 -3.5q16 -5 19 -13t3 -33v-351q0 -46 4.5 -82.5t24.5 -65.5q26 -38 69 -55t107 -17q58 0 99 19.5
t62 55.5q20 34 23.5 74t3.5 92v246q0 37 1 63t5.5 41.5t13 22.5t24.5 7q15 0 22 2.5t7 11.5q0 14 -21 14q-8 0 -25 -1.5t-44 -1.5q-26 0 -42.5 1.5t-25.5 1.5q-17 0 -17 -14q0 -8 6 -10.5t14.5 -3.5t17.5 -2t16 -6q13 -11 15.5 -41.5t2.5 -87.5v-242q0 -52 -3.5 -89
t-21.5 -64q-37 -53 -117 -53q-40 0 -65 12t-39.5 35.5t-20 58t-5.5 80.5v349zM385 803q24 18 24 40q0 16 -8.5 25.5t-19.5 9.5t-19 -7.5t-19 -21.5l-113 -147h26z" />
    <glyph glyph-name="Ucircumflex" unicode="&#xdb;" horiz-adv-x="562" 
d="M178 552q0 24 3.5 32.5t18.5 13.5q9 3 17 3q9 0 15.5 0.5t10.5 3.5t4 11q0 14 -15 14q-8 0 -32 -4t-67 -4t-67 4t-32 4q-15 0 -15 -14q0 -8 3.5 -10.5t9.5 -3t14.5 -1t18.5 -3.5q16 -5 19 -13t3 -33v-351q0 -46 4.5 -82.5t24.5 -65.5q26 -38 69 -55t107 -17q58 0 99 19.5
t62 55.5q20 34 23.5 74t3.5 92v246q0 37 1 63t5.5 41.5t13 22.5t24.5 7q15 0 22 2.5t7 11.5q0 14 -21 14q-8 0 -25 -1.5t-44 -1.5q-26 0 -42.5 1.5t-25.5 1.5q-17 0 -17 -14q0 -8 6 -10.5t14.5 -3.5t17.5 -2t16 -6q13 -11 15.5 -41.5t2.5 -87.5v-242q0 -52 -3.5 -89
t-21.5 -64q-37 -53 -117 -53q-40 0 -65 12t-39.5 35.5t-20 58t-5.5 80.5v349zM276 873l-91 -171h23l91 103l91 -103h23l-91 171h-46z" />
    <glyph glyph-name="Udieresis" unicode="&#xdc;" horiz-adv-x="562" 
d="M178 552q0 24 3.5 32.5t18.5 13.5q9 3 17 3q9 0 15.5 0.5t10.5 3.5t4 11q0 14 -15 14q-8 0 -32 -4t-67 -4t-67 4t-32 4q-15 0 -15 -14q0 -8 3.5 -10.5t9.5 -3t14.5 -1t18.5 -3.5q16 -5 19 -13t3 -33v-351q0 -46 4.5 -82.5t24.5 -65.5q26 -38 69 -55t107 -17q58 0 99 19.5
t62 55.5q20 34 23.5 74t3.5 92v246q0 37 1 63t5.5 41.5t13 22.5t24.5 7q15 0 22 2.5t7 11.5q0 14 -21 14q-8 0 -25 -1.5t-44 -1.5q-26 0 -42.5 1.5t-25.5 1.5q-17 0 -17 -14q0 -8 6 -10.5t14.5 -3.5t17.5 -2t16 -6q13 -11 15.5 -41.5t2.5 -87.5v-242q0 -52 -3.5 -89
t-21.5 -64q-37 -53 -117 -53q-40 0 -65 12t-39.5 35.5t-20 58t-5.5 80.5v349zM158 778q0 -21 14 -35t34 -14t34.5 14t14.5 35q0 20 -14.5 34.5t-34.5 14.5t-34 -14.5t-14 -34.5zM344 778q0 -21 14 -35t34 -14t34.5 14t14.5 35q0 20 -14.5 34.5t-34.5 14.5t-34 -14.5
t-14 -34.5z" />
    <glyph glyph-name="Yacute" unicode="&#xdd;" horiz-adv-x="460" 
d="M155 553q-7 13 -7 24t7.5 14.5t17 5.5t17 5t7.5 13q0 13 -12 13q-4 0 -23 -2t-55 -2q-49 0 -79.5 3t-42.5 3q-9 0 -14.5 -5t-5.5 -10q0 -7 4.5 -9t11 -2.5t14 -1.5t14.5 -6q18 -14 54 -79l127 -232q3 -5 5 -12.5t2 -11.5v-167q0 -29 -4 -41.5t-23 -18.5q-8 -3 -16 -3
t-14 -1t-10 -4t-4 -10q0 -16 21 -16q9 0 32.5 3t62.5 3t62.5 -3t32.5 -3q21 0 21 14q0 8 -3 11t-8.5 4.5t-12.5 1.5t-15 2q-22 5 -27 16.5t-5 39.5v190q0 5 2 12t4 12l119 223q15 29 27 46.5t29 23.5q7 3 14 3.5t12 1.5t8.5 4t3.5 11q0 12 -15 12q-3 0 -19 -2t-49 -2
q-26 0 -44.5 3t-28.5 3q-16 0 -16 -12q0 -11 8.5 -13.5t19 -4t19.5 -5.5t9 -17q0 -4 -3 -14t-11 -25l-95 -191q-5 -9 -6 -9q-6 0 -9 7zM317 803q24 18 24 40q0 16 -8.5 25.5t-19.5 9.5t-19 -7.5t-19 -21.5l-113 -147h26z" />
    <glyph glyph-name="Thorn" unicode="&#xde;" horiz-adv-x="431" 
d="M180 552q0 23 4 32.5t21 13.5q18 4 29 4q12 0 12 14q0 15 -17 15q-4 0 -26 -2t-67 -2t-66.5 1.5t-25.5 1.5q-19 0 -19 -14q0 -8 3.5 -10.5t9.5 -3.5t14.5 -1.5t17.5 -3.5q14 -5 17.5 -14t3.5 -31v-451q0 -34 -4 -48.5t-26 -20.5q-7 -2 -14 -2t-12 -1t-8.5 -4t-3.5 -10
q0 -16 20 -16q11 0 33.5 3.5t57.5 3.5q38 0 61.5 -3.5t33.5 -3.5t15.5 4.5t5.5 10.5q0 9 -4 12t-10.5 4t-15.5 1.5t-18 4.5q-14 7 -17 18t-3 37v64q0 10 1.5 14t7.5 4q1 0 7 -2l16 -7q18 -8 33 -13t29 -5q28 0 52.5 13.5t43.5 37t30 55.5t11 70q0 84 -41 133.5t-111 49.5
q-17 0 -31.5 -0.5t-28.5 -0.5q-13 0 -17 5t-4 16v27zM181 234v194q0 26 8 37.5t39 11.5q18 0 34.5 -11t29 -30.5t20 -47t7.5 -61.5q0 -63 -26 -99.5t-60 -36.5q-19 0 -35.5 10.5t-16.5 32.5z" />
    <glyph glyph-name="germandbls" unicode="&#xdf;" horiz-adv-x="464" 
d="M154 441q0 52 2.5 93t11.5 69t26.5 42.5t48.5 14.5q32 0 54 -29.5t22 -80.5q0 -39 -12.5 -61t-47.5 -43q-12 -8 -23 -15t-19 -16.5t-12.5 -22.5t-4.5 -33q0 -24 7 -41.5t19 -32.5t29 -29t37 -32q34 -30 53 -56.5t19 -61.5q0 -39 -20 -62.5t-52 -23.5q-23 0 -34.5 15.5
t-23.5 51.5q-5 15 -7 26.5t-4 19.5t-4.5 12t-7.5 4q-9 0 -11 -20.5t-2 -64.5v-22q0 -12 2 -19t10 -12q15 -11 37.5 -17t45.5 -6q66 0 106.5 42.5t40.5 118.5q0 52 -27 89.5t-76 76.5q-31 24 -51 40t-20 34q0 17 17 27.5t46 22.5q37 15 53.5 38t16.5 72q0 31 -10.5 57.5
t-30 46t-47 31t-60.5 11.5q-36 0 -67 -13t-54 -37t-37 -58t-16 -77l-3 -48q0 -12 -12 -19l-18 -10q-19 -10 -19 -19q0 -5 4.5 -9.5t10.5 -4.5h17q13 0 13 -13v-311q0 -19 -3.5 -28.5t-19.5 -15.5q-7 -3 -14 -3.5t-12 -1.5t-8.5 -4t-3.5 -10q0 -17 19 -17q11 0 25 3.5t34 3.5
q14 0 24.5 -1.5t18.5 -1.5q17 0 20.5 10t3.5 33v398z" />
    <glyph glyph-name="agrave" unicode="&#xe0;" horiz-adv-x="381" 
d="M308 344q0 28 -3 49.5t-13 36t-29.5 22t-51.5 7.5q-39 0 -72.5 -13.5t-58 -34t-38 -45.5t-13.5 -47q0 -8 5.5 -13t13.5 -5q30 0 43.5 17.5t24.5 42.5q14 32 29 49.5t41 17.5t32.5 -19t6.5 -61v-71q0 -11 -1.5 -15.5t-9.5 -8.5l-25 -13q-36 -18 -65.5 -36t-50.5 -38.5
t-32 -45.5t-11 -58q0 -38 19.5 -59.5t51.5 -21.5q28 0 51 15.5t49 37.5l21 18h6q11 -34 28 -51t43 -17q12 0 26.5 8t27 19t21.5 22.5t9 19.5q0 15 -12 15q-9 0 -18 -10t-20 -10q-17 0 -21 16t-4 48v232zM226 213v-79q0 -20 -6.5 -36t-16.5 -27.5t-22 -18t-24 -6.5
q-17 0 -27.5 15t-10.5 44q0 70 59 100l33 16q7 4 10 4q5 0 5 -12zM148 659q-11 14 -19 21.5t-19 7.5t-19.5 -10t-8.5 -28q0 -19 24 -37l129 -101h26z" />
    <glyph glyph-name="aacute" unicode="&#xe1;" horiz-adv-x="381" 
d="M308 344q0 28 -3 49.5t-13 36t-29.5 22t-51.5 7.5q-39 0 -72.5 -13.5t-58 -34t-38 -45.5t-13.5 -47q0 -8 5.5 -13t13.5 -5q30 0 43.5 17.5t24.5 42.5q14 32 29 49.5t41 17.5t32.5 -19t6.5 -61v-71q0 -11 -1.5 -15.5t-9.5 -8.5l-25 -13q-36 -18 -65.5 -36t-50.5 -38.5
t-32 -45.5t-11 -58q0 -38 19.5 -59.5t51.5 -21.5q28 0 51 15.5t49 37.5l21 18h6q11 -34 28 -51t43 -17q12 0 26.5 8t27 19t21.5 22.5t9 19.5q0 15 -12 15q-9 0 -18 -10t-20 -10q-17 0 -21 16t-4 48v232zM226 213v-79q0 -20 -6.5 -36t-16.5 -27.5t-22 -18t-24 -6.5
q-17 0 -27.5 15t-10.5 44q0 70 59 100l33 16q7 4 10 4q5 0 5 -12zM278 613q24 18 24 40q0 16 -8.5 25.5t-19.5 9.5t-19 -7.5t-19 -21.5l-113 -147h26z" />
    <glyph glyph-name="acircumflex" unicode="&#xe2;" horiz-adv-x="381" 
d="M308 344q0 28 -3 49.5t-13 36t-29.5 22t-51.5 7.5q-39 0 -72.5 -13.5t-58 -34t-38 -45.5t-13.5 -47q0 -8 5.5 -13t13.5 -5q30 0 43.5 17.5t24.5 42.5q14 32 29 49.5t41 17.5t32.5 -19t6.5 -61v-71q0 -11 -1.5 -15.5t-9.5 -8.5l-25 -13q-36 -18 -65.5 -36t-50.5 -38.5
t-32 -45.5t-11 -58q0 -38 19.5 -59.5t51.5 -21.5q28 0 51 15.5t49 37.5l21 18h6q11 -34 28 -51t43 -17q12 0 26.5 8t27 19t21.5 22.5t9 19.5q0 15 -12 15q-9 0 -18 -10t-20 -10q-17 0 -21 16t-4 48v232zM226 213v-79q0 -20 -6.5 -36t-16.5 -27.5t-22 -18t-24 -6.5
q-17 0 -27.5 15t-10.5 44q0 70 59 100l33 16q7 4 10 4q5 0 5 -12zM169 683l-91 -171h23l91 103l91 -103h23l-91 171h-46z" />
    <glyph glyph-name="atilde" unicode="&#xe3;" horiz-adv-x="381" 
d="M308 344q0 28 -3 49.5t-13 36t-29.5 22t-51.5 7.5q-39 0 -72.5 -13.5t-58 -34t-38 -45.5t-13.5 -47q0 -8 5.5 -13t13.5 -5q30 0 43.5 17.5t24.5 42.5q14 32 29 49.5t41 17.5t32.5 -19t6.5 -61v-71q0 -11 -1.5 -15.5t-9.5 -8.5l-25 -13q-36 -18 -65.5 -36t-50.5 -38.5
t-32 -45.5t-11 -58q0 -38 19.5 -59.5t51.5 -21.5q28 0 51 15.5t49 37.5l21 18h6q11 -34 28 -51t43 -17q12 0 26.5 8t27 19t21.5 22.5t9 19.5q0 15 -12 15q-9 0 -18 -10t-20 -10q-17 0 -21 16t-4 48v232zM226 213v-79q0 -20 -6.5 -36t-16.5 -27.5t-22 -18t-24 -6.5
q-17 0 -27.5 15t-10.5 44q0 70 59 100l33 16q7 4 10 4q5 0 5 -12zM283 658q-6 -22 -13.5 -32t-23.5 -10q-6 0 -21 5l-43 14q-11 4 -25 4q-63 0 -77 -104h20q6 24 13.5 34.5t24.5 10.5q5 0 9.5 -1t9.5 -3l42 -13q17 -5 29 -5q61 0 76 100h-21z" />
    <glyph glyph-name="adieresis" unicode="&#xe4;" horiz-adv-x="381" 
d="M308 344q0 28 -3 49.5t-13 36t-29.5 22t-51.5 7.5q-39 0 -72.5 -13.5t-58 -34t-38 -45.5t-13.5 -47q0 -8 5.5 -13t13.5 -5q30 0 43.5 17.5t24.5 42.5q14 32 29 49.5t41 17.5t32.5 -19t6.5 -61v-71q0 -11 -1.5 -15.5t-9.5 -8.5l-25 -13q-36 -18 -65.5 -36t-50.5 -38.5
t-32 -45.5t-11 -58q0 -38 19.5 -59.5t51.5 -21.5q28 0 51 15.5t49 37.5l21 18h6q11 -34 28 -51t43 -17q12 0 26.5 8t27 19t21.5 22.5t9 19.5q0 15 -12 15q-9 0 -18 -10t-20 -10q-17 0 -21 16t-4 48v232zM226 213v-79q0 -20 -6.5 -36t-16.5 -27.5t-22 -18t-24 -6.5
q-17 0 -27.5 15t-10.5 44q0 70 59 100l33 16q7 4 10 4q5 0 5 -12zM51 588q0 -21 14 -35t34 -14t34.5 14t14.5 35q0 20 -14.5 34.5t-34.5 14.5t-34 -14.5t-14 -34.5zM237 588q0 -21 14 -35t34 -14t34.5 14t14.5 35q0 20 -14.5 34.5t-34.5 14.5t-34 -14.5t-14 -34.5z" />
    <glyph glyph-name="aring" unicode="&#xe5;" horiz-adv-x="381" 
d="M308 344q0 28 -3 49.5t-13 36t-29.5 22t-51.5 7.5q-39 0 -72.5 -13.5t-58 -34t-38 -45.5t-13.5 -47q0 -8 5.5 -13t13.5 -5q30 0 43.5 17.5t24.5 42.5q14 32 29 49.5t41 17.5t32.5 -19t6.5 -61v-71q0 -11 -1.5 -15.5t-9.5 -8.5l-25 -13q-36 -18 -65.5 -36t-50.5 -38.5
t-32 -45.5t-11 -58q0 -38 19.5 -59.5t51.5 -21.5q28 0 51 15.5t49 37.5l21 18h6q11 -34 28 -51t43 -17q12 0 26.5 8t27 19t21.5 22.5t9 19.5q0 15 -12 15q-9 0 -18 -10t-20 -10q-17 0 -21 16t-4 48v232zM226 213v-79q0 -20 -6.5 -36t-16.5 -27.5t-22 -18t-24 -6.5
q-17 0 -27.5 15t-10.5 44q0 70 59 100l33 16q7 4 10 4q5 0 5 -12zM185 726q-24 0 -45.5 -9t-37.5 -25t-25 -37.5t-9 -45.5t9 -45.5t25 -37.5t37.5 -25.5t45.5 -9.5q25 0 46.5 9t37.5 25t25 37.5t9 46.5q0 24 -9 45.5t-25 37.5t-37.5 25t-46.5 9zM185 682q30 0 51.5 -21.5
t21.5 -51.5t-21.5 -51.5t-51.5 -21.5t-51 21t-21 52q0 30 21 51.5t51 21.5z" />
    <glyph glyph-name="ae" unicode="&#xe6;" horiz-adv-x="572" 
d="M250 430q-32 29 -76 29q-31 0 -59.5 -13t-50 -32.5t-34.5 -42.5t-13 -44q0 -26 19 -26q16 0 27 5t19 13t13.5 18.5t10.5 21.5q14 31 29 50t44 19q26 0 33 -19t7 -61v-66q0 -13 -2 -21t-11 -13l-26 -15q-41 -23 -71 -42.5t-50 -39t-30 -41t-10 -48.5q0 -39 20 -60t61 -21
q38 0 78 15.5t85 44.5h9q20 -29 50.5 -44.5t66.5 -15.5q32 0 60.5 12.5t49.5 29.5t33 35t12 30q0 11 -8 11q-2 0 -9.5 -9t-20.5 -20t-32.5 -20t-46.5 -9q-60 0 -97 54t-37 147v24q0 9 1.5 12.5t9.5 3.5h210q17 0 24.5 4.5t7.5 17.5q0 31 -10.5 59t-31 49t-50 33.5
t-68.5 12.5q-25 0 -49 -9t-41 -23l-13 -10q-6 -6 -10 -6l-10 8zM373 313h-62q-11 0 -11 9v2l3 16q3 19 11 36t20 30t27 21t33 8q29 0 48.5 -21t19.5 -46q0 -33 -21 -44t-68 -11zM220 201v-83q0 -47 -14 -71t-49 -24q-25 0 -38.5 19t-13.5 54q0 33 16.5 56.5t51.5 42.5l29 16
q9 5 12 5q6 0 6 -15z" />
    <glyph glyph-name="ccedilla" unicode="&#xe7;" horiz-adv-x="368" 
d="M227 458q-44 0 -81 -17t-64 -48.5t-42.5 -76t-15.5 -100.5q0 -54 14 -97.5t39 -74t59 -47t74 -16.5q30 0 56 10t44.5 23.5t29 28t10.5 23.5q0 13 -13 13q-3 0 -9.5 -6.5t-17 -14.5t-26 -14.5t-34.5 -6.5q-30 0 -55 13.5t-43.5 39t-29 62.5t-10.5 84q0 46 9.5 82
t24.5 61.5t34 39t37 13.5q14 0 23.5 -6.5t17.5 -17.5t15 -27.5t16 -35.5q13 -29 27 -29q12 0 19.5 21.5t7.5 59.5q0 13 -9.5 24t-25 19t-36.5 13t-45 5zM185 0v-93q9 2 15 3t10 1q21 0 32.5 -12t11.5 -32q0 -45 -48 -45q-14 0 -37.5 8t-49.5 27l-14 -38q33 -17 60.5 -27
t54.5 -10q41 0 63 23t22 63q0 37 -18.5 58.5t-49.5 21.5q-9 0 -27 -3v55h-25z" />
    <glyph glyph-name="egrave" unicode="&#xe8;" horiz-adv-x="407" 
d="M197 313h-65q-12 0 -12 9v2l3 16q8 41 34 68t61 27q32 0 52.5 -21t20.5 -46q0 -33 -22.5 -44t-71.5 -11zM345 282q18 0 26 4t8 17q0 32 -11.5 60t-32.5 49t-51 33.5t-66 12.5q-42 0 -77.5 -17t-61.5 -48t-40.5 -75.5t-14.5 -99.5t13 -99t37 -75t57.5 -47.5t74.5 -16.5
q39 0 70 13t53.5 30.5t34.5 35.5t12 29t-8 11q-3 0 -10.5 -9t-21 -20t-34 -20t-48.5 -9q-63 0 -102.5 54t-39.5 147v24q0 10 2 13t10 3h221zM161 659q-11 14 -19 21.5t-19 7.5t-19.5 -10t-8.5 -28q0 -19 24 -37l129 -101h26z" />
    <glyph glyph-name="eacute" unicode="&#xe9;" horiz-adv-x="407" 
d="M197 313h-65q-12 0 -12 9v2l3 16q8 41 34 68t61 27q32 0 52.5 -21t20.5 -46q0 -33 -22.5 -44t-71.5 -11zM345 282q18 0 26 4t8 17q0 32 -11.5 60t-32.5 49t-51 33.5t-66 12.5q-42 0 -77.5 -17t-61.5 -48t-40.5 -75.5t-14.5 -99.5t13 -99t37 -75t57.5 -47.5t74.5 -16.5
q39 0 70 13t53.5 30.5t34.5 35.5t12 29t-8 11q-3 0 -10.5 -9t-21 -20t-34 -20t-48.5 -9q-63 0 -102.5 54t-39.5 147v24q0 10 2 13t10 3h221zM291 613q24 18 24 40q0 16 -8.5 25.5t-19.5 9.5t-19 -7.5t-19 -21.5l-113 -147h26z" />
    <glyph glyph-name="ecircumflex" unicode="&#xea;" horiz-adv-x="407" 
d="M197 313h-65q-12 0 -12 9v2l3 16q8 41 34 68t61 27q32 0 52.5 -21t20.5 -46q0 -33 -22.5 -44t-71.5 -11zM345 282q18 0 26 4t8 17q0 32 -11.5 60t-32.5 49t-51 33.5t-66 12.5q-42 0 -77.5 -17t-61.5 -48t-40.5 -75.5t-14.5 -99.5t13 -99t37 -75t57.5 -47.5t74.5 -16.5
q39 0 70 13t53.5 30.5t34.5 35.5t12 29t-8 11q-3 0 -10.5 -9t-21 -20t-34 -20t-48.5 -9q-63 0 -102.5 54t-39.5 147v24q0 10 2 13t10 3h221zM182 683l-91 -171h23l91 103l91 -103h23l-91 171h-46z" />
    <glyph glyph-name="edieresis" unicode="&#xeb;" horiz-adv-x="407" 
d="M197 313h-65q-12 0 -12 9v2l3 16q8 41 34 68t61 27q32 0 52.5 -21t20.5 -46q0 -33 -22.5 -44t-71.5 -11zM345 282q18 0 26 4t8 17q0 32 -11.5 60t-32.5 49t-51 33.5t-66 12.5q-42 0 -77.5 -17t-61.5 -48t-40.5 -75.5t-14.5 -99.5t13 -99t37 -75t57.5 -47.5t74.5 -16.5
q39 0 70 13t53.5 30.5t34.5 35.5t12 29t-8 11q-3 0 -10.5 -9t-21 -20t-34 -20t-48.5 -9q-63 0 -102.5 54t-39.5 147v24q0 10 2 13t10 3h221zM64 588q0 -21 14 -35t34 -14t34.5 14t14.5 35q0 20 -14.5 34.5t-34.5 14.5t-34 -14.5t-14 -34.5zM250 588q0 -21 14 -35t34 -14
t34.5 14t14.5 35q0 20 -14.5 34.5t-34.5 14.5t-34 -14.5t-14 -34.5z" />
    <glyph glyph-name="igrave" unicode="&#xec;" horiz-adv-x="221" 
d="M154 440q0 21 -10 21q-4 0 -8.5 -4.5l-11.5 -11.5t-17.5 -16t-25.5 -18q-25 -14 -38.5 -21t-13.5 -18q0 -10 6.5 -10.5t14.5 -3t14.5 -11.5t6.5 -36v-236q0 -20 -3 -28.5t-14 -14.5q-6 -3 -11 -3.5t-9.5 -1.5t-7 -4t-2.5 -10q0 -17 15 -17q11 0 29 3.5t44 3.5
q24 0 45 -3.5t36 -3.5q18 0 18 16q0 7 -3.5 10t-9 4.5t-13 2.5t-15.5 5q-9 5 -12.5 14t-3.5 27v365zM68 659q-11 14 -19 21.5t-19 7.5t-19.5 -10t-8.5 -28q0 -19 24 -37l129 -101h26z" />
    <glyph glyph-name="iacute" unicode="&#xed;" horiz-adv-x="221" 
d="M154 440q0 21 -10 21q-4 0 -8.5 -4.5l-11.5 -11.5t-17.5 -16t-25.5 -18q-25 -14 -38.5 -21t-13.5 -18q0 -10 6.5 -10.5t14.5 -3t14.5 -11.5t6.5 -36v-236q0 -20 -3 -28.5t-14 -14.5q-6 -3 -11 -3.5t-9.5 -1.5t-7 -4t-2.5 -10q0 -17 15 -17q11 0 29 3.5t44 3.5
q24 0 45 -3.5t36 -3.5q18 0 18 16q0 7 -3.5 10t-9 4.5t-13 2.5t-15.5 5q-9 5 -12.5 14t-3.5 27v365zM198 613q24 18 24 40q0 16 -8.5 25.5t-19.5 9.5t-19 -7.5t-19 -21.5l-113 -147h26z" />
    <glyph glyph-name="icircumflex" unicode="&#xee;" horiz-adv-x="221" 
d="M154 440q0 21 -10 21q-4 0 -8.5 -4.5l-11.5 -11.5t-17.5 -16t-25.5 -18q-25 -14 -38.5 -21t-13.5 -18q0 -10 6.5 -10.5t14.5 -3t14.5 -11.5t6.5 -36v-236q0 -20 -3 -28.5t-14 -14.5q-6 -3 -11 -3.5t-9.5 -1.5t-7 -4t-2.5 -10q0 -17 15 -17q11 0 29 3.5t44 3.5
q24 0 45 -3.5t36 -3.5q18 0 18 16q0 7 -3.5 10t-9 4.5t-13 2.5t-15.5 5q-9 5 -12.5 14t-3.5 27v365zM89 683l-91 -171h23l91 103l91 -103h23l-91 171h-46z" />
    <glyph glyph-name="idieresis" unicode="&#xef;" horiz-adv-x="221" 
d="M154 440q0 21 -10 21q-4 0 -8.5 -4.5l-11.5 -11.5t-17.5 -16t-25.5 -18q-25 -14 -38.5 -21t-13.5 -18q0 -10 6.5 -10.5t14.5 -3t14.5 -11.5t6.5 -36v-236q0 -20 -3 -28.5t-14 -14.5q-6 -3 -11 -3.5t-9.5 -1.5t-7 -4t-2.5 -10q0 -17 15 -17q11 0 29 3.5t44 3.5
q24 0 45 -3.5t36 -3.5q18 0 18 16q0 7 -3.5 10t-9 4.5t-13 2.5t-15.5 5q-9 5 -12.5 14t-3.5 27v365zM-29 588q0 -21 14 -35t34 -14t34.5 14t14.5 35q0 20 -14.5 34.5t-34.5 14.5t-34 -14.5t-14 -34.5zM157 588q0 -21 14 -35t34 -14t34.5 14t14.5 35q0 20 -14.5 34.5
t-34.5 14.5t-34 -14.5t-14 -34.5z" />
    <glyph glyph-name="eth" unicode="&#xf0;" horiz-adv-x="465" 
d="M250 597q-95 77 -113 77q-10 0 -10 -9q0 -8 25.5 -26t66.5 -62l-119 -74q-7 -5 -11.5 -7.5t-4.5 -10.5q0 -13 14 -13q-1 0 11 7l126 78q29 -42 47 -74.5t25 -58.5q-41 15 -79 15q-44 0 -81.5 -16.5t-65.5 -46.5t-43.5 -72t-15.5 -93q0 -50 14.5 -92t41.5 -73t64.5 -48
t82.5 -17q101 0 159.5 63t58.5 174q0 51 -10 97t-31.5 89t-54.5 85.5t-78 87.5l104 66q7 5 11.5 8t4.5 10q0 12 -13 12q-3 0 -12 -6zM232 412q54 0 87.5 -57t33.5 -160q0 -88 -32 -137t-87 -49q-54 0 -87.5 56.5t-33.5 159.5q0 88 31.5 137.5t87.5 49.5z" />
    <glyph glyph-name="ntilde" unicode="&#xf1;" horiz-adv-x="476" 
d="M153 439q0 11 -3 16t-6 5q-9 0 -21 -16t-41 -33q-25 -15 -38 -22.5t-13 -17.5t6.5 -10.5t14.5 -2.5t14.5 -11t6.5 -36v-236q0 -20 -3 -29t-14 -14q-6 -3 -11.5 -3.5t-9.5 -1.5t-6.5 -4t-2.5 -10q0 -17 16 -17q11 0 29 3.5t44 3.5q25 0 45 -3.5t34 -3.5q18 0 18 15
q0 9 -3 12t-8.5 4t-12.5 1.5t-16 5.5q-10 5 -12.5 14.5t-2.5 26.5v217q0 54 24 80t62 26q41 0 63 -30.5t22 -90.5v-202q0 -18 -2 -27.5t-14 -15.5q-6 -3 -11.5 -3.5t-10 -1.5t-7 -4t-2.5 -10q0 -17 16 -17q10 0 28.5 3.5t44.5 3.5t46 -3.5t34 -3.5q18 0 18 16q0 8 -3.5 11
t-9.5 4t-13.5 2t-14.5 5q-15 10 -15 41v215q0 83 -34.5 125.5t-96.5 42.5q-30 0 -57.5 -14t-48.5 -40l-11 -13q-5 -6 -8 -6t-3 13v41zM330 658q-6 -22 -13.5 -32t-23.5 -10q-6 0 -21 5l-43 14q-11 4 -25 4q-63 0 -77 -104h20q6 24 13.5 34.5t24.5 10.5q5 0 9.5 -1t9.5 -3
l42 -13q17 -5 29 -5q61 0 76 100h-21z" />
    <glyph glyph-name="ograve" unicode="&#xf2;" horiz-adv-x="465" 
d="M24 220q0 -53 14.5 -97t41 -75.5t63.5 -49t82 -17.5q50 0 90 17t67.5 48t42.5 75t15 97q0 54 -14.5 98t-41 75.5t-64.5 49t-84 17.5q-48 0 -87 -17t-67 -48t-43 -75t-15 -98zM232 430q53 0 86.5 -59.5t33.5 -165.5q0 -93 -31.5 -144.5t-86.5 -51.5q-54 0 -87.5 59.5
t-33.5 165.5q0 94 31 145t88 51zM190 659q-11 14 -19 21.5t-19 7.5t-19.5 -10t-8.5 -28q0 -19 24 -37l129 -101h26z" />
    <glyph glyph-name="oacute" unicode="&#xf3;" horiz-adv-x="465" 
d="M24 220q0 -53 14.5 -97t41 -75.5t63.5 -49t82 -17.5q50 0 90 17t67.5 48t42.5 75t15 97q0 54 -14.5 98t-41 75.5t-64.5 49t-84 17.5q-48 0 -87 -17t-67 -48t-43 -75t-15 -98zM232 430q53 0 86.5 -59.5t33.5 -165.5q0 -93 -31.5 -144.5t-86.5 -51.5q-54 0 -87.5 59.5
t-33.5 165.5q0 94 31 145t88 51zM320 613q24 18 24 40q0 16 -8.5 25.5t-19.5 9.5t-19 -7.5t-19 -21.5l-113 -147h26z" />
    <glyph glyph-name="ocircumflex" unicode="&#xf4;" horiz-adv-x="465" 
d="M24 220q0 -53 14.5 -97t41 -75.5t63.5 -49t82 -17.5q50 0 90 17t67.5 48t42.5 75t15 97q0 54 -14.5 98t-41 75.5t-64.5 49t-84 17.5q-48 0 -87 -17t-67 -48t-43 -75t-15 -98zM232 430q53 0 86.5 -59.5t33.5 -165.5q0 -93 -31.5 -144.5t-86.5 -51.5q-54 0 -87.5 59.5
t-33.5 165.5q0 94 31 145t88 51zM211 683l-91 -171h23l91 103l91 -103h23l-91 171h-46z" />
    <glyph glyph-name="otilde" unicode="&#xf5;" horiz-adv-x="465" 
d="M24 220q0 -53 14.5 -97t41 -75.5t63.5 -49t82 -17.5q50 0 90 17t67.5 48t42.5 75t15 97q0 54 -14.5 98t-41 75.5t-64.5 49t-84 17.5q-48 0 -87 -17t-67 -48t-43 -75t-15 -98zM232 430q53 0 86.5 -59.5t33.5 -165.5q0 -93 -31.5 -144.5t-86.5 -51.5q-54 0 -87.5 59.5
t-33.5 165.5q0 94 31 145t88 51zM325 658q-6 -22 -13.5 -32t-23.5 -10q-6 0 -21 5l-43 14q-11 4 -25 4q-63 0 -77 -104h20q6 24 13.5 34.5t24.5 10.5q5 0 9.5 -1t9.5 -3l42 -13q17 -5 29 -5q61 0 76 100h-21z" />
    <glyph glyph-name="odieresis" unicode="&#xf6;" horiz-adv-x="465" 
d="M24 220q0 -53 14.5 -97t41 -75.5t63.5 -49t82 -17.5q50 0 90 17t67.5 48t42.5 75t15 97q0 54 -14.5 98t-41 75.5t-64.5 49t-84 17.5q-48 0 -87 -17t-67 -48t-43 -75t-15 -98zM232 430q53 0 86.5 -59.5t33.5 -165.5q0 -93 -31.5 -144.5t-86.5 -51.5q-54 0 -87.5 59.5
t-33.5 165.5q0 94 31 145t88 51zM93 588q0 -21 14 -35t34 -14t34.5 14t14.5 35q0 20 -14.5 34.5t-34.5 14.5t-34 -14.5t-14 -34.5zM279 588q0 -21 14 -35t34 -14t34.5 14t14.5 35q0 20 -14.5 34.5t-34.5 14.5t-34 -14.5t-14 -34.5z" />
    <glyph glyph-name="divide" unicode="&#xf7;" horiz-adv-x="833" 
d="M417 530q-23 0 -39.5 -16.5t-16.5 -39.5t16 -39.5t40 -16.5t40 16.5t16 39.5t-16.5 39.5t-39.5 16.5zM124 327v-57h585v57h-585zM417 178q-23 0 -39.5 -16t-16.5 -40q0 -23 16.5 -39.5t39.5 -16.5q24 0 40 16.5t16 39.5t-16.5 39.5t-39.5 16.5z" />
    <glyph glyph-name="oslash" unicode="&#xf8;" horiz-adv-x="465" 
d="M375 532l-48 -93q-46 20 -90 20q-48 0 -87.5 -17t-67.5 -48t-43 -76t-15 -100q0 -124 81 -196l-65 -124h42l55 104q34 -21 88 -21q100 0 157 64t57 181q0 122 -81 194l60 112h-43zM302 393l-163 -308q-15 35 -20.5 70.5t-5.5 75.5q0 96 32 148t86 52q45 0 71 -38z
M325 357q14 -35 20.5 -73t6.5 -80q0 -92 -31.5 -143.5t-87.5 -51.5q-49 0 -71 39z" />
    <glyph glyph-name="ugrave" unicode="&#xf9;" horiz-adv-x="476" 
d="M149 424q0 9 -2.5 13t-12.5 4q-5 0 -14 -1.5t-22 -1.5q-23 0 -40.5 3.5t-30.5 3.5q-18 0 -18 -16q0 -11 8.5 -13t19 -5t19.5 -12t9 -33v-232q0 -69 36 -109.5t96 -40.5q30 0 58 14t48 39l10 13q5 7 9 7q3 0 3 -14v-41q0 -21 12 -21q10 0 74 22q18 6 28 11t10 15t-7 10.5
t-15.5 2.5t-15.5 10.5t-7 34.5v337q0 9 -2.5 13t-12.5 4q-5 0 -13.5 -1t-22.5 -1q-26 0 -43.5 3.5t-27.5 3.5q-17 0 -17 -17q0 -8 3.5 -10.5t9 -4t13 -3t15.5 -6.5q9 -6 12 -14t3 -25v-217q0 -54 -24.5 -80t-63.5 -26t-61.5 30.5t-22.5 84.5v266zM195 659q-11 14 -19 21.5
t-19 7.5t-19.5 -10t-8.5 -28q0 -19 24 -37l129 -101h26z" />
    <glyph glyph-name="uacute" unicode="&#xfa;" horiz-adv-x="476" 
d="M149 424q0 9 -2.5 13t-12.5 4q-5 0 -14 -1.5t-22 -1.5q-23 0 -40.5 3.5t-30.5 3.5q-18 0 -18 -16q0 -11 8.5 -13t19 -5t19.5 -12t9 -33v-232q0 -69 36 -109.5t96 -40.5q30 0 58 14t48 39l10 13q5 7 9 7q3 0 3 -14v-41q0 -21 12 -21q10 0 74 22q18 6 28 11t10 15t-7 10.5
t-15.5 2.5t-15.5 10.5t-7 34.5v337q0 9 -2.5 13t-12.5 4q-5 0 -13.5 -1t-22.5 -1q-26 0 -43.5 3.5t-27.5 3.5q-17 0 -17 -17q0 -8 3.5 -10.5t9 -4t13 -3t15.5 -6.5q9 -6 12 -14t3 -25v-217q0 -54 -24.5 -80t-63.5 -26t-61.5 30.5t-22.5 84.5v266zM325 613q24 18 24 40
q0 16 -8.5 25.5t-19.5 9.5t-19 -7.5t-19 -21.5l-113 -147h26z" />
    <glyph glyph-name="ucircumflex" unicode="&#xfb;" horiz-adv-x="476" 
d="M149 424q0 9 -2.5 13t-12.5 4q-5 0 -14 -1.5t-22 -1.5q-23 0 -40.5 3.5t-30.5 3.5q-18 0 -18 -16q0 -11 8.5 -13t19 -5t19.5 -12t9 -33v-232q0 -69 36 -109.5t96 -40.5q30 0 58 14t48 39l10 13q5 7 9 7q3 0 3 -14v-41q0 -21 12 -21q10 0 74 22q18 6 28 11t10 15t-7 10.5
t-15.5 2.5t-15.5 10.5t-7 34.5v337q0 9 -2.5 13t-12.5 4q-5 0 -13.5 -1t-22.5 -1q-26 0 -43.5 3.5t-27.5 3.5q-17 0 -17 -17q0 -8 3.5 -10.5t9 -4t13 -3t15.5 -6.5q9 -6 12 -14t3 -25v-217q0 -54 -24.5 -80t-63.5 -26t-61.5 30.5t-22.5 84.5v266zM216 683l-91 -171h23
l91 103l91 -103h23l-91 171h-46z" />
    <glyph glyph-name="udieresis" unicode="&#xfc;" horiz-adv-x="476" 
d="M149 424q0 9 -2.5 13t-12.5 4q-5 0 -14 -1.5t-22 -1.5q-23 0 -40.5 3.5t-30.5 3.5q-18 0 -18 -16q0 -11 8.5 -13t19 -5t19.5 -12t9 -33v-232q0 -69 36 -109.5t96 -40.5q30 0 58 14t48 39l10 13q5 7 9 7q3 0 3 -14v-41q0 -21 12 -21q10 0 74 22q18 6 28 11t10 15t-7 10.5
t-15.5 2.5t-15.5 10.5t-7 34.5v337q0 9 -2.5 13t-12.5 4q-5 0 -13.5 -1t-22.5 -1q-26 0 -43.5 3.5t-27.5 3.5q-17 0 -17 -17q0 -8 3.5 -10.5t9 -4t13 -3t15.5 -6.5q9 -6 12 -14t3 -25v-217q0 -54 -24.5 -80t-63.5 -26t-61.5 30.5t-22.5 84.5v266zM98 588q0 -21 14 -35
t34 -14t34.5 14t14.5 35q0 20 -14.5 34.5t-34.5 14.5t-34 -14.5t-14 -34.5zM284 588q0 -21 14 -35t34 -14t34.5 14t14.5 35q0 20 -14.5 34.5t-34.5 14.5t-34 -14.5t-14 -34.5z" />
    <glyph glyph-name="yacute" unicode="&#xfd;" horiz-adv-x="369" 
d="M325 360q10 28 22 38t21.5 13t16 4.5t6.5 12.5q0 8 -1 10t-9 2t-24 -1.5t-40 -1.5q-28 0 -45 1.5t-25 1.5q-7 0 -9.5 -1.5t-2.5 -9.5q0 -11 8.5 -14.5t19 -6t19.5 -7.5t9 -19q0 -4 -3 -21t-10 -37l-61 -171q-5 -12 -8 -12q-4 0 -8 12l-56 178q-8 23 -10 39t-2 22
q0 9 7.5 12t16.5 5.5t16.5 6t7.5 13.5q0 11 -12 11q-4 0 -24 -2t-58 -2t-61 2t-31 2q-9 0 -13 -2t-4 -10q0 -7 3.5 -10t9 -5t12.5 -4t14 -7q13 -9 23.5 -32t22.5 -60l82 -251q8 -26 11.5 -43t3.5 -22q0 -13 -7 -31l-21 -58q-9 -25 -18.5 -29.5t-24.5 -4.5h-4
q-28 0 -36.5 -12.5t-8.5 -42.5q0 -36 38 -36q18 0 28.5 3t17 10.5t10.5 19t9 29.5q8 24 30.5 98.5t69.5 199.5zM272 613q24 18 24 40q0 16 -8.5 25.5t-19.5 9.5t-19 -7.5t-19 -21.5l-113 -147h26z" />
    <glyph glyph-name="thorn" unicode="&#xfe;" horiz-adv-x="478" 
d="M154 607q0 21 1.5 37.5t1.5 30.5q0 10 -2 14.5t-10 4.5q-5 0 -20.5 -11.5t-53.5 -25.5q-17 -6 -30 -9.5t-13 -14.5q0 -6 6.5 -9t15 -6t15 -9t6.5 -19q0 -2 0.5 -5.5t0.5 -9.5v-716q0 -20 -4.5 -29t-17.5 -14q-15 -6 -26 -6t-11 -14q0 -16 18 -16q14 0 34 3t46 3t48.5 -3
t42.5 -3q21 0 21 14q0 9 -4 12t-10.5 4t-16 2t-19.5 6q-12 5 -15.5 14t-3.5 27v142l6 3q40 -23 87 -23q45 0 82 18.5t64 52t42 79.5t15 102q0 51 -13 93t-35 71t-52 45t-63 16q-32 0 -59 -13.5t-53 -43.5l-10 -12q-5 -5 -8 -5t-3 7v216zM155 105v186q0 99 80 99
q57 0 94.5 -49t37.5 -138q0 -42 -9.5 -77.5t-27 -61t-41.5 -39.5t-53 -14q-38 0 -59.5 23t-21.5 71z" />
    <glyph glyph-name="ydieresis" unicode="&#xff;" horiz-adv-x="369" 
d="M325 360q10 28 22 38t21.5 13t16 4.5t6.5 12.5q0 8 -1 10t-9 2t-24 -1.5t-40 -1.5q-28 0 -45 1.5t-25 1.5q-7 0 -9.5 -1.5t-2.5 -9.5q0 -11 8.5 -14.5t19 -6t19.5 -7.5t9 -19q0 -4 -3 -21t-10 -37l-61 -171q-5 -12 -8 -12q-4 0 -8 12l-56 178q-8 23 -10 39t-2 22
q0 9 7.5 12t16.5 5.5t16.5 6t7.5 13.5q0 11 -12 11q-4 0 -24 -2t-58 -2t-61 2t-31 2q-9 0 -13 -2t-4 -10q0 -7 3.5 -10t9 -5t12.5 -4t14 -7q13 -9 23.5 -32t22.5 -60l82 -251q8 -26 11.5 -43t3.5 -22q0 -13 -7 -31l-21 -58q-9 -25 -18.5 -29.5t-24.5 -4.5h-4
q-28 0 -36.5 -12.5t-8.5 -42.5q0 -36 38 -36q18 0 28.5 3t17 10.5t10.5 19t9 29.5q8 24 30.5 98.5t69.5 199.5zM45 588q0 -21 14 -35t34 -14t34.5 14t14.5 35q0 20 -14.5 34.5t-34.5 14.5t-34 -14.5t-14 -34.5zM231 588q0 -21 14 -35t34 -14t34.5 14t14.5 35
q0 20 -14.5 34.5t-34.5 14.5t-34 -14.5t-14 -34.5z" />
    <glyph glyph-name="dotlessi" unicode="&#x131;" horiz-adv-x="221" 
d="M154 440q0 21 -10 21q-4 0 -8.5 -4.5l-11.5 -11.5t-17.5 -16t-25.5 -18q-25 -14 -38.5 -21t-13.5 -18q0 -10 6.5 -10.5t14.5 -3t14.5 -11.5t6.5 -36v-236q0 -20 -3 -28.5t-14 -14.5q-6 -3 -11 -3.5t-9.5 -1.5t-7 -4t-2.5 -10q0 -17 15 -17q11 0 29 3.5t44 3.5
q24 0 45 -3.5t36 -3.5q18 0 18 16q0 7 -3.5 10t-9 4.5t-13 2.5t-15.5 5q-9 5 -12.5 14t-3.5 27v365z" />
    <glyph glyph-name="Lslash" unicode="&#x141;" horiz-adv-x="416" 
d="M185 552q0 24 3.5 33.5t22.5 13.5q9 2 17 2.5t14 1.5t9 3.5t3 9.5q0 14 -15 14q-8 0 -32.5 -4t-69.5 -4q-41 0 -62.5 4t-29.5 4q-14 0 -14 -14q0 -8 3.5 -10.5t9.5 -3t14 -1t17 -3.5q14 -5 16.5 -14t2.5 -32v-242l-90 -80v-43l90 79v-172q0 -16 -0.5 -26.5t-3.5 -17
t-9.5 -10.5t-18.5 -7q-7 -2 -14 -2t-12.5 -1t-9 -4t-3.5 -10q0 -16 22 -16q9 0 32.5 3t62.5 3q89 0 148.5 -4.5t91.5 -4.5q20 0 20 17q0 2 0.5 6t1.5 11l10 94q1 8 1.5 12.5t0.5 5.5q0 2 -3 5t-6 3q-8 0 -19 -18.5t-34 -48.5q-21 -28 -45.5 -41.5t-56.5 -13.5q-65 0 -65 65
v233l110 95v45l-110 -96v181z" />
    <glyph glyph-name="lslash" unicode="&#x142;" horiz-adv-x="233" 
d="M158 607q0 23 1.5 39.5t1.5 28.5q0 9 -2 14t-10 5q-5 0 -22 -11.5t-52 -24.5q-17 -6 -30.5 -10t-13.5 -15q0 -6 6.5 -9t15 -6t15 -9t6.5 -19v-248l-70 -61v-39l70 61v-227q0 -18 -2.5 -27.5t-18.5 -15.5t-26 -6.5t-10 -13.5q0 -16 18 -16q13 0 33 3t48 3q25 0 47 -3
t39 -3q20 0 20 14q0 9 -4 12t-10.5 4t-14.5 2t-16 5q-11 6 -15 16t-4 26v287l72 63v38l-72 -62v205z" />
    <glyph glyph-name="OE" unicode="&#x152;" horiz-adv-x="787" 
d="M749 596v8q0 14 -3.5 20t-22.5 6q-11 0 -58 -2t-132 -2q-61 0 -114 8t-99 8q-64 0 -117.5 -25t-92.5 -69.5t-60.5 -104t-21.5 -128.5q0 -70 22 -129.5t60.5 -103.5t89.5 -69t108 -25q4 0 23 2.5t53.5 5t86 5t121.5 2.5q45 0 77.5 -3t53.5 -3q20 0 24 5.5t6 29.5l10 97
q1 8 1 13v5q0 2 -3 5.5t-5 3.5q-11 0 -19.5 -20.5t-25.5 -49.5q-21 -36 -47 -46t-69 -10q-22 0 -35 3t-19.5 10t-8.5 19.5t-2 31.5v206q0 11 2.5 14.5t12.5 3.5h42q29 0 47 -5.5t30 -28.5q7 -14 10.5 -26.5t6 -22t5.5 -15t9 -5.5q11 0 11 18q0 7 -1.5 29.5t-1.5 63.5
q0 37 3 58t3 29q0 18 -12 18q-7 0 -9.5 -6t-4.5 -15.5t-5.5 -20t-12.5 -19.5q-7 -7 -28.5 -12.5t-49.5 -5.5h-42q-11 0 -13 2.5t-2 9.5v173q0 17 1 29t5.5 19t15 10t28.5 3q75 0 113 -38q13 -13 19 -26.5t10 -24t7 -17.5t10 -7q10 0 10 25v86zM438 493v-338
q0 -137 -112 -137q-91 0 -143.5 81.5t-52.5 228.5q0 67 13.5 119.5t37.5 89t57.5 55.5t74.5 19q54 0 89.5 -32t35.5 -86z" />
    <glyph glyph-name="oe" unicode="&#x153;" horiz-adv-x="701" 
d="M220 431q50 0 82.5 -59.5t32.5 -166.5q0 -94 -30 -145.5t-81 -51.5q-50 0 -82.5 59.5t-32.5 165.5q0 94 30 146t81 52zM356 402q-50 56 -130 56q-46 0 -83 -17t-63.5 -48t-41 -75t-14.5 -98q0 -53 14 -97t39 -75.5t60 -49t78 -17.5q53 0 91 19.5t69 61.5h7q24 -41 58 -61
t76 -20q32 0 60 12.5t49 29.5t33 35t12 30q0 11 -8 11q-2 0 -9 -9t-20 -20t-32.5 -20t-46.5 -9q-30 0 -55 14t-42.5 40.5t-27.5 63.5t-10 83v24q0 9 1.5 12.5t9.5 3.5h211q31 0 31 20q0 33 -10.5 61.5t-31 49.5t-50.5 33t-68 12q-35 0 -62 -13.5t-53 -41.5l-12 -13
q-6 -7 -10 -7q-1 0 -9 8zM500 313h-62q-11 0 -11 9v2l3 16q8 41 32 68t58 27q29 0 49 -21t20 -50q0 -30 -22 -40.5t-67 -10.5z" />
    <glyph glyph-name="Scaron" unicode="&#x160;" horiz-adv-x="418" 
d="M48 474q0 -44 11.5 -73t31 -50t46 -37t56.5 -33q57 -32 85.5 -68.5t28.5 -82.5q0 -26 -8.5 -48t-23 -38t-34.5 -25t-42 -9q-38 0 -71.5 28t-48.5 79q-4 14 -6 27t-3.5 22.5t-4.5 15t-10 5.5q-15 0 -15 -31q0 -2 0.5 -8.5t0.5 -17.5q0 -14 -1 -30t-1 -33q0 -43 41 -64.5
t107 -21.5q42 0 77.5 15.5t61 42.5t40 64t14.5 81q0 42 -11 74t-32.5 57.5t-52.5 46.5t-71 42q-48 25 -70.5 50t-22.5 65q0 48 25.5 75.5t70.5 27.5q35 0 54 -21t35 -61q11 -26 14.5 -39.5t14.5 -13.5q13 0 13 21q0 99 -8 109q-7 9 -39.5 20t-74.5 11q-41 0 -73.5 -12.5
t-55.5 -35.5t-35.5 -55t-12.5 -71zM96 873l91 -171h46l91 171h-23l-91 -103l-91 103h-23z" />
    <glyph glyph-name="scaron" unicode="&#x161;" horiz-adv-x="328" 
d="M169 458q-60 0 -98.5 -36.5t-38.5 -98.5q0 -25 6.5 -43.5t19.5 -33t32 -27t44 -25.5q22 -12 40 -22.5t30.5 -22t19 -26t6.5 -33.5q0 -37 -20.5 -59t-52.5 -22q-52 0 -80 61q-8 17 -11.5 30.5t-6 23t-5.5 14.5t-10 5q-11 0 -13 -18.5t-2 -59.5v-25q0 -14 2 -22t11 -13
q14 -9 41 -16.5t61 -7.5t62.5 11t49.5 31.5t32.5 50.5t11.5 68q0 49 -23 81.5t-72 58.5q-23 12 -41.5 21.5t-31.5 19.5t-20 21.5t-7 28.5q0 26 17.5 42.5t46.5 16.5q41 0 66 -43q12 -21 14 -35t13 -14q10 0 13 16.5t3 51.5q0 26 -23 38t-86 12zM51 683l91 -171h46l91 171
h-23l-91 -103l-91 103h-23z" />
    <glyph glyph-name="Ydieresis" unicode="&#x178;" horiz-adv-x="460" 
d="M155 553q-7 13 -7 24t7.5 14.5t17 5.5t17 5t7.5 13q0 13 -12 13q-4 0 -23 -2t-55 -2q-49 0 -79.5 3t-42.5 3q-9 0 -14.5 -5t-5.5 -10q0 -7 4.5 -9t11 -2.5t14 -1.5t14.5 -6q18 -14 54 -79l127 -232q3 -5 5 -12.5t2 -11.5v-167q0 -29 -4 -41.5t-23 -18.5q-8 -3 -16 -3
t-14 -1t-10 -4t-4 -10q0 -16 21 -16q9 0 32.5 3t62.5 3t62.5 -3t32.5 -3q21 0 21 14q0 8 -3 11t-8.5 4.5t-12.5 1.5t-15 2q-22 5 -27 16.5t-5 39.5v190q0 5 2 12t4 12l119 223q15 29 27 46.5t29 23.5q7 3 14 3.5t12 1.5t8.5 4t3.5 11q0 12 -15 12q-3 0 -19 -2t-49 -2
q-26 0 -44.5 3t-28.5 3q-16 0 -16 -12q0 -11 8.5 -13.5t19 -4t19.5 -5.5t9 -17q0 -4 -3 -14t-11 -25l-95 -191q-5 -9 -6 -9q-6 0 -9 7zM90 778q0 -21 14 -35t34 -14t34.5 14t14.5 35q0 20 -14.5 34.5t-34.5 14.5t-34 -14.5t-14 -34.5zM276 778q0 -21 14 -35t34 -14t34.5 14
t14.5 35q0 20 -14.5 34.5t-34.5 14.5t-34 -14.5t-14 -34.5z" />
    <glyph glyph-name="Zcaron" unicode="&#x17d;" horiz-adv-x="476" 
d="M140 627q-22 0 -31 3.5t-13 16.5q-4 12 -3.5 19.5t-10.5 7.5q-7 0 -8 -5.5t-3 -13.5l-27 -133q-5 -28 -5 -36q0 -6 9 -6q5 0 10.5 8t12.5 20t16.5 26.5t23.5 27.5q21 21 53.5 28t82.5 7h63q13 0 13 -13q0 -6 -2 -9l-308 -549q-4 -8 -4 -15q0 -13 20 -13q8 0 78.5 3
t213.5 3q51 0 78 -3t32 -3q13 0 16 4t3 12v144q0 21 -11 21q-9 0 -11.5 -10t-5 -25t-6.5 -33t-16 -34q-25 -33 -68 -39t-103 -6h-77q-17 0 -17 10q0 2 1 6t4 9l294 530q7 14 7 23q0 20 -29 20q-5 0 -30 -1.5t-72 -1.5h-170zM125 873l91 -171h46l91 171h-23l-91 -103l-91 103
h-23z" />
    <glyph glyph-name="zcaron" unicode="&#x17e;" horiz-adv-x="360" 
d="M152 440q-10 -1 -18.5 -1.5t-15.5 -0.5q-32 0 -40 13q-2 3 -3 8.5t-1.5 10t-3 8t-7.5 3.5q-10 0 -14.5 -14.5t-15.5 -43.5t-15 -45.5t-4 -21.5q0 -14 10 -14q6 0 10 5t8.5 12.5t10 16t13.5 14.5q18 14 45.5 17t66.5 3h52q7 0 7 -8q0 -2 -2 -6l-225 -363q-11 -19 -11 -26
q0 -9 17 -9q3 0 18.5 1t46.5 1h179q18 0 32.5 -2t26.5 -2q13 0 16 4t3 12q0 5 -0.5 10.5t-0.5 10.5q0 24 1.5 44t1.5 37t-11 17q-8 0 -12 -7.5t-7.5 -18.5t-9.5 -23.5t-16 -21.5q-33 -29 -118 -29h-44q-2 0 -3.5 3t-1.5 6q0 5 4 10l217 356q11 19 11 25q0 5 -4.5 9.5
t-11.5 4.5q-14 0 -37.5 -2.5t-55.5 -2.5h-88zM67 683l91 -171h46l91 171h-23l-91 -103l-91 103h-23z" />
    <glyph glyph-name="florin" unicode="&#x192;" horiz-adv-x="437" 
d="M251 458q9 180 49 180q10 0 17.5 -11.5t15.5 -25t18 -24.5t25 -11q16 0 27 13.5t11 34.5q0 63 -79 63q-65 0 -107.5 -56t-55.5 -162l-6 -51q-1 -13 -13 -13h-72l-3 -47h69q13 0 13 -13l-13 -280q-5 -120 -16.5 -178t-43.5 -58q-14 0 -20 13t-14 32q-12 30 -35 30
q-17 0 -28 -13t-11 -35q0 -32 21 -49t61 -17q49 0 80 27.5t50 82t29 135t17 185.5l8 125q1 13 12 13h74l3 47h-72q-13 0 -13 13z" />
    <glyph glyph-name="circumflex" unicode="&#x2c6;" 
d="M227 683l-91 -171h23l91 103l91 -103h23l-91 171h-46z" />
    <glyph glyph-name="caron" unicode="&#x2c7;" 
d="M136 683l91 -171h46l91 171h-23l-91 -103l-91 103h-23z" />
    <glyph glyph-name="breve" unicode="&#x2d8;" 
d="M136 664q17 -133 114 -133q48 0 76.5 33.5t36.5 99.5h-20q-7 -36 -28.5 -52.5t-64.5 -16.5t-65 16t-29 53h-20z" />
    <glyph glyph-name="dotaccent" unicode="&#x2d9;" 
d="M201 588q0 -21 14.5 -35t34.5 -14t34.5 14.5t14.5 34.5t-14.5 34.5t-34.5 14.5t-34.5 -14.5t-14.5 -34.5z" />
    <glyph glyph-name="ring" unicode="&#x2da;" 
d="M133 621q0 -25 9 -46.5t24.5 -37.5t37 -25t46.5 -9t46.5 9t37.5 25t25 37.5t9 46.5q0 24 -9.5 45.5t-25.5 37.5t-37.5 25t-45.5 9t-45.5 -9t-37.5 -25t-25 -37.5t-9 -45.5zM177 621q0 30 21.5 51.5t51.5 21.5t51.5 -21.5t21.5 -51.5q0 -31 -21.5 -52t-51.5 -21
q-31 0 -52 21t-21 52z" />
    <glyph glyph-name="ogonek" unicode="&#x2db;" 
d="M293 15q-99 -80 -99 -164q0 -31 17.5 -50.5t44.5 -19.5q25 0 47 18.5t36 53.5l-12 9q-15 -35 -46 -35q-17 0 -28 15.5t-11 42.5q0 61 70 130h-19z" />
    <glyph glyph-name="tilde" unicode="&#x2dc;" 
d="M341 658q-6 -22 -13.5 -32t-23.5 -10q-6 0 -21 5l-43 14q-11 4 -25 4q-63 0 -77 -104h20q6 24 13.5 34.5t24.5 10.5q5 0 9.5 -1t9.5 -3l42 -13q17 -5 29 -5q61 0 76 100h-21z" />
    <glyph glyph-name="hungarumlaut" unicode="&#x2dd;" 
d="M277 618q8 11 12 20.5t4 16.5q0 14 -7.5 23.5t-18.5 9.5q-20 0 -36 -39l-56 -137h23zM385 618q8 11 11.5 20.5t3.5 16.5q0 14 -7.5 23.5t-18.5 9.5q-20 0 -36 -39l-56 -137h23z" />
    <glyph glyph-name="endash" unicode="&#x2013;" 
d="M6 242l-15 -45q-1 -3 -1 -6q0 -6 8 -6h480q11 0 16 13l14 44q2 6 2 7q0 6 -8 6h-480q-11 0 -16 -13z" />
    <glyph glyph-name="emdash" unicode="&#x2014;" horiz-adv-x="650" 
d="M-12 185h651q5 0 9.5 4t6.5 9l14 44q2 6 2 7q0 6 -9 6h-650q-5 0 -9.5 -4t-6.5 -9l-15 -45q-1 -3 -1 -6q0 -6 8 -6z" />
    <glyph glyph-name="quoteleft" unicode="&#x2018;" horiz-adv-x="219" 
d="M60 497q0 -42 15.5 -64t39.5 -22q19 0 31.5 14t12.5 35q0 42 -34 49q-12 3 -21 6.5t-9 20.5q0 18 8.5 34t18 29t18 23t8.5 16q0 10 -9 10q-7 0 -20.5 -13t-26.5 -34t-22.5 -48t-9.5 -56z" />
    <glyph glyph-name="quoteright" unicode="&#x2019;" horiz-adv-x="219" 
d="M103 647q-17 0 -29.5 -14t-12.5 -35q0 -41 35 -48q12 -2 21 -6.5t9 -19.5q0 -19 -8.5 -35.5t-18.5 -29.5t-18.5 -23t-8.5 -16q0 -10 10 -10q7 0 20.5 13t26.5 34t22.5 48t9.5 56q0 42 -15.5 64t-42.5 22z" />
    <glyph glyph-name="quotesinglbase" unicode="&#x201a;" horiz-adv-x="219" 
d="M99 92q-17 0 -30 -14.5t-13 -35.5q0 -41 35 -48q11 -2 20.5 -5.5t9.5 -19.5q0 -19 -8.5 -35.5t-18.5 -29.5t-18.5 -23t-8.5 -16q0 -10 10 -10q7 0 20.5 13t26.5 34t22.5 48t9.5 55q0 42 -15 64.5t-42 22.5z" />
    <glyph glyph-name="quotedblleft" unicode="&#x201c;" horiz-adv-x="330" 
d="M39 497q0 -42 15.5 -64t39.5 -22q20 0 32.5 14.5t12.5 35.5q0 41 -35 48q-12 3 -21 6.5t-9 20.5q0 18 8.5 34t18.5 29t18.5 23t8.5 16q0 10 -10 10q-7 0 -20.5 -13t-26.5 -34t-22.5 -48.5t-9.5 -55.5zM188 497q0 -42 15.5 -64t39.5 -22q20 0 32.5 14.5t12.5 35.5
q0 41 -35 48q-12 3 -21 6.5t-9 20.5q0 18 8.5 34t18.5 29t18.5 23t8.5 16q0 10 -10 10q-7 0 -20.5 -13t-26.5 -34t-22.5 -48.5t-9.5 -55.5z" />
    <glyph glyph-name="quotedblright" unicode="&#x201d;" horiz-adv-x="330" 
d="M83 647q-17 0 -29.5 -14t-12.5 -35q0 -41 34 -48q12 -2 21.5 -6.5t9.5 -19.5q0 -19 -8.5 -35.5t-18.5 -29.5t-18.5 -23t-8.5 -16q0 -10 9 -10q7 0 20.5 13t26.5 34t23 48t10 56q0 42 -15.5 64t-42.5 22zM232 647q-17 0 -29.5 -14t-12.5 -35q0 -41 35 -48q12 -2 21 -6.5
t9 -19.5q0 -19 -8.5 -35.5t-18.5 -29.5t-18.5 -23t-8.5 -16q0 -10 9 -10q7 0 20.5 13t26.5 34.5t23 48.5t10 55q0 42 -15.5 64t-42.5 22z" />
    <glyph glyph-name="quotedblbase" unicode="&#x201e;" horiz-adv-x="330" 
d="M79 92q-17 0 -29.5 -14.5t-12.5 -35.5q0 -41 35 -48q11 -2 20.5 -5.5t9.5 -19.5q0 -19 -8.5 -35.5t-18.5 -29.5t-18.5 -23t-8.5 -16q0 -10 10 -10q7 0 20.5 13t26.5 34t22.5 48t9.5 55q0 42 -15.5 64.5t-42.5 22.5zM228 92q-17 0 -29.5 -14.5t-12.5 -35.5q0 -41 35 -48
q11 -2 20.5 -5.5t9.5 -19.5q0 -19 -8.5 -35.5t-18.5 -29.5t-18.5 -23t-8.5 -16q0 -10 10 -10q7 0 20.5 13t26.5 34t22.5 48t9.5 55q0 42 -15.5 64.5t-42.5 22.5z" />
    <glyph glyph-name="dagger" unicode="&#x2020;" horiz-adv-x="400" 
d="M210 431q0 6 -0.5 11.5t-0.5 10.5q0 30 4.5 53.5t10 41.5t10 31.5t4.5 23.5q0 23 -10.5 36.5t-26.5 13.5q-18 0 -29 -14t-11 -36q0 -10 4.5 -23.5l10.5 -31.5t10.5 -41t4.5 -53v-11t-1 -13h-6q-18 0 -33 5.5t-27.5 11.5t-23.5 11.5t-20 5.5q-20 0 -31 -13.5t-11 -36.5
q0 -21 12.5 -32.5t29.5 -11.5q11 0 22.5 5.5t24 12t28 12.5t35.5 7v-13q0 -42 -7 -81.5t-28 -84.5q22 -109 28 -213t6 -209h24v29q0 103 6.5 200.5t25.5 192.5q-20 36 -27.5 80t-8.5 99q22 0 37.5 -6t28.5 -13t23.5 -12.5t21.5 -5.5q19 0 30.5 12t11.5 35q0 20 -11.5 33.5
t-30.5 13.5q-9 0 -20 -5t-23 -11.5t-26.5 -11.5t-31.5 -5h-9z" />
    <glyph glyph-name="daggerdbl" unicode="&#x2021;" horiz-adv-x="400" 
d="M210 427q0 6 -0.5 11.5t-0.5 10.5q0 30 4.5 53.5t10 41.5t10 31t4.5 23q0 23 -10.5 36.5t-26.5 13.5q-18 0 -29 -14t-11 -36q0 -10 4.5 -23t10.5 -31t10.5 -41t4.5 -53v-11t-1 -13h-6q-18 0 -33 5t-27.5 11.5t-23.5 11.5t-20 5q-20 0 -31 -13t-11 -36q0 -21 12.5 -32.5
t29.5 -11.5q11 0 22.5 5.5t24 12t28 12t35.5 6.5v-12q0 -42 -7 -81.5t-28 -84.5q17 -33 26.5 -74.5t9.5 -90.5v-15q-22 0 -37.5 5.5t-28 12.5t-24 12.5t-24.5 5.5q-16 0 -27.5 -12t-11.5 -35q0 -20 11.5 -33t30.5 -13q9 0 20 5t23.5 11.5t26 11.5t27.5 5h13q0 -6 0.5 -11.5
t0.5 -10.5q0 -30 -4.5 -53.5t-10 -41.5t-10 -31.5t-4.5 -23.5q0 -23 10.5 -36.5t26.5 -13.5q18 0 29 14t11 36q0 10 -4.5 23.5t-10.5 31t-10.5 40.5t-4.5 52v12q0 7 1 14h6q18 0 33 -5.5t27.5 -11.5t23.5 -11.5t20 -5.5q20 0 31 13t11 33q0 23 -12 35t-30 12
q-11 0 -22.5 -5.5t-24 -12t-28 -12t-35.5 -6.5v18q0 43 8 81.5t27 78.5q-20 38 -27.5 82.5t-8.5 98.5q22 0 37.5 -6t28.5 -13t23.5 -12.5t21.5 -5.5q19 0 30.5 12t11.5 35q0 20 -11.5 33.5t-30.5 13.5q-9 0 -20 -5t-23 -11.5t-26.5 -11.5t-31.5 -5h-9z" />
    <glyph glyph-name="bullet" unicode="&#x2022;" horiz-adv-x="590" 
d="M150 372q0 -30 11 -56.5t30.5 -46t46 -31t56.5 -11.5t56.5 11.5t46 31.5t31 46t11.5 56t-11.5 56t-31 45.5t-45.5 31t-56 11.5t-56.5 -11.5t-46 -31t-31 -45.5t-11.5 -56z" />
    <glyph glyph-name="ellipsis" unicode="&#x2026;" horiz-adv-x="1000" 
d="M166 96q-17 0 -30.5 -15t-13.5 -38t13.5 -38t30.5 -15t30.5 15t13.5 38t-13.5 38t-30.5 15zM499 96q-17 0 -30.5 -15t-13.5 -38t13.5 -38t30.5 -15t30.5 15t13.5 38t-13.5 38t-30.5 15zM833 96q-17 0 -30.5 -15t-13.5 -38t13.5 -38t30.5 -15t30.5 15t13.5 38t-13.5 38
t-30.5 15z" />
    <glyph glyph-name="perthousand" unicode="&#x2030;" horiz-adv-x="915" 
d="M173 648q-26 0 -49.5 -12.5t-41.5 -34.5t-29 -52.5t-11 -66.5q0 -35 11 -64t29 -50t41.5 -32.5t49.5 -11.5q25 0 48.5 12t42 34t29.5 52.5t11 67.5q0 33 -10.5 62t-28.5 50t-41.5 33.5t-50.5 12.5zM489 648l-405 -667h41l406 667h-42zM170 616q29 0 50 -36.5t21 -100.5
q0 -60 -18.5 -93t-47.5 -33t-49.5 37.5t-20.5 102.5q0 58 18 90.5t47 32.5zM442 305q-26 0 -49.5 -12.5t-41.5 -34.5t-29 -52.5t-11 -66.5q0 -35 10.5 -64t28.5 -50t42 -32.5t50 -11.5q25 0 48.5 12.5t42 34.5t29.5 52.5t11 66.5q0 34 -10.5 63t-28.5 50t-41.5 33t-50.5 12z
M742 305q-26 0 -49.5 -12.5t-41.5 -34.5t-29 -52.5t-11 -66.5q0 -35 11 -64t29 -50t41.5 -32.5t49.5 -11.5q25 0 48.5 12.5t42 34.5t29.5 52.5t11 66.5q0 34 -10.5 63t-28.5 50t-42 33t-50 12zM440 275q28 0 49 -36.5t21 -99.5q0 -61 -18.5 -94t-47.5 -33t-49.5 36.5
t-20.5 102.5q0 58 18.5 91t47.5 33zM740 275q29 0 50 -37t21 -101q0 -60 -18.5 -92.5t-47.5 -32.5t-50 37t-21 102q0 58 18.5 91t47.5 33z" />
    <glyph glyph-name="guilsinglleft" unicode="&#x2039;" horiz-adv-x="197" 
d="M159 316q8 15 13 26.5t5 20.5q0 8 -6 8q-11 0 -22 -17.5t-38 -46.5q-38 -39 -62.5 -57.5t-24.5 -29.5q0 -6 7.5 -14t21 -19.5t32 -28t39.5 -39.5q19 -21 27.5 -35.5t19.5 -14.5q6 0 6 8q0 9 -5 20t-13 27l-52 96z" />
    <glyph glyph-name="guilsinglright" unicode="&#x203a;" horiz-adv-x="197" 
d="M38 124q-18 -32 -18 -45q0 -10 6 -10q11 0 22 17.5t38 46.5q38 39 62.5 57.5t24.5 29.5q0 6 -6.5 12.5t-18 16.5t-28 24.5t-35.5 34.5q-27 28 -37.5 45.5t-21.5 17.5q-6 0 -6 -10q0 -12 18 -45l52 -96z" />
    <glyph glyph-name="trademark" unicode="&#x2122;" horiz-adv-x="822" 
d="M125 702l-6 -87h13q4 38 19.5 56t47.5 18h10v-208q0 -24 -22 -26l-15 -1v-13h121v13l-15 1q-22 2 -22 26v208h10q32 0 47.5 -18t19.5 -56h12l-5 87h-215zM385 702v-13l15 -1q10 -1 16.5 -7.5t6.5 -18.5v-181q0 -24 -22 -26l-16 -1v-13h96v13l-15 1q-10 1 -16.5 7.5
t-6.5 18.5v193l85 -234h7l87 234v-193q0 -24 -22 -26l-15 -1v-13h115v13l-14 1q-23 2 -23 26v182q0 24 23 26l14 1v12h-85l-72 -195l-69 195h-89z" />
    <glyph glyph-name="minus" unicode="&#x2212;" horiz-adv-x="833" 
d="M124 327v-58h585v58h-585z" />
    <glyph glyph-name="fraction" unicode="&#x2215;" horiz-adv-x="133" 
d="M232 648l-366 -667h35l366 667h-35z" />
    <glyph glyph-name="fi" unicode="&#xfb01;" horiz-adv-x="453" 
d="M155 504q0 79 16.5 120.5t61.5 41.5q21 0 35 -12t24.5 -26.5t19 -26.5t17.5 -12q5 0 12 6.5t13 16t10 20t4 18.5q0 17 -31 31t-76 14q-36 0 -68 -12t-56.5 -35.5t-40.5 -58t-19 -79.5l-4 -51q-2 -12 -11 -17l-18 -9q-19 -10 -19 -19q0 -5 4.5 -9.5t10.5 -4.5h18
q13 0 13 -13v-311q0 -17 -4 -26t-18 -16q-18 -8 -29 -7.5t-11 -13.5q0 -16 19 -16q14 0 37.5 3.5t53.5 3.5q26 0 43.5 -3.5t27.5 -3.5q17 0 17 14q0 8 -2.5 11t-7.5 4.5t-12 3.5t-16 7q-9 6 -11.5 15t-2.5 24v311q0 13 12 13h69q36 0 51.5 -12.5t15.5 -52.5v-260
q0 -20 -2.5 -29t-13.5 -14q-6 -3 -11.5 -3.5t-9.5 -1.5t-6.5 -4t-2.5 -10q0 -17 15 -17q11 0 29 3.5t44 3.5q25 0 45.5 -3.5t34.5 -3.5q18 0 18 15q0 9 -3 12t-8.5 4t-13 1.5t-16.5 5.5q-10 5 -12.5 14.5t-2.5 26.5v356q0 28 -11 28q-3 0 -7.5 -3t-14 -6.5t-26 -6.5
t-44.5 -3h-116q-13 0 -13 13v51z" />
    <glyph glyph-name="fl" unicode="&#xfb02;" horiz-adv-x="453" 
d="M339 677q-39 18 -78 18q-36 0 -68 -12t-56.5 -35.5t-40.5 -58t-19 -79.5l-4 -51q-2 -12 -11 -17l-18 -9q-19 -10 -19 -19q0 -5 4.5 -9.5t10.5 -4.5h18q13 0 13 -13v-311q0 -17 -4 -26t-18 -16q-18 -8 -29 -7.5t-11 -13.5q0 -16 19 -16q14 0 37.5 3.5t53.5 3.5
q26 0 43.5 -3.5t27.5 -3.5q17 0 17 14q0 8 -2.5 11t-7.5 4.5t-12 3.5t-16 7q-9 6 -11.5 15t-2.5 24v311q0 13 12 13h75q10 0 11.5 4.5t1.5 14.5v5q0 8 -2 12t-11 4h-74q-13 0 -13 13v51q0 80 16.5 121t62.5 41q69 0 69 -103v-488q0 -20 -2.5 -29t-13.5 -14q-6 -3 -11.5 -3.5
t-9.5 -1.5t-6.5 -4t-2.5 -10q0 -17 15 -17q11 0 29 3.5t44 3.5q25 0 45.5 -3.5t34.5 -3.5q18 0 18 15q0 9 -3 12t-8.5 4t-13 1.5t-16.5 5.5q-10 5 -12.5 14.5t-2.5 26.5v492q0 38 1 66t1 45q0 16 -12 16q-3 0 -11.5 -5t-26.5 -12z" />
    </font>
</defs>
</svg>
